<svg width="400" height="400" viewBox="0 0 1497 618" fill="none" xmlns="http://www.w3.org/2000/svg">
<path d="M420.923 180.099H633.548C633.548 180.099 630.476 163.358 591.129 164.315C598.933 139.876 576.915 113.196 527.246 112.177C477.577 111.159 495.028 150.873 495.028 150.873C495.028 150.873 411.543 136.617 436.797 166.189C395.423 167.757 387.251 173.012 420.923 180.099Z" fill="#0142EB" fill-opacity="0.12"/>
<path d="M973.173 286.034C978.017 261.652 936.596 234.938 860.282 233.906C783.968 232.874 822.248 272.656 822.248 272.656C822.248 272.656 690.454 258.205 737.683 287.954C674.834 289.378 663.791 294.643 717.425 301.827H1042.61C1042.61 301.827 1033.05 285.188 973.173 286.034Z" fill="#0142EB" fill-opacity="0.12"/>
<path d="M930.507 105.081H1150.64C1150.64 105.081 1199.76 76.5088 1141.53 72.8181C1151.54 48.393 1126.96 6.96558 1041.02 6.0118C955.087 5.05802 999.641 62.2228 999.641 62.2228C999.641 62.2228 868.659 23.9678 914.605 84.8026C894.549 84.8026 823.184 105.081 930.507 105.081Z" fill="#0142EB" fill-opacity="0.12"/>
<path d="M1271.28 275H1390.51C1390.51 275 1417.12 259.716 1385.58 257.742C1391 244.677 1377.69 222.517 1331.14 222.006C1284.59 221.496 1308.73 252.075 1308.73 252.075C1308.73 252.075 1237.78 231.611 1262.67 264.153C1251.8 264.153 1213.15 275 1271.28 275Z" fill="#0142EB" fill-opacity="0.12"/>
<path d="M240.04 208H183.016C183.016 208 170.292 200.791 185.375 199.859C182.783 193.697 189.15 183.244 211.411 183.003C233.673 182.762 222.131 197.186 222.131 197.186C222.131 197.186 256.062 187.534 244.16 202.883C249.355 202.883 267.842 208 240.04 208Z" fill="#0142EB" fill-opacity="0.12"/>
<path d="M469.731 396.662H568.259C568.259 396.662 590.256 384.019 564.181 382.364C568.666 371.559 557.658 353.217 519.189 352.788C480.719 352.36 500.678 377.666 500.678 377.666C500.678 377.666 442.047 360.754 462.596 387.675C453.646 387.695 421.681 396.662 469.731 396.662Z" fill="#0142EB" fill-opacity="0.12"/>
<path d="M748.156 575.36C1161.35 575.36 1496.31 555.804 1496.31 531.68C1496.31 507.556 1161.35 488 748.156 488C334.961 488 0 507.556 0 531.68C0 555.804 334.961 575.36 748.156 575.36Z" fill="#0142EB" fill-opacity="0.12"/>
<g filter="url(#filter0_b_74_975)">
<path d="M1029.37 423C1027.71 423 1026.37 421.657 1026.37 420V384C1026.37 382.343 1025.02 381 1023.37 381H910.366C908.709 381 907.366 379.657 907.366 378V339.943C907.366 339.329 907.555 338.73 907.906 338.226L1018.82 179.283C1019.38 178.479 1020.3 178 1021.28 178H1075.87C1077.52 178 1078.87 179.343 1078.87 181V332.5C1078.87 334.157 1080.21 335.5 1081.87 335.5H1106.32C1107.97 335.5 1109.32 336.843 1109.32 338.5V378C1109.32 379.657 1107.97 381 1106.32 381H1081.87C1080.21 381 1078.87 382.343 1078.87 384V420C1078.87 421.657 1077.52 423 1075.87 423H1029.37ZM966.146 330.83C964.81 332.823 966.239 335.5 968.638 335.5H1026.87C1028.52 335.5 1029.87 334.157 1029.87 332.5V245.615C1029.87 242.651 1026.02 241.482 1024.37 243.945L966.146 330.83Z" fill="#0142EB" fill-opacity="0.03"/>
<path d="M1016.77 177.852L1016.77 177.852L905.856 336.796C905.212 337.719 904.866 338.817 904.866 339.943V378C904.866 381.037 907.329 383.5 910.366 383.5H1023.37C1023.64 383.5 1023.87 383.724 1023.87 384V420C1023.87 423.037 1026.33 425.5 1029.37 425.5H1075.87C1078.9 425.5 1081.37 423.037 1081.37 420V384C1081.37 383.724 1081.59 383.5 1081.87 383.5H1106.32C1109.35 383.5 1111.82 381.037 1111.82 378V338.5C1111.82 335.462 1109.35 333 1106.32 333H1081.87C1081.59 333 1081.37 332.776 1081.37 332.5V181C1081.37 177.962 1078.9 175.5 1075.87 175.5H1021.28C1019.48 175.5 1017.8 176.378 1016.77 177.852ZM968.638 333C968.238 333 968 332.554 968.223 332.221L1026.45 245.337C1026.55 245.19 1026.64 245.149 1026.69 245.13C1026.77 245.105 1026.88 245.098 1027.01 245.137C1027.14 245.175 1027.23 245.244 1027.28 245.308C1027.32 245.356 1027.37 245.439 1027.37 245.615V332.5C1027.37 332.776 1027.14 333 1026.87 333H968.638Z" stroke="#0142EB" stroke-width="5"/>
</g>
<path d="M766.33 427.2C743.697 427.2 724.33 421.833 708.23 411.1C692.13 400.366 679.647 385.55 670.78 366.65C662.147 347.516 657.83 325.466 657.83 300.5C657.83 275.533 662.147 253.6 670.78 234.7C679.647 215.566 692.13 200.633 708.23 189.9C724.33 179.166 743.697 173.8 766.33 173.8C788.963 173.8 808.33 179.166 824.43 189.9C840.53 200.633 852.897 215.566 861.53 234.7C870.397 253.6 874.83 275.533 874.83 300.5C874.83 325.466 870.397 347.516 861.53 366.65C852.897 385.55 840.53 400.366 824.43 411.1C808.33 421.833 788.963 427.2 766.33 427.2ZM766.33 379.95C777.297 379.95 786.863 376.683 795.03 370.15C803.43 363.616 809.847 354.516 814.28 342.85C818.947 330.95 821.28 316.833 821.28 300.5C821.28 284.166 818.947 270.166 814.28 258.5C809.847 246.6 803.43 237.5 795.03 231.2C786.863 224.666 777.297 221.4 766.33 221.4C755.363 221.4 745.68 224.666 737.28 231.2C729.113 237.5 722.697 246.6 718.03 258.5C713.597 270.166 711.38 284.166 711.38 300.5C711.38 316.833 713.597 330.95 718.03 342.85C722.697 354.516 729.113 363.616 737.28 370.15C745.68 376.683 755.363 379.95 766.33 379.95Z" fill="#0142EB"/>
<g filter="url(#filter1_d_74_975)">
<path d="M1105 330L1111.14 329.293L1112 313L1105.86 313.707L1105 330Z" fill="#CF7A64"/>
<path d="M1068.82 331.565L1074.97 330.955L1076.28 316.425L1070.13 317.035L1068.82 331.565Z" fill="#CF7A64"/>
<path d="M1075.32 329.575L1068.4 330.265C1068.28 330.278 1068.17 330.331 1068.08 330.417C1068 330.502 1067.94 330.614 1067.93 330.735L1067.4 336.315C1067.39 336.449 1067.41 336.583 1067.46 336.709C1067.5 336.835 1067.58 336.95 1067.67 337.045C1067.77 337.14 1067.88 337.213 1068.01 337.26C1068.13 337.306 1068.27 337.325 1068.4 337.315C1070.81 337.035 1071.96 336.775 1075 336.475C1076.87 336.285 1079.38 336.115 1082 335.855C1084.62 335.595 1084.61 333.015 1083.52 332.855C1078.65 332.295 1078.05 331.015 1076.36 329.805C1076.05 329.606 1075.68 329.524 1075.32 329.575Z" fill="#263238"/>
<path d="M1111.06 327.004L1104.05 327.795C1103.92 327.806 1103.8 327.867 1103.71 327.967C1103.62 328.067 1103.57 328.2 1103.56 328.342L1103 334.832C1102.99 334.989 1103.01 335.146 1103.06 335.294C1103.11 335.441 1103.18 335.576 1103.28 335.687C1103.38 335.798 1103.5 335.883 1103.63 335.936C1103.77 335.99 1103.91 336.01 1104.05 335.996C1106.57 335.67 1110.21 335.088 1113.39 334.739C1117.12 334.321 1117.14 334.542 1121.51 334.053C1124.14 333.751 1124.53 330.703 1123.41 330.563C1118.24 329.9 1117.34 329.877 1112.65 327.388C1112.16 327.107 1111.61 326.974 1111.06 327.004Z" fill="#263238"/>
<path d="M1087.16 127.415C1088.72 127.555 1090.48 127.725 1092.16 127.805C1093.84 127.885 1095.52 127.945 1097.16 127.945C1098.74 127.941 1100.32 127.847 1101.89 127.665C1103.14 127.535 1104.36 127.222 1105.51 126.735L1103.67 129.555C1103.67 129.885 1103.74 129.885 1103.67 129.685C1103.59 129.378 1103.47 129.083 1103.31 128.805C1102.84 127.952 1102.29 127.148 1101.66 126.405C1100.22 124.68 1098.68 123.046 1097.03 121.515C1095.35 119.905 1093.58 118.345 1091.79 116.795C1090 115.245 1088.14 113.705 1086.34 112.215L1088.74 108.475C1090.97 109.615 1093.07 110.855 1095.19 112.145C1097.31 113.435 1099.35 114.835 1101.37 116.335C1103.46 117.851 1105.43 119.523 1107.26 121.335C1108.28 122.364 1109.2 123.485 1110.01 124.685C1110.51 125.424 1110.92 126.219 1111.23 127.055C1111.68 128.225 1111.84 129.489 1111.69 130.735L1111.47 132.495L1109.83 133.585C1107.86 134.841 1105.66 135.701 1103.35 136.115C1101.37 136.52 1099.37 136.767 1097.35 136.855C1095.41 136.965 1093.5 136.945 1091.61 136.855C1089.72 136.765 1087.89 136.625 1085.89 136.325L1087.16 127.415Z" fill="#CE7A63"/>
<path d="M1090.83 110.475L1087.15 105.865L1084.39 112.475C1084.39 112.475 1087.73 116.405 1091.27 114.475L1090.83 110.475Z" fill="#CF7A64"/>
<path d="M1082.27 103.445L1081.65 110.945L1084.39 112.425L1087.14 105.845L1082.27 103.445Z" fill="#CF7A64"/>
<path d="M1077.76 104.405L1083.36 102.085C1083.45 102.037 1083.55 102.01 1083.65 102.005C1083.76 102 1083.86 102.017 1083.95 102.055C1084.05 102.093 1084.13 102.151 1084.2 102.225C1084.27 102.299 1084.33 102.388 1084.36 102.485L1087.97 113.995C1088.01 114.197 1087.99 114.408 1087.89 114.591C1087.79 114.774 1087.63 114.917 1087.44 114.995L1081.84 117.315C1081.75 117.362 1081.65 117.389 1081.55 117.394C1081.45 117.399 1081.34 117.382 1081.25 117.344C1081.15 117.306 1081.07 117.248 1081 117.174C1080.93 117.1 1080.87 117.011 1080.84 116.915L1077.23 105.475C1077.17 105.262 1077.19 105.034 1077.29 104.836C1077.39 104.638 1077.55 104.484 1077.76 104.405Z" fill="#263238"/>
<path d="M1081.06 138.395C1085.13 143.315 1101.81 138.705 1101.81 138.705L1100.4 127.475C1100.4 127.475 1096.19 126.215 1087.84 125.955C1079.28 125.645 1076.6 133.005 1081.06 138.395Z" fill="#0142EB"/>
<path opacity="0.2" d="M1111.83 312.965L1111.37 320.325L1105.13 320.945L1105.58 313.585L1111.83 312.965Z" fill="black"/>
<path opacity="0.2" d="M1070.12 317.045L1076.28 316.425L1075.6 323.915L1069.45 324.535L1070.12 317.045Z" fill="black"/>
<path d="M1093.88 129.045C1096.3 135.325 1102.24 154.045 1100.17 182.305L1067.25 185.615C1066.39 180.615 1066.25 153.125 1058.37 129.855C1061.93 128.793 1065.56 127.961 1069.22 127.365C1073.86 126.625 1078.53 126.154 1083.22 125.955C1085.62 125.951 1088.01 126.088 1090.39 126.365C1091.16 126.449 1091.9 126.744 1092.51 127.216C1093.13 127.689 1093.6 128.321 1093.88 129.045Z" fill="#0142EB"/>
<path opacity="0.2" d="M1081.23 134.175L1079.94 134.345C1080.07 145.345 1080.23 148.345 1070.3 158.625C1068.51 160.449 1066.88 162.43 1065.44 164.545C1065.57 165.845 1065.7 167.105 1065.82 168.325C1068.39 165.975 1071.82 162.895 1074.38 160.755C1085.93 151.115 1081.56 134.035 1081.23 134.175Z" fill="black"/>
<path opacity="0.2" d="M1066.26 135.005C1067.26 138.855 1067.26 148.335 1064.86 159.515C1063.75 150.251 1061.84 141.103 1059.13 132.175C1061.26 131.685 1065.28 131.395 1066.26 135.005Z" fill="black"/>
<path d="M1069.41 114.125C1070.86 118.525 1072 124.045 1069.22 127.365C1069.22 127.365 1071.6 131.735 1079.97 130.895C1087.61 130.125 1083.22 125.955 1083.22 125.955C1078.04 125.265 1077.53 119.045 1077.97 115.465L1069.41 114.125Z" fill="#CF7A64"/>
<path d="M1080.33 130.475L1082.33 132.295C1082.4 132.358 1082.45 132.438 1082.48 132.527C1082.51 132.617 1082.52 132.712 1082.5 132.805L1082.09 134.635C1082.07 134.735 1082.02 134.827 1081.94 134.897C1081.87 134.967 1081.77 135.012 1081.67 135.025L1079.72 135.315C1079.63 135.328 1079.54 135.319 1079.45 135.288C1079.37 135.256 1079.29 135.204 1079.23 135.135L1077.89 133.535C1077.82 133.442 1077.78 133.327 1077.78 133.21C1077.78 133.092 1077.82 132.978 1077.89 132.885L1079.56 130.545C1079.61 130.487 1079.66 130.44 1079.73 130.405C1079.79 130.371 1079.86 130.349 1079.93 130.343C1080 130.336 1080.08 130.345 1080.15 130.367C1080.21 130.39 1080.28 130.426 1080.33 130.475Z" fill="#263238"/>
<path d="M1079.71 130.415C1078.87 132.598 1077.77 134.671 1076.42 136.585C1076.42 136.585 1068.29 132.885 1067.8 127.585C1067.79 127.488 1067.81 127.391 1067.85 127.302C1067.89 127.212 1067.95 127.134 1068.02 127.075C1068.33 126.835 1068.89 126.395 1069.42 125.955C1069.48 125.898 1069.56 125.857 1069.64 125.833C1069.72 125.808 1069.8 125.802 1069.88 125.815C1069.97 125.827 1070.04 125.858 1070.11 125.905C1070.18 125.951 1070.24 126.013 1070.28 126.085C1070.93 127.235 1073.03 129.475 1079.71 130.415Z" fill="white"/>
<path d="M1080 130.355C1081.7 131.637 1083.12 133.254 1084.17 135.105C1084.95 133.75 1085.42 132.241 1085.54 130.685C1085.66 129.129 1085.44 127.565 1084.89 126.105C1084.86 126.018 1084.8 125.941 1084.73 125.879C1084.66 125.817 1084.58 125.771 1084.49 125.745C1084.14 125.655 1083.49 125.495 1082.82 125.365C1082.73 125.35 1082.64 125.356 1082.56 125.383C1082.47 125.409 1082.39 125.455 1082.33 125.517C1082.26 125.58 1082.21 125.656 1082.18 125.74C1082.15 125.825 1082.14 125.915 1082.15 126.005C1082.32 126.865 1082.2 127.757 1081.81 128.543C1081.42 129.329 1080.79 129.965 1080 130.355Z" fill="white"/>
<path d="M1081.17 134.105C1081.49 133.965 1084.73 149.265 1073.55 158.555C1068.99 162.345 1061.66 169.115 1061.67 169.105C1062.35 166.415 1064.49 162.265 1069.86 156.825C1079.57 146.995 1079.56 144.325 1079.96 134.325L1081.17 134.105Z" fill="#263238"/>
<path opacity="0.2" d="M1077.97 115.475C1077.61 117.976 1077.96 120.528 1078.97 122.845C1078.18 122.808 1077.39 122.653 1076.64 122.385C1073.64 121.385 1071.99 119.385 1070.14 116.385C1069.93 115.595 1069.7 114.835 1069.46 114.095L1077.97 115.475Z" fill="black"/>
<path d="M1074.6 100.475C1075.79 91.0646 1082.71 101.025 1080.79 105.705C1079.61 108.565 1074.31 102.745 1074.6 100.475Z" fill="#263238"/>
<path d="M1065.08 109.015C1067.45 114.735 1068.55 118.205 1072.51 120.245C1078.46 123.335 1084.67 118.335 1084.03 112.055C1083.46 106.405 1079.68 97.9946 1073.22 97.5146C1071.8 97.3969 1070.38 97.651 1069.09 98.2518C1067.8 98.8527 1066.69 99.7794 1065.87 100.941C1065.05 102.102 1064.54 103.457 1064.4 104.873C1064.27 106.289 1064.5 107.717 1065.08 109.015Z" fill="#CF7A64"/>
<path d="M1067.75 114.545C1068.51 114.412 1069.21 114.066 1069.77 113.546C1070.34 113.027 1070.74 112.356 1070.93 111.615C1069.23 110.929 1067.75 109.779 1066.66 108.295C1066.66 108.295 1069.2 104.645 1068.93 102.535C1072.19 102.535 1079.83 99.3846 1078.1 95.9046C1076.37 92.4246 1069.51 90.6946 1065.51 93.1546C1062.99 94.8729 1060 95.7768 1056.95 95.7446C1057.86 96.2836 1058.85 96.6752 1059.88 96.9046C1058.76 98.0057 1057.87 99.3316 1057.29 100.796C1056.71 102.26 1056.45 103.831 1056.51 105.405C1056.7 109.875 1054.27 111.675 1054.27 111.675C1054.27 111.675 1057.27 112.125 1058.19 110.805C1057.78 112.265 1060.25 117.385 1065.68 118.095C1071.76 118.885 1067.75 114.545 1067.75 114.545Z" fill="#263238"/>
<path d="M1065.26 117.285C1067.51 118.285 1069.26 118.625 1070.42 117.945C1071.58 117.265 1071.25 114.945 1069.77 113.615C1068.44 112.445 1065.82 111.335 1064.3 112.615C1062.78 113.895 1062.94 116.225 1065.26 117.285Z" fill="#CF7A64"/>
<path d="M1100.17 182.305C1100.17 182.305 1114.33 228.865 1115.33 246.475C1116.43 265.745 1113.65 316.955 1113.65 316.955L1102.52 318.085C1102.52 318.085 1100.44 269.325 1097.62 250.465C1094.56 229.995 1079.19 184.465 1079.19 184.465L1100.17 182.305Z" fill="#263238"/>
<path opacity="0.2" d="M1090.42 204.255L1088.67 214.475C1091.12 222.745 1093.57 231.555 1095.36 239.205C1095.9 227.349 1094.22 215.497 1090.42 204.255Z" fill="black"/>
<path d="M1101.6 315.305L1101.96 319.415L1114.41 318.165L1114.77 313.515L1101.6 315.305Z" fill="#0142EB"/>
<path d="M1088.49 183.475C1088.49 183.475 1093.1 225.105 1091.49 243.075C1089.7 262.745 1078.31 321.585 1078.31 321.585L1067.04 322.715C1067.04 322.715 1073.24 265.975 1073.24 246.715C1073.24 225.765 1067.24 185.655 1067.24 185.655L1088.49 183.475Z" fill="#263238"/>
<path d="M1066.65 319.115L1066.49 322.985L1078.88 321.735L1080.14 317.355L1066.65 319.115Z" fill="#0142EB"/>
<path d="M1074.41 107.795C1074.57 108.275 1074.96 108.575 1075.26 108.475C1075.56 108.375 1075.69 107.905 1075.52 107.475C1075.35 107.045 1074.98 106.695 1074.67 106.795C1074.36 106.895 1074.24 107.315 1074.41 107.795Z" fill="#263238"/>
<path d="M1079.73 106.065C1079.89 106.545 1080.28 106.845 1080.58 106.745C1080.88 106.645 1081.01 106.175 1080.84 105.745C1080.67 105.315 1080.3 104.965 1079.99 105.065C1079.68 105.165 1079.57 105.595 1079.73 106.065Z" fill="#263238"/>
<path d="M1078.12 106.855C1079.19 108.122 1080.41 109.241 1081.77 110.185C1081.53 110.522 1081.22 110.802 1080.85 111.003C1080.49 111.203 1080.09 111.32 1079.67 111.345L1078.12 106.855Z" fill="#BA4D3C"/>
<path d="M1078.49 113.295C1078.53 113.279 1078.55 113.251 1078.57 113.215C1078.58 113.18 1078.59 113.14 1078.57 113.105C1078.56 113.069 1078.53 113.041 1078.49 113.024C1078.46 113.007 1078.42 113.004 1078.38 113.015C1077.8 113.234 1077.18 113.314 1076.56 113.25C1075.94 113.186 1075.35 112.978 1074.82 112.645C1074.79 112.617 1074.76 112.602 1074.72 112.602C1074.68 112.602 1074.64 112.617 1074.61 112.645C1074.59 112.674 1074.57 112.711 1074.57 112.75C1074.57 112.788 1074.59 112.825 1074.61 112.855C1075.17 113.237 1075.82 113.476 1076.5 113.553C1077.17 113.63 1077.86 113.541 1078.49 113.295Z" fill="#263238"/>
<path d="M1072.21 106.585C1072.25 106.57 1072.29 106.547 1072.32 106.515C1072.35 106.484 1072.38 106.446 1072.39 106.405C1072.49 106.055 1072.67 105.735 1072.93 105.472C1073.18 105.209 1073.49 105.011 1073.83 104.895C1073.87 104.885 1073.9 104.869 1073.94 104.845C1073.97 104.822 1073.99 104.792 1074.01 104.758C1074.03 104.725 1074.04 104.687 1074.04 104.649C1074.05 104.61 1074.04 104.571 1074.03 104.535C1074.01 104.46 1073.96 104.396 1073.89 104.357C1073.83 104.318 1073.75 104.306 1073.67 104.325C1073.23 104.464 1072.84 104.708 1072.52 105.036C1072.2 105.364 1071.96 105.765 1071.83 106.205C1071.81 106.258 1071.81 106.314 1071.82 106.369C1071.84 106.423 1071.86 106.473 1071.9 106.512C1071.94 106.552 1071.99 106.58 1072.05 106.592C1072.1 106.605 1072.16 106.602 1072.21 106.585Z" fill="#263238"/>
<path d="M1081.46 103.385C1081.5 103.367 1081.54 103.34 1081.57 103.305C1081.62 103.249 1081.65 103.176 1081.65 103.1C1081.65 103.023 1081.62 102.95 1081.57 102.895C1081.23 102.574 1080.82 102.338 1080.37 102.204C1079.93 102.07 1079.45 102.043 1078.99 102.125C1078.95 102.135 1078.92 102.152 1078.89 102.176C1078.86 102.2 1078.84 102.229 1078.82 102.263C1078.8 102.296 1078.79 102.333 1078.78 102.371C1078.78 102.409 1078.78 102.448 1078.79 102.485C1078.8 102.522 1078.82 102.558 1078.84 102.589C1078.86 102.62 1078.89 102.646 1078.93 102.666C1078.96 102.685 1079 102.698 1079.04 102.703C1079.08 102.708 1079.11 102.705 1079.15 102.695C1079.51 102.639 1079.88 102.667 1080.23 102.776C1080.57 102.886 1080.89 103.073 1081.15 103.325C1081.19 103.362 1081.24 103.388 1081.3 103.399C1081.35 103.409 1081.41 103.404 1081.46 103.385Z" fill="#263238"/>
<path d="M1054.45 140.005L1062.83 143.395C1062.83 143.395 1055.93 163.915 1057.42 166.695C1059.42 170.475 1064.83 176.505 1068.04 180.515C1067.75 182.024 1067.06 183.429 1066.04 184.585C1059.3 181.385 1048.68 171.335 1048.13 167.485C1046.92 158.705 1054.45 140.005 1054.45 140.005Z" fill="#CF7A64"/>
<path d="M1058.37 129.855C1051.52 132.075 1050.56 147.305 1050.56 147.305L1061.16 152.745C1064.21 149.117 1066.4 144.847 1067.56 140.255C1069.41 132.525 1064.39 127.905 1058.37 129.855Z" fill="#0142EB"/>
<path d="M1077.49 330.475C1077.91 330.469 1078.31 330.317 1078.63 330.045C1078.73 329.94 1078.8 329.811 1078.84 329.671C1078.88 329.532 1078.88 329.385 1078.84 329.245C1078.83 329.16 1078.8 329.081 1078.74 329.014C1078.69 328.947 1078.62 328.896 1078.54 328.865C1077.82 328.585 1075.98 329.995 1075.77 330.155C1075.76 330.179 1075.75 330.206 1075.75 330.235C1075.75 330.263 1075.76 330.29 1075.77 330.315C1075.78 330.342 1075.79 330.367 1075.81 330.385C1075.84 330.403 1075.86 330.413 1075.89 330.415C1076.42 330.499 1076.96 330.519 1077.49 330.475ZM1078.24 329.115C1078.31 329.099 1078.38 329.099 1078.44 329.115C1078.47 329.129 1078.5 329.151 1078.52 329.179C1078.54 329.208 1078.55 329.24 1078.55 329.275C1078.58 329.37 1078.58 329.47 1078.56 329.566C1078.53 329.662 1078.49 329.751 1078.42 329.825C1077.77 330.205 1076.99 330.323 1076.25 330.155C1076.84 329.668 1077.51 329.301 1078.24 329.075V329.115Z" fill="#0142EB"/>
<path d="M1075.88 330.385C1075.88 330.385 1075.88 330.385 1075.95 330.385C1076.55 329.975 1077.61 328.505 1077.39 327.835C1077.36 327.73 1077.29 327.641 1077.19 327.581C1077.1 327.521 1076.99 327.494 1076.88 327.505C1076.77 327.501 1076.66 327.521 1076.55 327.564C1076.45 327.607 1076.36 327.672 1076.28 327.755C1075.64 328.405 1075.72 330.195 1075.72 330.265C1075.72 330.292 1075.73 330.319 1075.74 330.343C1075.75 330.366 1075.78 330.384 1075.8 330.395L1075.88 330.385ZM1076.81 327.765H1076.88C1077.07 327.765 1077.1 327.855 1077.11 327.885C1077.24 328.285 1076.58 329.385 1076.01 329.885C1075.96 329.183 1076.14 328.485 1076.5 327.885C1076.59 327.805 1076.71 327.762 1076.83 327.765H1076.81Z" fill="#0142EB"/>
<path d="M1113.83 326.765C1114.36 326.763 1114.87 326.575 1115.27 326.235C1115.36 326.139 1115.43 326.022 1115.46 325.894C1115.5 325.767 1115.5 325.632 1115.46 325.505C1115.45 325.424 1115.41 325.349 1115.36 325.284C1115.31 325.22 1115.25 325.168 1115.17 325.135C1114.37 324.795 1112.05 326.295 1111.79 326.465C1111.77 326.484 1111.75 326.508 1111.74 326.536C1111.73 326.565 1111.73 326.595 1111.73 326.625C1111.74 326.654 1111.76 326.68 1111.78 326.7C1111.8 326.719 1111.83 326.732 1111.86 326.735C1112.52 326.806 1113.18 326.816 1113.83 326.765ZM1114.78 325.375C1114.87 325.352 1114.97 325.352 1115.06 325.375C1115.09 325.387 1115.12 325.408 1115.14 325.434C1115.16 325.461 1115.17 325.492 1115.17 325.525C1115.19 325.608 1115.19 325.696 1115.17 325.78C1115.15 325.864 1115.11 325.941 1115.05 326.005C1114.72 326.385 1113.71 326.535 1112.32 326.455C1113.09 325.953 1113.94 325.588 1114.83 325.375H1114.78Z" fill="#0142EB"/>
<path d="M1111.89 326.735H1111.95C1112.65 326.335 1113.95 324.855 1113.76 324.175C1113.71 324.015 1113.57 323.825 1113.16 323.825C1113.02 323.821 1112.87 323.848 1112.74 323.905C1112.61 323.962 1112.49 324.047 1112.39 324.155C1111.91 324.881 1111.68 325.745 1111.73 326.615C1111.73 326.639 1111.74 326.663 1111.75 326.684C1111.76 326.705 1111.78 326.722 1111.8 326.735C1111.82 326.742 1111.83 326.745 1111.85 326.745C1111.86 326.745 1111.88 326.742 1111.89 326.735ZM1113.08 324.095H1113.17C1113.44 324.095 1113.47 324.195 1113.48 324.225C1113.6 324.635 1112.73 325.785 1112.02 326.315C1112 325.604 1112.2 324.904 1112.6 324.315C1112.73 324.188 1112.9 324.111 1113.08 324.095Z" fill="#0142EB"/>
<path d="M1066.53 179.655L1072.42 179.855L1068.83 185.995C1068.83 185.995 1063.68 185.645 1063.16 181.625L1066.53 179.655Z" fill="#CF7A64"/>
<path d="M1075.18 181.905L1071.61 187.305L1068.78 185.995L1072.42 179.855L1075.18 181.905Z" fill="#CF7A64"/>
</g>
<g filter="url(#filter2_d_74_975)">
<path d="M478.585 488.614C499.655 515.466 483.633 542.912 456.439 548.083C437.907 551.586 424.311 563.887 416.424 574.679C416.106 575.092 415.658 575.386 415.152 575.513C414.646 575.64 414.113 575.593 413.637 575.379C413.162 575.165 412.772 574.798 412.532 574.335C412.291 573.873 412.213 573.343 412.311 572.831C412.944 569.726 413.754 566.659 414.736 563.647C414.899 563.155 414.89 562.623 414.71 562.137C414.531 561.651 414.191 561.241 413.748 560.974C413.305 560.706 412.783 560.598 412.27 560.665C411.757 560.733 411.282 560.973 410.923 561.347C403.203 569.146 391.007 579.124 376.202 583.115C375.758 583.237 375.288 583.223 374.852 583.074C374.416 582.926 374.035 582.65 373.757 582.282C373.48 581.915 373.32 581.472 373.296 581.012C373.273 580.552 373.389 580.096 373.628 579.702C382.565 564.861 391.588 533.657 406.779 516.916C407.151 516.505 407.362 515.974 407.374 515.42C407.385 514.867 407.196 514.327 406.842 513.901C406.488 513.476 405.992 513.192 405.445 513.102C404.899 513.013 404.338 513.124 403.867 513.414C400.997 515.178 398.246 517.126 395.629 519.247C395.219 519.621 394.688 519.833 394.133 519.846C393.578 519.859 393.037 519.67 392.611 519.316C392.184 518.961 391.9 518.464 391.81 517.916C391.721 517.369 391.833 516.807 392.125 516.335C409.631 485.825 451.669 454.326 478.585 488.614Z" fill="#19165F"/>
<path opacity="0.7" d="M478.585 488.614C499.655 515.466 483.633 542.912 456.439 548.083C437.907 551.586 424.311 563.887 416.424 574.679C416.106 575.092 415.658 575.386 415.152 575.513C414.646 575.64 414.113 575.593 413.637 575.379C413.162 575.165 412.772 574.798 412.532 574.335C412.291 573.873 412.213 573.343 412.311 572.831C412.944 569.726 413.754 566.659 414.736 563.647C414.899 563.155 414.89 562.623 414.71 562.137C414.531 561.651 414.191 561.241 413.748 560.974C413.305 560.706 412.783 560.598 412.27 560.665C411.757 560.733 411.282 560.973 410.923 561.347C403.203 569.146 391.007 579.124 376.202 583.115C375.758 583.237 375.288 583.223 374.852 583.074C374.416 582.926 374.035 582.65 373.757 582.282C373.48 581.915 373.32 581.472 373.296 581.012C373.273 580.552 373.389 580.096 373.628 579.702C382.565 564.861 391.588 533.657 406.779 516.916C407.151 516.505 407.362 515.974 407.374 515.42C407.385 514.867 407.196 514.327 406.842 513.901C406.488 513.476 405.992 513.192 405.445 513.102C404.899 513.013 404.338 513.124 403.867 513.414C400.997 515.178 398.246 517.126 395.629 519.247C395.219 519.621 394.688 519.833 394.133 519.846C393.578 519.859 393.037 519.67 392.611 519.316C392.184 518.961 391.9 518.464 391.81 517.916C391.721 517.369 391.833 516.807 392.125 516.335C409.631 485.825 451.669 454.326 478.585 488.614Z" fill="white"/>
<path d="M469.593 549.22L417.853 477.271C417.578 476.883 417.392 476.439 417.307 475.971C417.222 475.503 417.24 475.022 417.362 474.562C417.483 474.101 417.703 473.673 418.008 473.308C418.312 472.942 418.693 472.647 419.124 472.445L469.745 449.656C470.426 449.349 471.192 449.287 471.914 449.48C472.635 449.673 473.267 450.11 473.704 450.716L512.556 504.856C512.971 505.463 513.167 506.193 513.112 506.926C513.057 507.659 512.754 508.352 512.253 508.89L474.522 549.603C474.191 549.938 473.792 550.196 473.351 550.361C472.91 550.525 472.438 550.591 471.969 550.555C471.5 550.519 471.044 550.38 470.634 550.15C470.224 549.919 469.869 549.602 469.593 549.22Z" fill="black"/>
<path d="M452.065 539.931L421.057 496.757C420.793 496.388 420.609 495.966 420.518 495.521C420.427 495.075 420.431 494.616 420.53 494.172C420.628 493.728 420.819 493.31 421.09 492.944C421.361 492.579 421.706 492.275 422.103 492.052L477.513 460.838C478.208 460.446 479.024 460.325 479.803 460.498C480.582 460.672 481.27 461.126 481.734 461.776L504.654 493.533C505.116 494.183 505.323 494.98 505.236 495.772C505.15 496.565 504.775 497.298 504.184 497.832L456.943 540.399C456.605 540.718 456.204 540.961 455.765 541.111C455.326 541.262 454.86 541.317 454.398 541.272C453.936 541.228 453.488 541.086 453.086 540.854C452.684 540.623 452.336 540.308 452.065 539.931Z" fill="#263238"/>
<path d="M691.641 400.104L664.992 420.678L666.054 422.054L692.703 401.479L691.641 400.104Z" fill="#19165F"/>
<path d="M658.065 426.035L650.229 432.084L651.292 433.46L659.127 427.41L658.065 426.035Z" fill="#19165F"/>
<path d="M746.917 295.279C746.917 295.279 686.224 279.231 632.482 317.85L459.771 433.122C456.603 435.234 453.894 437.963 451.804 441.145C449.714 444.328 448.287 447.898 447.607 451.644C446.927 455.39 447.009 459.235 447.847 462.948C448.685 466.662 450.262 470.169 452.485 473.26L484.367 517.627C486.589 520.719 489.411 523.332 492.664 525.309C495.917 527.287 499.536 528.59 503.303 529.139C507.071 529.688 510.911 529.472 514.593 528.505C518.276 527.538 521.726 525.839 524.737 523.51L689.055 396.543C742.783 357.932 746.917 295.279 746.917 295.279Z" fill="#19165F"/>
<path opacity="0.3" d="M746.915 295.279C744.972 312.809 739.904 329.85 731.952 345.593C731.001 347.485 729.577 349.098 727.819 350.278C726.061 351.458 724.029 352.165 721.918 352.329C719.807 352.493 717.69 352.11 715.77 351.216C713.851 350.323 712.195 348.949 710.962 347.227L686.158 312.691C684.923 310.972 684.153 308.963 683.924 306.859C683.694 304.754 684.012 302.626 684.846 300.681C685.681 298.736 687.004 297.039 688.688 295.756C690.371 294.473 692.357 293.646 694.454 293.356C711.915 290.846 729.685 291.497 746.915 295.279Z" fill="white"/>
<path d="M660.136 365.165C651.687 347.656 630.644 340.312 613.135 348.761C595.626 357.21 588.281 378.253 596.73 395.762C605.179 413.271 626.222 420.615 643.731 412.166C661.24 403.717 668.585 382.674 660.136 365.165Z" fill="white"/>
<path opacity="0.3" d="M650.183 370.884C652.365 375.877 652.772 381.466 651.337 386.722C649.902 391.977 646.71 396.584 642.293 399.774C641.993 399.936 641.719 400.18 641.412 400.365C640.154 401.208 638.818 401.928 637.422 402.515C636.957 402.766 636.421 402.919 635.93 403.087L634.82 403.433C630.127 404.726 625.15 404.551 620.558 402.932C615.967 401.314 611.98 398.329 609.135 394.379C608.477 393.449 607.882 392.477 607.353 391.468C604.833 386.156 604.364 380.101 606.035 374.464C607.706 368.827 611.4 364.006 616.408 360.926C621.415 357.846 627.384 356.724 633.169 357.775C638.953 358.826 644.146 361.976 647.75 366.621C648.711 367.951 649.526 369.381 650.183 370.884Z" fill="#19165F"/>
<path opacity="0.3" d="M650.182 370.884C652.364 375.877 652.772 381.466 651.336 386.722C649.901 391.978 646.71 396.584 642.293 399.774C641.993 399.936 641.718 400.18 641.411 400.365C640.149 401.201 638.814 401.92 637.422 402.515C636.957 402.766 636.42 402.919 635.93 403.087L634.82 403.433C630.126 404.726 625.149 404.551 620.558 402.932C615.966 401.314 611.98 398.329 609.134 394.379C608.476 393.449 607.881 392.477 607.353 391.468C605.348 386.597 605.096 381.182 606.64 376.147C608.183 371.111 611.426 366.767 615.815 363.856C626.553 356.308 641.166 358.247 648.483 368.161C649.113 369.028 649.681 369.938 650.182 370.884Z" fill="#19165F"/>
</g>
<g filter="url(#filter3_b_74_975)">
<path d="M548.8 423C547.143 423 545.8 421.657 545.8 420V384C545.8 382.343 544.457 381 542.8 381H429.8C428.143 381 426.8 379.657 426.8 378V339.943C426.8 339.329 426.988 338.73 427.34 338.226L538.254 179.283C538.815 178.479 539.734 178 540.715 178H595.3C596.957 178 598.3 179.343 598.3 181V332.5C598.3 334.157 599.643 335.5 601.3 335.5H625.75C627.407 335.5 628.75 336.843 628.75 338.5V378C628.75 379.657 627.407 381 625.75 381H601.3C599.643 381 598.3 382.343 598.3 384V420C598.3 421.657 596.957 423 595.3 423H548.8ZM485.58 330.83C484.244 332.823 485.672 335.5 488.072 335.5H546.3C547.957 335.5 549.3 334.157 549.3 332.5V245.615C549.3 242.651 545.458 241.482 543.808 243.945L485.58 330.83Z" fill="#0142EB" fill-opacity="0.03"/>
<path d="M536.204 177.853L536.204 177.853L425.289 336.796C424.645 337.719 424.3 338.818 424.3 339.943V378C424.3 381.038 426.762 383.5 429.8 383.5H542.8C543.076 383.5 543.3 383.724 543.3 384V420C543.3 423.038 545.762 425.5 548.8 425.5H595.3C598.337 425.5 600.8 423.038 600.8 420V384C600.8 383.724 601.024 383.5 601.3 383.5H625.75C628.787 383.5 631.25 381.038 631.25 378V338.5C631.25 335.462 628.787 333 625.75 333H601.3C601.024 333 600.8 332.776 600.8 332.5V181C600.8 177.962 598.337 175.5 595.3 175.5H540.715C538.917 175.5 537.233 176.378 536.204 177.853ZM488.072 333C487.672 333 487.434 332.554 487.656 332.222L545.884 245.337C545.983 245.19 546.069 245.149 546.127 245.13C546.205 245.105 546.319 245.098 546.445 245.137C546.572 245.175 546.662 245.244 546.713 245.308C546.751 245.356 546.8 245.439 546.8 245.615V332.5C546.8 332.776 546.576 333 546.3 333H488.072Z" stroke="#0142EB" stroke-width="5"/>
</g>
<path d="M542.13 56.9851C542.13 56.9851 528.49 48.2451 519 60.6751C526.79 52.9551 541.6 60.7351 541.6 60.7351C541.6 60.7351 558.6 53.0351 564.2 60.7351C558.17 48.3251 542.13 56.9851 542.13 56.9851Z" fill="#001209"/>
<path d="M615.25 172.065C615.25 172.065 607.05 166.805 601.33 174.285C606.03 169.635 614.94 174.285 614.94 174.285C614.94 174.285 625.14 169.645 628.55 174.285C624.91 166.885 615.25 172.065 615.25 172.065Z" fill="#001209"/>
<path d="M355.419 80.4192C370.224 65.6145 370.224 41.6112 355.419 26.8064C340.614 12.0016 316.611 12.0016 301.806 26.8064C287.002 41.6112 287.002 65.6144 301.806 80.4192C316.611 95.224 340.614 95.224 355.419 80.4192Z" fill="#FCA130" fill-opacity="0.32"/>
<defs>
<filter id="filter0_b_74_975" x="884.866" y="155.5" width="246.95" height="290" filterUnits="userSpaceOnUse" color-interpolation-filters="sRGB">
<feFlood flood-opacity="0" result="BackgroundImageFix"/>
<feGaussianBlur in="BackgroundImageFix" stdDeviation="8.75"/>
<feComposite in2="SourceAlpha" operator="in" result="effect1_backgroundBlur_74_975"/>
<feBlend mode="normal" in="SourceGraphic" in2="effect1_backgroundBlur_74_975" result="shape"/>
</filter>
<filter id="filter1_d_74_975" x="1035.9" y="89.9" width="88.2" height="257.517" filterUnits="userSpaceOnUse" color-interpolation-filters="sRGB">
<feFlood flood-opacity="0" result="BackgroundImageFix"/>
<feColorMatrix in="SourceAlpha" type="matrix" values="0 0 0 0 0 0 0 0 0 0 0 0 0 0 0 0 0 0 127 0" result="hardAlpha"/>
<feOffset dx="-6" dy="4"/>
<feGaussianBlur stdDeviation="3.05"/>
<feComposite in2="hardAlpha" operator="out"/>
<feColorMatrix type="matrix" values="0 0 0 0 0 0 0 0 0 0 0 0 0 0 0 0 0 0 0.08 0"/>
<feBlend mode="normal" in2="BackgroundImageFix" result="effect1_dropShadow_74_975"/>
<feBlend mode="normal" in="SourceGraphic" in2="effect1_dropShadow_74_975" result="shape"/>
</filter>
<filter id="filter2_d_74_975" x="343.093" y="265.66" width="434.023" height="351.738" filterUnits="userSpaceOnUse" color-interpolation-filters="sRGB">
<feFlood flood-opacity="0" result="BackgroundImageFix"/>
<feColorMatrix in="SourceAlpha" type="matrix" values="0 0 0 0 0 0 0 0 0 0 0 0 0 0 0 0 0 0 127 0" result="hardAlpha"/>
<feOffset dy="4"/>
<feGaussianBlur stdDeviation="15.1"/>
<feComposite in2="hardAlpha" operator="out"/>
<feColorMatrix type="matrix" values="0 0 0 0 0 0 0 0 0 0 0 0 0 0 0 0 0 0 0.11 0"/>
<feBlend mode="normal" in2="BackgroundImageFix" result="effect1_dropShadow_74_975"/>
<feBlend mode="normal" in="SourceGraphic" in2="effect1_dropShadow_74_975" result="shape"/>
</filter>
<filter id="filter3_b_74_975" x="404.3" y="155.5" width="246.95" height="290" filterUnits="userSpaceOnUse" color-interpolation-filters="sRGB">
<feFlood flood-opacity="0" result="BackgroundImageFix"/>
<feGaussianBlur in="BackgroundImageFix" stdDeviation="8.75"/>
<feComposite in2="SourceAlpha" operator="in" result="effect1_backgroundBlur_74_975"/>
<feBlend mode="normal" in="SourceGraphic" in2="effect1_backgroundBlur_74_975" result="shape"/>
</filter>
</defs>
</svg>
