<svg width="28" height="22" viewBox="0 0 28 22" fill="none" xmlns="http://www.w3.org/2000/svg">
<path d="M24.6667 0.333252H3.33335C2.62611 0.333252 1.94783 0.614203 1.44774 1.1143C0.947638 1.6144 0.666687 2.29267 0.666687 2.99992V18.9999C0.666687 19.7072 0.947638 20.3854 1.44774 20.8855C1.94783 21.3856 2.62611 21.6666 3.33335 21.6666H24.6667C25.3739 21.6666 26.0522 21.3856 26.5523 20.8855C27.0524 20.3854 27.3334 19.7072 27.3334 18.9999V2.99992C27.3334 2.29267 27.0524 1.6144 26.5523 1.1143C26.0522 0.614203 25.3739 0.333252 24.6667 0.333252ZM24.6667 5.98125L14 12.4906L3.33335 5.98125V2.99992H24.6667V5.98125Z" fill="#0142EB"/>
</svg>
