<svg width="30" height="30" viewBox="0 0 30 30" fill="none" xmlns="http://www.w3.org/2000/svg">
<mask id="path-1-inside-1_5_959" fill="white">
<path d="M16.7168 2C14.2445 2 11.8278 2.73311 9.77217 4.10663C7.71655 5.48015 6.1144 7.43238 5.1683 9.71646C4.22221 12.0005 3.97467 14.5139 4.45698 16.9386C4.9393 19.3634 6.12981 21.5907 7.87796 23.3388C9.62612 25.087 11.8534 26.2775 14.2782 26.7598C16.7029 27.2421 19.2163 26.9946 21.5003 26.0485C23.7844 25.1024 25.7366 23.5002 27.1102 21.4446C28.4837 19.389 29.2168 16.9723 29.2168 14.5H16.7168V2Z"/>
</mask>
<path d="M16.7168 2C14.2445 2 11.8278 2.73311 9.77217 4.10663C7.71655 5.48015 6.1144 7.43238 5.1683 9.71646C4.22221 12.0005 3.97467 14.5139 4.45698 16.9386C4.9393 19.3634 6.12981 21.5907 7.87796 23.3388C9.62612 25.087 11.8534 26.2775 14.2782 26.7598C16.7029 27.2421 19.2163 26.9946 21.5003 26.0485C23.7844 25.1024 25.7366 23.5002 27.1102 21.4446C28.4837 19.389 29.2168 16.9723 29.2168 14.5H16.7168V2Z" stroke="white" stroke-width="2" mask="url(#path-1-inside-1_5_959)"/>
<path d="M29.2174 14.6087C29.2174 12.6903 28.8395 10.7906 28.1054 9.01819C27.3712 7.24578 26.2951 5.63533 24.9386 4.27879C23.5821 2.92225 21.9716 1.84618 20.1992 1.11202C18.4268 0.377865 16.5271 -8.38577e-08 14.6087 0L14.6087 14.6087H29.2174Z" fill="#378CFE"/>
</svg>
