<svg width="300" height="229" viewBox="0 0 346 229" fill="none" xmlns="http://www.w3.org/2000/svg">
<g clip-path="url(#clip0_74_1240)">
<path d="M331.871 152.77C329.382 155.489 326.295 157.513 322.946 159.085H322.942C322.627 159.234 322.312 159.38 321.992 159.517H321.988L321.984 159.521L321.98 159.517H321.976L321.976 159.519L321.975 159.52L321.974 159.521L321.972 159.521H321.968L321.964 159.517C321.96 159.521 321.96 159.521 321.956 159.517L321.952 159.521L321.948 159.517H321.944C321.94 159.521 321.94 159.521 321.936 159.517H321.932C319.69 160.487 317.387 161.31 315.039 161.982C301.229 165.9 286.714 166.658 272.571 164.2C272.3 164.152 272.033 164.103 271.763 164.055V131.283C272.029 131.17 272.3 131.057 272.571 130.948C274.336 130.217 276.124 129.545 277.932 128.932C280.534 128.043 283.173 127.281 285.847 126.645C294.574 124.533 303.578 123.805 312.53 124.487C314.158 124.609 315.782 124.784 317.402 125.013C320.792 125.485 324.348 126.31 327.475 127.74H327.479C327.936 127.954 328.384 128.176 328.829 128.415C331.608 129.922 333.952 131.994 335.382 134.835C335.896 135.855 336.266 136.941 336.481 138.063V138.071C336.562 138.459 336.618 138.851 336.663 139.239C337.172 144.022 335.188 149.142 331.871 152.77Z" fill="#F2F2F2"/>
<path d="M336.663 139.239C336.623 139.249 336.583 139.254 336.542 139.255C329.621 139.558 322.709 140.008 315.807 140.604H315.794C315.766 140.608 315.742 140.608 315.714 140.612C308.627 141.227 301.555 141.996 294.498 142.92C294.199 142.96 293.904 143 293.609 143.037C288.728 143.687 283.857 144.409 278.995 145.202C276.849 145.554 274.708 145.92 272.571 146.301C272.3 146.35 272.033 146.394 271.763 146.447V145.223C272.033 145.17 272.304 145.126 272.571 145.077C279.69 143.816 286.833 142.716 294.001 141.776C295.803 141.534 297.607 141.305 299.415 141.089C304.635 140.459 309.863 139.915 315.099 139.457C315.483 139.425 315.863 139.392 316.247 139.36C322.95 138.79 329.662 138.358 336.384 138.063C336.417 138.062 336.449 138.064 336.481 138.071C337.128 138.128 337.265 139.097 336.663 139.239Z" fill="white"/>
<path d="M322.29 158.327C313.668 158.39 305.173 154.734 299.075 148.683C297.354 146.969 295.838 145.061 294.556 142.998C294.145 142.339 293.183 143.066 293.591 143.719C298.327 151.315 306.217 156.726 314.915 158.716C317.385 159.276 319.912 159.546 322.445 159.522C323.218 159.516 323.058 158.321 322.29 158.327Z" fill="white"/>
<path d="M285.847 126.645C285.81 126.758 285.744 126.86 285.656 126.941C285.567 127.021 285.459 127.076 285.342 127.101C283.366 127.619 281.457 128.365 279.654 129.324C277.02 130.715 274.628 132.523 272.571 134.677C272.462 134.786 272.357 134.895 272.256 135.008C272.086 135.186 271.924 135.368 271.763 135.554V133.792C272.021 133.518 272.292 133.247 272.571 132.988C274.195 131.433 275.994 130.072 277.932 128.932C280.534 128.043 283.173 127.281 285.847 126.645Z" fill="white"/>
<path d="M328.19 127.421C322.705 129.779 318.116 133.825 315.09 138.971C315.029 139.118 315.028 139.284 315.088 139.431C315.148 139.579 315.264 139.697 315.411 139.76C315.558 139.819 315.723 139.818 315.87 139.758C316.016 139.699 316.135 139.585 316.2 139.44C319.088 134.58 323.445 130.762 328.643 128.538C329.356 128.233 328.905 127.116 328.19 127.421Z" fill="white"/>
<path d="M344.723 93.106C343.786 96.6696 341.988 99.8978 339.754 102.843L339.75 102.847C339.544 103.122 339.33 103.401 339.107 103.667V103.671C337.556 105.583 335.881 107.39 334.093 109.082C327.666 115.206 320.407 120.393 312.53 124.487C300.138 130.96 286.288 134.786 272.571 135.004C272.466 135.008 272.361 135.008 272.256 135.008C272.09 135.013 271.924 135.013 271.763 135.013V116.649C272.025 116.148 272.296 115.647 272.571 115.15C276.136 108.736 280.483 102.789 285.512 97.4453C285.633 97.312 285.759 97.1786 285.884 97.0494C287.775 95.0534 289.757 93.1531 291.831 91.3484C299.81 84.3328 309.031 78.872 319.019 75.2476C322.239 74.0921 325.77 73.1668 329.204 72.985C329.709 72.9567 330.211 72.9446 330.716 72.9486C333.879 72.9931 336.913 73.7405 339.503 75.591C340.431 76.2571 341.263 77.0469 341.976 77.9385C342.226 78.2496 342.457 78.5688 342.679 78.896V78.9001C345.354 82.9 345.976 88.3505 344.723 93.106Z" fill="#F2F2F2"/>
<path d="M342.679 78.896V78.9C342.649 78.9261 342.617 78.9491 342.582 78.9687C336.602 82.4475 330.698 86.0528 324.869 89.7848C324.861 89.7888 324.857 89.7928 324.849 89.7969C324.826 89.8131 324.801 89.828 324.776 89.8413C318.784 93.6796 312.877 97.6473 307.055 101.744C306.813 101.914 306.566 102.088 306.32 102.261C302.3 105.102 298.321 108.003 294.385 110.964C286.95 116.564 279.679 122.372 272.571 128.386C272.3 128.613 272.033 128.843 271.763 129.073V127.501C272.029 127.271 272.3 127.041 272.571 126.815C275.294 124.516 278.041 122.249 280.813 120.015C281.641 119.348 282.474 118.681 283.306 118.023C290.7 112.136 298.259 106.469 305.985 101.021H305.989C307.508 99.9503 309.03 98.889 310.554 97.8372C314.885 94.8554 319.265 91.945 323.693 89.106C324.012 88.8999 324.336 88.6939 324.659 88.4878C330.328 84.8676 336.07 81.366 341.887 77.9829C341.915 77.9656 341.945 77.9508 341.976 77.9384C342.582 77.696 343.152 78.496 342.679 78.896Z" fill="white"/>
<path d="M338.819 102.477C331.214 106.538 321.993 107.246 313.781 104.72C311.461 104.002 309.232 103.017 307.139 101.785C306.469 101.392 305.955 102.483 306.619 102.872C314.342 107.399 323.842 108.526 332.469 106.247C334.917 105.596 337.28 104.661 339.512 103.463C340.194 103.099 339.497 102.115 338.819 102.477Z" fill="white"/>
<path d="M281.913 117.26C281.537 115.145 281.407 112.993 281.528 110.848C281.8 105.956 283.298 101.212 285.884 97.0501C287.777 95.0549 289.76 93.1542 291.833 91.3483C291.852 91.4664 291.841 91.5875 291.799 91.6998C291.758 91.8121 291.688 91.9117 291.596 91.9886C290.088 93.3652 288.744 94.9118 287.591 96.5977C283.475 102.606 281.868 109.984 283.114 117.16C283.134 117.241 283.133 117.327 283.111 117.407C283.088 117.488 283.046 117.562 282.987 117.622C282.9 117.697 282.796 117.748 282.683 117.771C282.571 117.793 282.455 117.785 282.346 117.749C282.238 117.712 282.14 117.648 282.064 117.562C281.988 117.476 281.936 117.372 281.913 117.26Z" fill="white"/>
<path d="M329.689 72.3677C325.927 77.003 323.742 82.7179 323.453 88.6806C323.467 88.8395 323.543 88.9863 323.665 89.0894C323.787 89.1924 323.944 89.2433 324.103 89.2309C324.261 89.214 324.406 89.137 324.509 89.016C324.611 88.8949 324.663 88.739 324.654 88.5806C324.953 82.9349 327.039 77.5302 330.608 73.146C331.098 72.5449 330.18 71.7654 329.689 72.3677Z" fill="white"/>
<path d="M287.847 85.6434V85.6474C287.819 85.9949 287.787 86.3383 287.75 86.6818V86.6899C287.469 89.1345 287.031 91.5583 286.437 93.9463C286.154 95.118 285.847 96.2817 285.512 97.4453C285.472 97.5948 285.427 97.7443 285.383 97.8897V97.8938C284.396 101.278 283.217 104.603 281.852 107.853C279.339 113.837 276.23 119.552 272.571 124.912C272.308 125.304 272.038 125.695 271.763 126.083V62.8114C272.033 62.7952 272.3 62.7952 272.571 62.8033C272.7 62.8033 272.829 62.8073 272.959 62.8154C274.099 62.8753 275.225 63.0943 276.304 63.4659C276.684 63.5912 277.051 63.7326 277.415 63.8902C281.823 65.8214 285.286 70.08 286.789 74.7627C287.916 78.2698 288.142 81.9586 287.847 85.6434Z" fill="#F2F2F2"/>
<path d="M277.415 63.8902C277.406 63.9298 277.391 63.9679 277.371 64.0033C275.734 67.1831 274.134 70.379 272.571 73.5911C272.3 74.1446 272.029 74.7021 271.763 75.2557V72.5082C272.029 71.9587 272.299 71.4092 272.571 70.8598C273.779 68.4113 275.007 65.9736 276.256 63.5467C276.269 63.5184 276.286 63.4913 276.304 63.4659C276.676 62.9326 277.597 63.2962 277.415 63.8902Z" fill="white"/>
<path d="M287.977 86.2939C287.904 86.4232 287.831 86.5525 287.75 86.6818C286.564 88.7493 285.152 90.6789 283.54 92.4352C280.445 95.7935 276.717 98.508 272.571 100.423C272.304 100.552 272.033 100.674 271.763 100.787V99.4735C272.033 99.3523 272.304 99.2271 272.571 99.0978C278.573 96.2349 283.558 91.6088 286.862 85.8373C286.909 85.7549 286.974 85.6837 287.052 85.6286C287.129 85.5734 287.218 85.5355 287.311 85.5175C287.405 85.4995 287.501 85.5018 287.593 85.5242C287.686 85.5466 287.773 85.5887 287.847 85.6475C287.898 85.6814 287.942 85.725 287.976 85.7759C288.01 85.8267 288.034 85.8838 288.046 85.9439C288.058 86.0039 288.058 86.0657 288.046 86.1258C288.034 86.1859 288.011 86.243 287.977 86.2939Z" fill="white"/>
<path d="M272.571 13.3332V44.0399H271.763V43.7126H1.46334V44.0399H0.655273V13.3332C0.658743 9.79806 2.0646 6.40873 4.5643 3.90903C7.064 1.40932 10.4533 0.00347001 13.9884 0H259.238C262.773 0.00347001 266.162 1.40932 268.662 3.90903C271.162 6.40873 272.568 9.79806 272.571 13.3332Z" fill="#0142EB"/>
<path d="M259.238 0H13.9884C10.4533 0.00347001 7.064 1.40932 4.5643 3.90903C2.0646 6.40873 0.658743 9.79806 0.655273 13.3332V188.685C0.658743 192.22 2.0646 195.609 4.5643 198.109C7.064 200.608 10.4533 202.014 13.9884 202.018H259.238C262.773 202.014 266.162 200.608 268.662 198.109C271.162 195.609 272.568 192.22 272.571 188.685V13.3332C272.568 9.79806 271.162 6.40873 268.662 3.90903C266.162 1.40932 262.773 0.00347001 259.238 0ZM271.763 188.685C271.759 192.005 270.438 195.188 268.09 197.536C265.742 199.884 262.559 201.205 259.238 201.21H13.9884C10.6679 201.205 7.48453 199.884 5.13654 197.536C2.78854 195.188 1.46758 192.005 1.46334 188.685V13.3332C1.46758 10.0126 2.78854 6.82926 5.13654 4.48127C7.48453 2.13328 10.6679 0.812308 13.9884 0.808071H259.238C262.559 0.812309 265.742 2.13328 268.09 4.48127C270.438 6.82926 271.759 10.0126 271.763 13.3332V188.685Z" fill="#3F3D56"/>
<path d="M55.6041 30.1006C60.067 30.1006 63.6849 26.4828 63.6849 22.0199C63.6849 17.5571 60.067 13.9392 55.6041 13.9392C51.1413 13.9392 47.5234 17.5571 47.5234 22.0199C47.5234 26.4828 51.1413 30.1006 55.6041 30.1006Z" fill="white"/>
<path d="M217.622 30.1006C222.085 30.1006 225.702 26.4828 225.702 22.0199C225.702 17.5571 222.085 13.9392 217.622 13.9392C213.159 13.9392 209.541 17.5571 209.541 22.0199C209.541 26.4828 213.159 30.1006 217.622 30.1006Z" fill="white"/>
<path d="M78.9511 112.121H30.8805C28.844 112.118 26.8916 111.308 25.4516 109.868C24.0115 108.428 23.2015 106.476 23.1992 104.439V81.7194C23.2015 79.6829 24.0115 77.7305 25.4516 76.2904C26.8916 74.8504 28.844 74.0404 30.8805 74.0381H78.9511C80.9876 74.0404 82.94 74.8504 84.3801 76.2904C85.8201 77.7305 86.6301 79.6829 86.6324 81.7194V104.439C86.6301 106.476 85.8201 108.428 84.3801 109.868C82.94 111.308 80.9876 112.118 78.9511 112.121Z" fill="#0142EB"/>
<path d="M160.727 112.121H112.656C110.62 112.118 108.667 111.308 107.227 109.868C105.787 108.428 104.977 106.476 104.975 104.439V81.7194C104.977 79.6829 105.787 77.7305 107.227 76.2904C108.667 74.8504 110.62 74.0404 112.656 74.0381H160.727C162.763 74.0404 164.716 74.8504 166.156 76.2904C167.596 77.7305 168.406 79.6829 168.408 81.7194V104.439C168.406 106.476 167.596 108.428 166.156 109.868C164.716 111.308 162.763 112.118 160.727 112.121Z" fill="#0142EB"/>
<path d="M160.727 170.823H112.657C110.559 170.821 108.547 169.987 107.063 168.503C105.58 167.019 104.745 165.008 104.743 162.909V140.189C104.745 138.091 105.58 136.079 107.063 134.596C108.547 133.112 110.559 132.278 112.657 132.275H160.727C162.826 132.278 164.837 133.112 166.321 134.596C167.804 136.079 168.639 138.091 168.641 140.189V162.909C168.639 165.008 167.804 167.019 166.321 168.503C164.837 169.987 162.826 170.821 160.727 170.823Z" fill="#F2F2F2"/>
<path d="M78.7933 170.823H30.7226C28.6244 170.821 26.6128 169.987 25.1292 168.503C23.6455 167.019 22.811 165.008 22.8086 162.909V140.189C22.811 138.091 23.6455 136.079 25.1292 134.596C26.6128 133.112 28.6244 132.278 30.7226 132.275H78.7933C80.8915 132.278 82.9031 133.112 84.3867 134.596C85.8704 136.079 86.705 138.091 86.7073 140.189V162.909C86.705 165.008 85.8704 167.019 84.3867 168.503C82.9031 169.987 80.8915 170.821 78.7933 170.823Z" fill="#F2F2F2"/>
<path d="M242.503 170.823H194.433C192.334 170.821 190.323 169.987 188.839 168.503C187.355 167.019 186.521 165.008 186.519 162.909V140.189C186.521 138.091 187.355 136.079 188.839 134.596C190.323 133.112 192.334 132.278 194.433 132.275H242.503C244.601 132.278 246.613 133.112 248.097 134.596C249.58 136.079 250.415 138.091 250.417 140.189V162.909C250.415 165.008 249.58 167.019 248.097 168.503C246.613 169.987 244.601 170.821 242.503 170.823Z" fill="#F2F2F2"/>
<path d="M242.503 112.166H194.433C192.334 112.164 190.323 111.329 188.839 109.846C187.355 108.362 186.521 106.35 186.519 104.252V81.532C186.521 79.4338 187.355 77.4222 188.839 75.9385C190.323 74.4548 192.334 73.6203 194.433 73.6179H242.503C244.601 73.6203 246.613 74.4548 248.097 75.9385C249.58 77.4222 250.415 79.4338 250.417 81.532V104.252C250.415 106.35 249.58 108.362 248.097 109.846C246.613 111.329 244.601 112.164 242.503 112.166Z" fill="#F2F2F2"/>
<path d="M54.9158 106.114C62.1148 106.114 67.9507 100.278 67.9507 93.0794C67.9507 85.8804 62.1148 80.0444 54.9158 80.0444C47.7168 80.0444 41.8809 85.8804 41.8809 93.0794C41.8809 100.278 47.7168 106.114 54.9158 106.114Z" fill="white"/>
<path d="M53.6233 98.0519C53.33 98.0525 53.0445 97.9577 52.8099 97.7817L52.7953 97.7708L49.732 95.4255C49.59 95.3168 49.4707 95.1813 49.3811 95.0265C49.2914 94.8718 49.2332 94.7009 49.2096 94.5236C49.1861 94.3463 49.1977 94.1661 49.2438 93.9934C49.2899 93.8206 49.3696 93.6586 49.4784 93.5166C49.5872 93.3747 49.7228 93.2555 49.8777 93.166C50.0325 93.0765 50.2035 93.0184 50.3808 92.9951C50.5581 92.9717 50.7383 92.9835 50.911 93.0298C51.0837 93.0761 51.2457 93.156 51.3875 93.2649L53.3717 94.7863L58.0606 88.6713C58.1693 88.5294 58.305 88.4104 58.4597 88.321C58.6144 88.2316 58.7853 88.1735 58.9625 88.1501C59.1397 88.1267 59.3197 88.1385 59.4924 88.1847C59.665 88.2309 59.8269 88.3106 59.9687 88.4194L59.9396 88.459L59.9694 88.42C60.2555 88.6399 60.4427 88.9642 60.49 89.322C60.5372 89.6797 60.4406 90.0415 60.2213 90.3281L54.706 97.5208C54.5785 97.6866 54.4145 97.8207 54.2267 97.9128C54.0389 98.0049 53.8324 98.0525 53.6233 98.0519Z" fill="#0142EB"/>
<path d="M136.925 105.927C144.124 105.927 149.96 100.091 149.96 92.8921C149.96 85.6931 144.124 79.8572 136.925 79.8572C129.726 79.8572 123.89 85.6931 123.89 92.8921C123.89 100.091 129.726 105.927 136.925 105.927Z" fill="white"/>
<path d="M135.632 97.8647C135.339 97.8652 135.054 97.7704 134.819 97.5945L134.805 97.5836L131.741 95.2382C131.455 95.0187 131.267 94.6943 131.22 94.3365C131.172 93.9787 131.269 93.6167 131.489 93.3302C131.708 93.0437 132.033 92.8561 132.39 92.8087C132.748 92.7614 133.11 92.8581 133.397 93.0776L135.381 94.599L140.07 88.484C140.179 88.3422 140.314 88.2232 140.469 88.1337C140.624 88.0443 140.794 87.9863 140.972 87.9629C141.149 87.9395 141.329 87.9512 141.502 87.9974C141.674 88.0436 141.836 88.1234 141.978 88.2321L141.949 88.2717L141.979 88.2327C142.265 88.4526 142.452 88.777 142.499 89.1347C142.546 89.4924 142.45 89.8543 142.231 90.1408L136.715 97.3336C136.588 97.4993 136.424 97.6335 136.236 97.7256C136.048 97.8177 135.842 97.8653 135.632 97.8647Z" fill="#0142EB"/>
<path d="M225.021 154.402C225.449 153.934 225.77 153.377 225.959 152.772C226.149 152.166 226.204 151.527 226.12 150.898C226.036 150.269 225.815 149.666 225.473 149.132C225.131 148.597 224.675 148.145 224.139 147.805L216.862 108.948L208.012 112.23L217.948 149.393C217.437 150.332 217.289 151.425 217.531 152.466C217.773 153.506 218.388 154.422 219.26 155.039C220.132 155.657 221.2 155.933 222.261 155.815C223.323 155.698 224.305 155.195 225.021 154.402Z" fill="#A0616A"/>
<path d="M154.402 95.1102C154.424 95.3515 154.427 95.5941 154.411 95.8359L171.619 109.08L176.498 107.076L180.485 114.045L172.191 118.432C171.521 118.787 170.754 118.914 170.005 118.796C169.257 118.677 168.567 118.319 168.039 117.775L150.839 100.042C149.928 100.247 148.977 100.171 148.111 99.822C147.245 99.4735 146.506 98.8695 145.992 98.0906C145.478 97.3117 145.213 96.3947 145.232 95.4616C145.252 94.5284 145.555 93.6234 146.102 92.8668C146.649 92.1103 147.413 91.5381 148.292 91.2263C149.172 90.9145 150.126 90.878 151.027 91.1215C151.928 91.365 152.733 91.8771 153.336 92.5896C153.939 93.3021 154.311 94.1813 154.402 95.1102Z" fill="#A0616A"/>
<path d="M194.603 223.371H189.65L187.293 208.305L194.604 208.305L194.603 223.371Z" fill="#A0616A"/>
<path d="M195.866 228.172L179.895 228.172V227.97C179.895 227.153 180.055 226.345 180.368 225.591C180.68 224.836 181.138 224.151 181.715 223.574C182.293 222.997 182.978 222.539 183.732 222.226C184.486 221.914 185.295 221.753 186.111 221.753L195.867 221.753L195.866 228.172Z" fill="#2F2E41"/>
<path d="M213.189 223.371H208.236L205.879 208.305L213.19 208.305L213.189 223.371Z" fill="#A0616A"/>
<path d="M214.452 228.172L198.48 228.172V227.97C198.48 227.153 198.641 226.345 198.954 225.591C199.266 224.836 199.724 224.151 200.301 223.574C200.879 222.997 201.564 222.539 202.318 222.226C203.072 221.914 203.881 221.753 204.697 221.753L214.452 221.753L214.452 228.172Z" fill="#2F2E41"/>
<path d="M188.622 220.393C188.17 220.393 187.734 220.225 187.399 219.92C187.065 219.616 186.856 219.198 186.814 218.748L182.498 160.692L182.702 160.675L212.407 158.234L212.415 158.445L214.776 218.586C214.785 218.83 214.745 219.074 214.658 219.302C214.571 219.531 214.438 219.739 214.269 219.915C214.099 220.091 213.896 220.231 213.671 220.327C213.445 220.423 213.204 220.472 212.959 220.472H207.135C206.7 220.474 206.279 220.319 205.949 220.036C205.619 219.753 205.402 219.36 205.338 218.93L197.428 170.347C197.42 170.297 197.394 170.251 197.354 170.22C197.315 170.188 197.265 170.173 197.214 170.176C197.163 170.18 197.116 170.203 197.081 170.24C197.046 170.277 197.027 170.325 197.027 170.376L196.668 218.345C196.664 218.808 196.484 219.252 196.164 219.587C195.844 219.922 195.408 220.123 194.945 220.147L188.72 220.39C188.687 220.392 188.654 220.393 188.622 220.393Z" fill="#2F2E41"/>
<path d="M193.692 87.3224C199.172 87.3224 203.615 82.8795 203.615 77.3989C203.615 71.9183 199.172 67.4753 193.692 67.4753C188.211 67.4753 183.768 71.9183 183.768 77.3989C183.768 82.8795 188.211 87.3224 193.692 87.3224Z" fill="#A0616A"/>
<path d="M195.613 164.395C191.276 164.382 186.959 163.792 182.777 162.64C182.375 162.523 182.025 162.271 181.787 161.926C181.549 161.581 181.437 161.165 181.47 160.747C182.806 140.669 183.12 125.088 180.311 114.307C179.114 109.713 179.657 104.874 181.802 101.031C185.03 95.2479 190.964 91.7282 197.293 91.8497C197.595 91.8554 197.901 91.8662 198.209 91.8821C207.814 92.3767 215.299 101.066 214.894 111.252L212.962 159.805C212.955 160.159 212.843 160.503 212.64 160.794C212.438 161.085 212.154 161.309 211.824 161.439C206.642 163.388 201.15 164.39 195.613 164.395Z" fill="#3F3D56"/>
<path d="M181.944 118.035L174.511 108.927C174.299 108.667 174.146 108.366 174.062 108.042C173.977 107.718 173.964 107.38 174.022 107.051C174.08 106.721 174.208 106.408 174.398 106.133C174.588 105.858 174.835 105.626 175.122 105.455L185.192 99.4552C186.524 98.3803 188.228 97.8777 189.93 98.0574C191.632 98.2371 193.194 99.0845 194.272 100.414C195.35 101.743 195.857 103.446 195.682 105.148C195.507 106.851 194.663 108.415 193.337 109.496L185.468 118.132C185.242 118.379 184.966 118.575 184.658 118.706C184.35 118.837 184.018 118.9 183.684 118.89C183.349 118.881 183.021 118.8 182.72 118.653C182.42 118.505 182.155 118.294 181.944 118.035Z" fill="#3F3D56"/>
<path d="M205.327 116.892C205.022 116.756 204.749 116.555 204.529 116.303C204.308 116.052 204.144 115.756 204.048 115.435L200.702 104.241C199.976 102.691 199.894 100.916 200.474 99.306C201.055 97.6956 202.25 96.3811 203.798 95.6508C205.347 94.9206 207.121 94.8342 208.733 95.4106C210.345 95.987 211.662 97.1792 212.396 98.7256L218.868 108.499C219.052 108.778 219.175 109.093 219.226 109.423C219.278 109.754 219.258 110.092 219.168 110.414C219.077 110.736 218.918 111.034 218.702 111.29C218.485 111.545 218.216 111.75 217.913 111.892L207.265 116.876C206.963 117.018 206.632 117.093 206.298 117.096C205.963 117.099 205.632 117.029 205.327 116.892Z" fill="#3F3D56"/>
<path d="M198.596 85.5412L191.24 83.8576C190.481 83.6839 189.57 83.3526 189.464 82.5813C189.323 81.5449 190.815 80.8229 190.677 79.786C190.544 78.7817 189.185 78.6522 188.216 78.3558C187.314 78.0393 186.57 77.3841 186.142 76.5289C185.715 75.6738 185.636 74.6857 185.924 73.7739C184.876 75.251 182.481 75.3776 181.122 74.1808C179.762 72.9841 179.501 70.8127 180.318 69.1959C180.759 68.4018 181.381 67.7229 182.134 67.2146C182.887 66.7063 183.749 66.3828 184.651 66.2705C186.463 66.065 188.296 66.4066 189.913 67.2514C190.02 66.1066 191.45 65.6425 192.599 65.6323C194.988 65.6602 197.308 66.4319 199.238 67.8401C201.167 69.2483 202.61 71.223 203.364 73.4893C204.775 78.0356 203.831 83.019 199.884 85.679L198.596 85.5412Z" fill="#2F2E41"/>
<path d="M272.687 228.28H118.749C118.642 228.28 118.539 228.237 118.464 228.162C118.388 228.086 118.345 227.983 118.345 227.876C118.345 227.769 118.388 227.666 118.464 227.59C118.539 227.514 118.642 227.472 118.749 227.472H272.687C272.794 227.472 272.897 227.514 272.972 227.59C273.048 227.666 273.091 227.769 273.091 227.876C273.091 227.983 273.048 228.086 272.972 228.162C272.897 228.237 272.794 228.28 272.687 228.28Z" fill="#3F3D56"/>
</g>
<defs>
<clipPath id="clip0_74_1240">
<rect width="344.69" height="228.28" fill="white" transform="translate(0.655273)"/>
</clipPath>
</defs>
</svg>
