<svg width="300" height="229" viewBox="0 0 204 229" fill="none" xmlns="http://www.w3.org/2000/svg">
<g clip-path="url(#clip0_74_1922)">
<path d="M115.586 175.894C164.158 175.894 203.533 136.518 203.533 87.9468C203.533 39.3751 164.158 0 115.586 0C67.0148 0 27.6396 39.3751 27.6396 87.9468C27.6396 136.518 67.0148 175.894 115.586 175.894Z" fill="#F2F2F2"/>
<path d="M173.059 39.3297H11.9521C11.6067 39.3223 11.3326 39.0362 11.34 38.6908C11.3472 38.3557 11.6171 38.0858 11.9521 38.0786H173.059C173.404 38.086 173.678 38.372 173.671 38.7175C173.664 39.0526 173.394 39.3225 173.059 39.3297Z" fill="#CACACA"/>
<path d="M118.154 60.4106H73.6175C70.2723 60.4106 67.5605 63.1224 67.5605 66.4676V66.4676C67.5605 69.8128 70.2723 72.5246 73.6175 72.5246H118.154C121.499 72.5246 124.211 69.8128 124.211 66.4676C124.211 63.1224 121.499 60.4106 118.154 60.4106Z" fill="white"/>
<path d="M44.847 84.6385H146.924C150.269 84.6385 152.981 87.3503 152.981 90.6955C152.981 94.0407 150.269 96.7525 146.924 96.7525H44.847C41.5018 96.7525 38.79 94.0407 38.79 90.6955C38.79 87.3503 41.5018 84.6385 44.847 84.6385Z" fill="white"/>
<path d="M44.847 108.866H146.924C150.269 108.866 152.981 111.578 152.981 114.923C152.981 118.269 150.269 120.98 146.924 120.98H44.847C41.5018 120.98 38.79 118.269 38.79 114.923C38.79 111.578 41.5018 108.866 44.847 108.866Z" fill="white"/>
<path d="M32.197 227.747L31.9568 227.724C23.8059 226.883 16.4375 222.499 11.8092 215.737C10.5414 213.853 9.516 211.817 8.75702 209.677L8.68407 209.472L8.90004 209.455C11.4785 209.247 14.1274 208.81 15.3042 208.602L7.71626 206.031L7.66935 205.806C7.21948 203.692 8.10081 201.517 9.8952 200.313C11.6944 199.052 14.0804 199.011 15.9213 200.211C16.7474 200.739 17.6115 201.262 18.4471 201.767C21.3186 203.504 24.2879 205.3 26.5141 207.758C29.8898 211.559 31.3695 216.681 30.541 221.696L32.197 227.747Z" fill="#F2F2F2"/>
<path d="M59.7794 223.974L63.5188 223.973L65.2982 209.548L59.7783 209.548L59.7794 223.974Z" fill="#A0616A"/>
<path d="M59.6472 227.875L71.1475 227.875V227.729C71.1474 225.257 69.1433 223.253 66.6713 223.253L64.5703 221.659L60.6509 223.253L59.647 223.253L59.6472 227.875Z" fill="#2F2E41"/>
<path d="M29.8081 213.615L32.7993 215.859L42.8796 205.389L38.4643 202.076L29.8081 213.615Z" fill="#A0616A"/>
<path d="M27.3613 216.657L36.5608 223.559L36.6481 223.442C38.1315 221.465 37.7311 218.659 35.7538 217.175L35.0296 214.64L30.9379 213.563L30.1348 212.96L27.3613 216.657Z" fill="#2F2E41"/>
<path d="M42.2399 156.28C42.2399 156.28 42.4464 161.911 42.7068 166.427C42.7495 167.168 41.0142 167.972 41.0592 168.778C41.089 169.313 41.4152 169.833 41.4455 170.39C41.4774 170.978 41.0271 171.499 41.0592 172.107C41.0905 172.702 41.6043 173.383 41.6352 173.992C41.9687 180.539 43.1776 188.377 41.9671 190.568C41.3705 191.648 33.7661 206.608 33.7661 206.608C33.7661 206.608 38.003 212.963 39.2136 210.845C40.8124 208.047 53.1348 194.956 53.1348 192.456C53.1348 189.96 55.9856 171.248 55.9856 171.248L57.9735 182.321L58.8849 184.515L58.5985 185.803L59.1875 187.542L59.2194 189.262L59.7928 192.456C59.7928 192.456 58.0678 217.345 59.0393 218.038C60.0138 218.734 64.7319 219.984 65.2887 218.734C65.8425 217.484 69.4474 192.759 69.4474 192.759C69.4474 192.759 70.0284 181.428 70.658 170.897C70.6942 170.285 71.124 169.547 71.1573 168.945C71.1967 168.246 70.9243 167.338 70.9606 166.66C70.9999 165.882 71.3449 165.334 71.3782 164.59C71.6355 158.837 70.1914 151.831 69.7314 151.141C68.3423 149.059 67.0924 147.394 67.0924 147.394C67.0924 147.394 48.3828 141.247 43.3832 147.493L42.2399 156.28Z" fill="#2F2E41"/>
<path d="M60.9002 98.3701L53.4833 96.8867L50.0221 101.584C43.5637 107.934 43.4664 113.539 44.6193 122.523V135.132L43.7849 143.584C43.7849 143.584 40.8308 149.763 43.8776 151.202C46.9244 152.64 66.9372 152.518 68.8479 151.943C70.7587 151.369 69.1025 150.664 68.6007 147.988C67.6582 142.96 68.2886 145.385 68.3535 143.785C69.2835 120.824 67.1173 111.398 66.8974 108.92L63.1254 102.079L60.9002 98.3701Z" fill="#3F3D56"/>
<path d="M99.9917 116.883C99.2187 118.348 97.4047 118.908 95.9401 118.135C95.7839 118.053 95.6353 117.957 95.4961 117.848L79.4785 128.019L79.5247 122.481L95.0845 113.452C96.1928 112.209 98.0986 112.1 99.3413 113.209C100.381 114.136 100.65 115.655 99.9917 116.883Z" fill="#A0616A"/>
<path d="M55.044 104.783L53.2204 104.59C51.5355 104.415 49.8823 105.137 48.8648 106.491C48.4751 107.005 48.1952 107.593 48.0425 108.219L48.0414 108.224C47.584 110.11 48.3014 112.086 49.862 113.238L56.1603 117.882C60.5803 123.854 68.8872 127.817 78.6312 131.036L93.777 121.629L88.4199 115.141L78.0313 120.709L62.5893 108.755L62.5804 108.748L56.7031 104.961L55.044 104.783Z" fill="#3F3D56"/>
<path d="M58.3938 94.7281C63.1706 94.7281 67.043 90.8557 67.043 86.0789C67.043 81.3021 63.1706 77.4297 58.3938 77.4297C53.617 77.4297 49.7446 81.3021 49.7446 86.0789C49.7446 90.8557 53.617 94.7281 58.3938 94.7281Z" fill="#A0616A"/>
<path d="M58.5939 94.73C58.5242 94.7323 58.4543 94.7338 58.3845 94.7357C58.3546 94.8132 58.3224 94.8901 58.2852 94.9655L58.5939 94.73Z" fill="#2F2E41"/>
<path d="M60.9673 86.3188C60.9809 86.4041 61.0016 86.488 61.0293 86.5697C61.0179 86.4841 60.9971 86.3999 60.9673 86.3188Z" fill="#2F2E41"/>
<path d="M67.1534 77.7998C66.7974 78.9053 66.4796 77.503 65.3085 77.7552C63.8997 78.0586 62.2602 77.9544 61.1065 77.0909C59.3874 75.8296 57.1597 75.49 55.143 76.1819C53.1688 76.8803 49.8615 77.3728 49.3471 79.4027C49.1683 80.1082 49.0973 80.874 48.6639 81.4587C48.285 81.97 47.6869 82.2615 47.1868 82.655C45.498 83.9837 46.7887 87.7586 47.588 89.7532C48.3873 91.7479 50.2207 93.2009 52.2364 93.9452C54.1868 94.6653 56.3036 94.7923 58.3842 94.7357C58.7461 93.7972 58.5897 92.7132 58.2911 91.7402C57.9679 90.6869 57.4892 89.6704 57.3542 88.5769C57.2192 87.4834 57.5157 86.2414 58.4326 85.6304C59.2753 85.0688 60.6467 85.4109 60.9673 86.3189C60.7802 85.1837 61.9301 84.0853 63.1158 83.8921C64.3888 83.6847 65.6617 84.1443 66.9311 84.373C68.2004 84.6018 67.7498 79.2579 67.1534 77.7998Z" fill="#2F2E41"/>
<path d="M115.527 100.386C116.333 90.6442 109.089 82.0929 99.3468 81.2866C89.6046 80.4803 81.0533 87.7244 80.247 97.4666C79.4407 107.209 86.6847 115.76 96.427 116.566C106.169 117.373 114.72 110.129 115.527 100.386Z" fill="#6C63FF"/>
<path d="M102.536 91.5514L97.8868 96.2009L93.2373 91.5514C92.4847 90.7988 91.2644 90.7988 90.5117 91.5514C89.7591 92.3041 89.7591 93.5244 90.5117 94.277L95.1613 98.9265L90.5117 103.576C89.7598 104.329 89.7609 105.55 90.5143 106.302C91.2666 107.053 92.485 107.053 93.2373 106.302L97.8868 101.652L102.536 106.302C103.29 107.054 104.51 107.052 105.262 106.299C106.013 105.547 106.013 104.328 105.262 103.576L100.612 98.9265L105.262 94.277C106.015 93.5244 106.015 92.3041 105.262 91.5514C104.509 90.7988 103.289 90.7988 102.536 91.5514Z" fill="white"/>
<path d="M90.9118 84.0495C91.4335 85.6213 90.5823 87.3184 89.0105 87.8402C88.843 87.8958 88.6708 87.9365 88.4961 87.9618L84.746 106.561L80.7822 102.694L85.0385 85.2151C84.9091 83.555 86.15 82.1044 87.8101 81.975C89.1991 81.8668 90.4814 82.7244 90.9118 84.0495Z" fill="#A0616A"/>
<path d="M51.0621 108.107L49.6602 109.289C48.3676 110.384 47.7438 112.077 48.0167 113.748C48.1176 114.385 48.3484 114.995 48.6947 115.538L48.6975 115.543C49.7414 117.178 51.6639 118.028 53.5761 117.7L61.2872 116.37C68.657 117.315 77.2671 114.064 86.3358 109.261L90.0336 91.8199L81.643 91.1938L78.4685 102.545L59.1521 105.412L59.1407 105.414L52.3394 107.033L51.0621 108.107Z" fill="#3F3D56"/>
<path d="M94.9704 228.174L0.877736 228.28C0.650047 228.279 0.466062 228.094 0.466799 227.866C0.46753 227.64 0.651082 227.456 0.877736 227.456L94.9704 227.349C95.1981 227.35 95.3821 227.535 95.3813 227.763C95.3806 227.989 95.1971 228.173 94.9704 228.174Z" fill="#CACACA"/>
<path d="M20.1258 31.4059C21.743 31.4059 23.0539 30.0657 23.0539 28.4125C23.0539 26.7594 21.743 25.4192 20.1258 25.4192C18.5087 25.4192 17.1978 26.7594 17.1978 28.4125C17.1978 30.0657 18.5087 31.4059 20.1258 31.4059Z" fill="#3F3D56"/>
<path d="M30.2411 31.4059C31.8582 31.4059 33.1691 30.0657 33.1691 28.4125C33.1691 26.7594 31.8582 25.4192 30.2411 25.4192C28.6239 25.4192 27.313 26.7594 27.313 28.4125C27.313 30.0657 28.6239 31.4059 30.2411 31.4059Z" fill="#3F3D56"/>
<path d="M40.3563 31.4059C41.9734 31.4059 43.2844 30.0657 43.2844 28.4125C43.2844 26.7594 41.9734 25.4192 40.3563 25.4192C38.7392 25.4192 37.4282 26.7594 37.4282 28.4125C37.4282 30.0657 38.7392 31.4059 40.3563 31.4059Z" fill="#3F3D56"/>
<path d="M51.8904 30.7784C51.8004 30.7784 51.7106 30.7435 51.6428 30.6742L49.6671 28.6545C49.5354 28.52 49.5354 28.3049 49.6671 28.1703L51.6428 26.1509C51.7769 26.0142 51.9964 26.012 52.1325 26.1454C52.2692 26.2792 52.2716 26.4985 52.1379 26.6351L50.399 28.4124L52.1379 30.19C52.2716 30.3266 52.2692 30.5459 52.1325 30.6796C52.0652 30.7456 51.9778 30.7784 51.8904 30.7784Z" fill="#3F3D56"/>
<path d="M55.21 30.7784C55.1226 30.7784 55.0352 30.7456 54.9679 30.6796C54.8312 30.5459 54.8288 30.3268 54.9625 30.19L56.7012 28.4125L54.9625 26.6351C54.8288 26.4985 54.8312 26.2792 54.9679 26.1454C55.1044 26.0115 55.3238 26.0141 55.4575 26.1509L57.4331 28.1704C57.5648 28.3049 57.5648 28.52 57.4331 28.6546L55.4575 30.6742C55.3898 30.7435 55.3 30.7784 55.21 30.7784Z" fill="#3F3D56"/>
<path d="M158.569 25.7657H154.895C154.476 25.7657 154.137 26.1051 154.137 26.524V30.2012C154.137 30.6201 154.476 30.9595 154.895 30.9595H158.569C158.988 30.9595 159.33 30.6201 159.33 30.2012V26.524C159.33 26.1051 158.988 25.7657 158.569 25.7657Z" fill="#3F3D56"/>
<path d="M149.566 25.7657H145.892C145.473 25.7657 145.134 26.1051 145.134 26.524V30.2012C145.134 30.6201 145.473 30.9595 145.892 30.9595H149.566C149.985 30.9595 150.327 30.6201 150.327 30.2012V26.524C150.327 26.1051 149.985 25.7657 149.566 25.7657Z" fill="#3F3D56"/>
<path d="M167.052 25.9388H163.378C162.959 25.9388 162.62 26.2782 162.62 26.6971V30.3743C162.62 30.7932 162.959 31.1326 163.378 31.1326H167.052C167.471 31.1326 167.814 30.7932 167.814 30.3743V26.6971C167.814 26.2782 167.471 25.9388 167.052 25.9388Z" fill="#3F3D56"/>
<path d="M111.679 27.3376H82.3141C81.8017 27.3376 81.3896 27.7531 81.3896 28.2621C81.3896 28.7711 81.8017 29.1866 82.3141 29.1866H111.679C112.188 29.1866 112.604 28.7711 112.604 28.2621C112.604 27.7532 112.188 27.3376 111.679 27.3376Z" fill="#3F3D56"/>
</g>
<defs>
<clipPath id="clip0_74_1922">
<rect width="203.067" height="228.28" fill="white" transform="translate(0.466797)"/>
</clipPath>
</defs>
</svg>
