<svg width="300" height="229" viewBox="0 0 282 229" fill="none" xmlns="http://www.w3.org/2000/svg">
<g clip-path="url(#clip0_74_1959)">
<path d="M281.341 22.8496V205.43C281.341 218.051 269.874 228.28 255.725 228.28H26.275C12.1259 228.28 0.65918 218.051 0.65918 205.43V22.8496C0.65918 10.2285 12.1259 0 26.275 0H255.725C269.874 0 281.341 10.2285 281.341 22.8496Z" fill="#F2F2F2"/>
<path d="M94.2627 227.678L110.685 224.118L129.714 219.989C129.714 219.989 130.744 223.142 132.189 227.678H94.2627Z" fill="#2F2E41"/>
<path d="M135.834 225.632C135.834 225.632 135.68 226.455 135.365 227.678H58.6967C57.851 225.102 57.4743 222.45 58.4814 220.258C58.6508 219.876 58.865 219.514 59.1195 219.182C59.3082 218.921 59.5191 218.676 59.75 218.452C61.2569 216.96 62.1795 213.746 62.7331 210.087C63.3976 205.082 63.6727 200.034 63.5557 194.987C63.5634 194.979 63.5634 194.979 63.5557 194.979C63.5403 193.787 63.5096 193.072 63.5096 193.072C63.5096 193.072 63.2174 188.667 62.8868 182.009C62.8945 182.009 62.8868 182.001 62.8868 182.001C61.9796 164.033 60.7494 129.636 63.9401 120.517C64.1437 119.749 64.5561 119.052 65.1318 118.503C69.4272 115.403 73.9978 112.703 78.7863 110.438C79.0631 110.315 79.2091 110.246 79.2091 110.246L89.7345 110.046L102.805 107.739L111.885 106.079C111.885 106.079 112.553 106.125 113.599 106.271C117.074 106.748 124.716 108.308 125.793 112.829C125.793 112.837 125.801 112.845 125.801 112.852C125.937 113.445 125.96 114.058 125.87 114.659C124.839 122.194 132.113 168.47 134.327 170.784C136.541 173.098 135.957 181.555 130.483 186.929C129.518 187.923 128.816 189.141 128.438 190.474C126.369 197.124 129.614 207.988 132.789 213.07C135.096 216.834 136.161 221.229 135.834 225.632Z" fill="#3F3D56"/>
<path d="M177.703 77.691L177.483 69.6458L177.188 58.857L168.587 58.4595L167.383 69.179L166.261 79.1402L177.703 77.691Z" fill="#A0616A"/>
<path d="M89.6045 111.756L101.671 124.706C101.671 124.706 152.797 132.963 153.139 128.627C153.481 124.292 150.113 123.036 155.634 123.421C161.154 123.806 162.481 127.728 163.322 123.977C164.163 120.226 159.534 120.135 164.894 119.603C170.253 119.071 181.959 72.2786 181.959 72.2786L163.287 75.2902C163.287 75.2902 159.657 97.9145 157.382 100.806C155.106 103.697 152.822 105.772 151.418 105.897C150.014 106.022 89.6045 111.756 89.6045 111.756Z" fill="#3F3D56"/>
<path d="M96.5239 95.0149C106.314 95.0149 114.25 87.0787 114.25 77.2889C114.25 67.4991 106.314 59.5629 96.5239 59.5629C86.7341 59.5629 78.7979 67.4991 78.7979 77.2889C78.7979 87.0787 86.7341 95.0149 96.5239 95.0149Z" fill="#A0616A"/>
<path d="M82.7099 92.555L89.737 93.9005C89.737 93.9005 83.2019 83.352 83.5864 78.5238C83.9708 73.6955 89.2296 71.9656 89.2296 71.9656C89.2296 71.9656 92.1435 72.5961 95.2111 72.9497C95.5785 71.9152 96.0553 70.9229 96.6334 69.9897C96.7472 71.1945 97.2806 72.3211 98.1404 73.1727C99.2646 73.2692 100.397 73.1385 101.469 72.7882C102.684 72.2347 102.661 71.2737 102.261 70.3741C108.112 70.6586 113.655 73.5033 113.655 73.5033C113.832 71.1429 113.742 68.7701 113.386 66.43C113.217 66.3839 113.048 66.3301 112.879 66.2762C111.831 65.9447 110.821 65.5041 109.865 64.9615C110.929 64.8204 111.923 64.353 112.71 63.6238C112.064 61.7324 111.034 60.0948 109.411 59.2952C107.846 58.5298 106.135 58.1096 104.393 58.0632C102.652 58.0168 100.92 58.3452 99.3167 59.0262C99.3167 59.0262 103.076 56.2814 101.692 55.1589C101.6 55.2512 101.508 55.3357 101.408 55.4203C101.277 55.5279 101.131 55.6433 100.993 55.7509C100.139 56.4428 98.863 55.4664 98.6939 54.4208C98.6757 54.2888 98.65 54.1578 98.617 54.0287C98.594 53.9211 98.5632 53.8134 98.5325 53.7135C98.5064 53.6248 98.4755 53.5375 98.4402 53.4521C95.88 52.837 88.1378 55.3357 85.1624 60.8406C85.1624 60.8406 64.3655 70.8354 82.7099 92.555Z" fill="#3F3D56"/>
<path d="M74.2118 227.678H64.2783L63.9398 227.116L59.1194 219.182L56.459 214.799L62.7328 210.087L65.6854 207.873L72.1971 222.995L74.2118 227.678Z" fill="#A0616A"/>
<path d="M78.7891 110.438L103.576 167.709L113.602 106.271C112.556 106.125 111.887 106.079 111.887 106.079L107.62 97.7908L83.1791 99.0593L79.2119 110.246C79.2119 110.246 79.0658 110.315 78.7891 110.438Z" fill="#0142EB"/>
<path d="M111.401 227.678H91.8799L104.343 192.311L110.686 224.118L111.401 227.678Z" fill="#0142EB"/>
<path opacity="0.5" d="M230.086 119.149H173.974C165.077 119.149 157.865 126.361 157.865 135.257V155.543C157.865 164.44 165.077 171.652 173.974 171.652H230.086C238.982 171.652 246.194 164.44 246.194 155.543V135.257C246.194 126.361 238.982 119.149 230.086 119.149Z" fill="white"/>
<path d="M230.085 172.254H173.974C169.543 172.249 165.296 170.487 162.163 167.354C159.03 164.221 157.268 159.974 157.263 155.543V135.257C157.268 130.827 159.03 126.579 162.163 123.446C165.296 120.313 169.543 118.551 173.974 118.546H230.085C234.516 118.551 238.763 120.313 241.896 123.446C245.029 126.579 246.791 130.827 246.796 135.257V155.543C246.791 159.974 245.029 164.221 241.896 167.354C238.763 170.487 234.516 172.249 230.085 172.254ZM173.974 119.751C169.863 119.755 165.921 121.391 163.014 124.298C160.107 127.205 158.472 131.146 158.467 135.257V155.543C158.472 159.654 160.107 163.596 163.014 166.502C165.921 169.409 169.863 171.045 173.974 171.049H230.085C234.197 171.045 238.138 169.409 241.045 166.502C243.952 163.596 245.587 159.654 245.592 155.543V135.257C245.587 131.146 243.952 127.205 241.045 124.298C238.138 121.391 234.197 119.755 230.085 119.751L173.974 119.751Z" fill="white"/>
<path d="M201.957 160.275C209.063 160.275 214.823 154.515 214.823 147.41C214.823 140.304 209.063 134.544 201.957 134.544C194.852 134.544 189.092 140.304 189.092 147.41C189.092 154.515 194.852 160.275 201.957 160.275Z" fill="#A0616A"/>
<path d="M204.779 160.202C203.199 156.68 211.758 149.373 206.274 149.002C206.274 149.002 202.669 142.682 200.381 144.377C197.73 146.339 193.869 142.775 191.6 140.392C192.083 140.002 192.516 139.555 192.89 139.06C192.169 139.192 191.438 139.268 190.706 139.288C190.434 138.886 190.243 138.434 190.146 137.958C190.039 137.508 190.073 137.036 190.243 136.605C190.413 136.175 190.71 135.807 191.095 135.55C191.926 135.087 192.988 135.37 193.877 135.038C193.988 134.984 194.084 134.903 194.157 134.804C194.23 134.704 194.278 134.589 194.297 134.467C194.363 134.179 194.493 133.91 194.675 133.679C194.858 133.447 195.089 133.259 195.353 133.127C195.616 132.995 195.906 132.922 196.201 132.915C196.495 132.908 196.788 132.966 197.058 133.084C197.161 133.143 197.277 133.175 197.395 133.178C198.014 133.139 198.627 133.026 199.22 132.842C198.555 132.53 197.914 132.169 197.304 131.761C197.179 131.676 197.053 131.591 196.93 131.501C197.483 131.052 198.126 130.728 198.815 130.55C199.504 130.373 200.224 130.346 200.924 130.473C202.393 130.759 203.809 131.27 205.122 131.988C205.9 132.367 206.676 132.746 207.451 133.123C209.123 133.859 210.713 134.77 212.193 135.841C213.738 137.055 214.995 138.595 215.875 140.351C216.756 142.107 217.237 144.036 217.286 146C217.357 149.918 214.005 160.655 204.779 160.202Z" fill="#2F2E41"/>
<path opacity="0.5" d="M125.494 170.356H69.382C60.4855 170.356 53.2734 177.568 53.2734 186.464V206.75C53.2734 215.647 60.4855 222.859 69.382 222.859H125.494C134.39 222.859 141.602 215.647 141.602 206.75V186.464C141.602 177.568 134.39 170.356 125.494 170.356Z" fill="white"/>
<path d="M125.495 223.461H69.3828C64.9523 223.456 60.7047 221.694 57.5719 218.561C54.4391 215.429 52.6769 211.181 52.6719 206.75V186.464C52.6769 182.034 54.4391 177.786 57.5719 174.654C60.7047 171.521 64.9523 169.759 69.3828 169.754H125.495C129.925 169.759 134.173 171.521 137.305 174.654C140.438 177.786 142.2 182.034 142.205 186.464V206.75C142.2 211.181 140.438 215.429 137.305 218.561C134.173 221.694 129.925 223.456 125.495 223.461ZM69.3828 170.958C65.2717 170.963 61.3303 172.598 58.4233 175.505C55.5164 178.412 53.8812 182.353 53.8765 186.464V206.75C53.8812 210.862 55.5164 214.803 58.4233 217.71C61.3303 220.617 65.2717 222.252 69.3828 222.257H125.495C129.606 222.252 133.547 220.617 136.454 217.71C139.361 214.803 140.996 210.862 141.001 206.75V186.464C140.996 182.353 139.361 178.412 136.454 175.505C133.547 172.598 129.606 170.963 125.495 170.958H69.3828Z" fill="white"/>
<path d="M98.2994 213.352C105.519 213.352 111.371 207.499 111.371 200.28C111.371 193.061 105.519 187.208 98.2994 187.208C91.08 187.208 85.2275 193.061 85.2275 200.28C85.2275 207.499 91.08 213.352 98.2994 213.352Z" fill="#FFB6B6"/>
<path d="M89.7843 203.638C89.6217 203.584 89.4492 203.565 89.2786 203.582C89.108 203.6 88.9432 203.654 88.7953 203.741C88.6473 203.828 88.5198 203.945 88.4212 204.086C88.3226 204.226 88.2553 204.386 88.2238 204.555C88.1806 204.901 88.2087 205.252 88.3061 205.587C88.4036 205.922 88.5684 206.234 88.7905 206.503C89.2369 207.037 89.6369 207.609 89.9863 208.211C90.1567 208.516 90.2366 208.863 90.2165 209.211C90.1964 209.56 90.0771 209.896 89.8727 210.179C89.65 210.396 89.3703 210.545 89.0662 210.609C88.7621 210.673 88.446 210.65 88.1547 210.541C87.5747 210.315 87.062 209.944 86.6647 209.465C84.1657 206.753 81.5587 202.252 82.8363 198.793C82.9423 198.423 82.9845 198.038 82.9609 197.654C82.9853 197.214 83.0669 196.551 82.6523 196.402C81.4954 195.984 84.7415 189.222 89.7515 187.751C89.5074 185.442 101.56 182.121 100.902 185.019C100.784 185.54 101.948 185.257 102.481 185.286C106.571 185.507 111.189 186.535 110.817 191.275C110.672 193.11 111.432 192.687 112.041 194.424C111.092 194.99 110.78 196.232 110.048 195.403C109.316 194.575 108.691 193.537 107.641 193.189C106.524 192.818 105.311 193.373 104.358 194.064C103.405 194.755 102.531 195.613 101.411 195.975C100.155 196.381 98.7848 196.099 97.4747 196.263C95.6058 196.584 93.918 197.575 92.728 199.052C91.5549 200.52 90.5648 202.125 89.7795 203.831" fill="#2F2E41"/>
<path d="M82.4336 118.361L64.7505 119.13C64.7505 119.13 38.6101 163.722 41.6854 166.798C44.7608 169.873 47.9025 168.127 44.0251 172.075C40.1478 176.024 36.3036 174.486 38.6101 177.561C40.9166 180.637 43.9919 177.176 40.9166 181.597C37.8412 186.018 62.8284 227.678 62.8284 227.678L73.592 222.296C73.592 222.296 63.1177 194.772 62.3964 191.164C61.6751 187.556 61.58 184.472 62.3964 183.323C63.2128 182.174 82.4336 118.361 82.4336 118.361Z" fill="#3F3D56"/>
<path d="M172.994 132.376C175.284 132.376 177.14 130.52 177.14 128.23C177.14 125.94 175.284 124.084 172.994 124.084C170.705 124.084 168.849 125.94 168.849 128.23C168.849 130.52 170.705 132.376 172.994 132.376Z" fill="#0142EB"/>
<path d="M172.428 130.388C172.356 130.388 172.286 130.371 172.222 130.339C172.158 130.307 172.102 130.261 172.059 130.203L170.928 128.695C170.891 128.647 170.864 128.592 170.849 128.533C170.834 128.474 170.83 128.413 170.838 128.352C170.847 128.292 170.867 128.234 170.898 128.182C170.929 128.129 170.97 128.084 171.018 128.047C171.067 128.011 171.122 127.984 171.181 127.969C171.24 127.954 171.302 127.951 171.362 127.96C171.422 127.969 171.48 127.989 171.532 128.021C171.584 128.052 171.63 128.093 171.666 128.142L172.406 129.128L174.306 126.278C174.374 126.176 174.48 126.105 174.6 126.081C174.72 126.057 174.844 126.082 174.946 126.15C175.048 126.218 175.118 126.323 175.142 126.443C175.166 126.563 175.142 126.688 175.074 126.789L172.812 130.182C172.771 130.244 172.716 130.295 172.651 130.33C172.587 130.366 172.515 130.386 172.441 130.388L172.428 130.388Z" fill="white"/>
<path d="M71.804 184.176C74.0937 184.176 75.9498 182.32 75.9498 180.03C75.9498 177.74 74.0937 175.884 71.804 175.884C69.5143 175.884 67.6582 177.74 67.6582 180.03C67.6582 182.32 69.5143 184.176 71.804 184.176Z" fill="#0142EB"/>
<path d="M71.2385 182.188C71.167 182.188 71.0963 182.171 71.0323 182.139C70.9683 182.107 70.9126 182.06 70.8696 182.003L69.7386 180.495C69.7018 180.447 69.6749 180.391 69.6595 180.333C69.6441 180.274 69.6406 180.212 69.649 180.152C69.6574 180.092 69.6776 180.034 69.7085 179.982C69.7394 179.929 69.7803 179.883 69.829 179.847C69.8777 179.81 69.933 179.784 69.992 179.769C70.0509 179.754 70.1123 179.751 70.1724 179.76C70.2326 179.768 70.2905 179.789 70.3426 179.82C70.3948 179.851 70.4403 179.893 70.4765 179.942L71.2164 180.928L73.1169 178.077C73.1505 178.027 73.1937 177.984 73.244 177.95C73.2943 177.916 73.3508 177.893 73.4102 177.881C73.4696 177.869 73.5307 177.869 73.5901 177.881C73.6495 177.893 73.7061 177.916 73.7564 177.95C73.8068 177.983 73.8501 178.026 73.8838 178.077C73.9175 178.127 73.941 178.183 73.9529 178.243C73.9647 178.302 73.9648 178.363 73.953 178.423C73.9413 178.482 73.918 178.539 73.8844 178.589L71.6223 181.982C71.5814 182.044 71.5263 182.094 71.4618 182.13C71.3972 182.166 71.3251 182.185 71.2514 182.187L71.2385 182.188Z" fill="white"/>
<path d="M232.623 134.589C231.814 134.589 231.022 134.349 230.349 133.899C229.676 133.45 229.152 132.81 228.842 132.062C228.532 131.314 228.451 130.491 228.609 129.697C228.767 128.903 229.157 128.174 229.729 127.602C230.302 127.029 231.031 126.639 231.825 126.481C232.619 126.324 233.442 126.405 234.19 126.714C234.938 127.024 235.577 127.549 236.027 128.222C236.476 128.895 236.717 129.686 236.717 130.496C236.717 131.582 236.285 132.623 235.518 133.39C234.75 134.158 233.709 134.589 232.623 134.589Z" fill="#E6E6E6"/>
<path d="M234.051 131.353L233.195 130.496L234.051 129.64C234.089 129.602 234.119 129.558 234.14 129.508C234.16 129.459 234.171 129.407 234.171 129.354C234.171 129.3 234.161 129.248 234.141 129.198C234.12 129.149 234.091 129.104 234.053 129.067C234.015 129.029 233.971 128.999 233.921 128.979C233.872 128.959 233.819 128.948 233.766 128.948C233.713 128.949 233.66 128.959 233.611 128.98C233.562 129.001 233.518 129.031 233.48 129.069L232.624 129.925L231.767 129.069C231.691 128.993 231.589 128.951 231.482 128.951C231.375 128.951 231.273 128.994 231.197 129.069C231.121 129.145 231.079 129.247 231.079 129.354C231.079 129.461 231.121 129.564 231.196 129.64L232.053 130.496L231.196 131.353C231.158 131.39 231.128 131.434 231.108 131.484C231.087 131.533 231.076 131.585 231.076 131.639C231.076 131.692 231.086 131.745 231.107 131.794C231.127 131.843 231.157 131.888 231.194 131.925C231.232 131.963 231.277 131.993 231.326 132.013C231.375 132.033 231.428 132.044 231.481 132.044C231.534 132.043 231.587 132.033 231.636 132.012C231.685 131.992 231.73 131.961 231.767 131.924L232.624 131.067L233.48 131.924C233.518 131.961 233.562 131.991 233.611 132.012C233.66 132.032 233.713 132.043 233.766 132.043C233.819 132.043 233.872 132.032 233.921 132.012C233.97 131.992 234.014 131.962 234.052 131.924C234.09 131.887 234.119 131.842 234.14 131.793C234.16 131.744 234.17 131.691 234.17 131.638C234.17 131.585 234.16 131.533 234.139 131.484C234.119 131.435 234.089 131.39 234.051 131.353Z" fill="white"/>
<path d="M126.615 183.979C125.805 183.979 125.014 183.739 124.341 183.29C123.667 182.84 123.143 182.201 122.833 181.453C122.523 180.705 122.442 179.882 122.6 179.088C122.758 178.294 123.148 177.564 123.72 176.992C124.293 176.42 125.022 176.03 125.816 175.872C126.61 175.714 127.433 175.795 128.181 176.105C128.929 176.415 129.568 176.939 130.018 177.612C130.468 178.285 130.708 179.077 130.708 179.886C130.708 180.972 130.277 182.013 129.509 182.781C128.741 183.548 127.7 183.979 126.615 183.979Z" fill="#E6E6E6"/>
<path d="M128.042 180.743L127.186 179.886L128.042 179.03C128.117 178.954 128.159 178.852 128.159 178.745C128.159 178.638 128.116 178.536 128.041 178.461C127.965 178.385 127.863 178.343 127.756 178.342C127.65 178.342 127.547 178.384 127.471 178.459L126.615 179.315L125.758 178.459C125.683 178.383 125.58 178.341 125.473 178.341C125.366 178.342 125.264 178.384 125.188 178.46C125.113 178.535 125.07 178.638 125.07 178.745C125.07 178.851 125.112 178.954 125.187 179.03L126.044 179.886L125.187 180.743C125.15 180.78 125.119 180.825 125.099 180.874C125.078 180.923 125.068 180.976 125.067 181.029C125.067 181.082 125.078 181.135 125.098 181.184C125.118 181.233 125.148 181.278 125.186 181.316C125.223 181.353 125.268 181.383 125.317 181.403C125.366 181.424 125.419 181.434 125.472 181.434C125.526 181.434 125.578 181.423 125.627 181.402C125.676 181.382 125.721 181.352 125.758 181.314L126.615 180.457L127.471 181.314C127.547 181.389 127.65 181.431 127.757 181.431C127.864 181.431 127.966 181.389 128.042 181.313C128.117 181.237 128.16 181.135 128.16 181.028C128.16 180.921 128.118 180.819 128.042 180.743Z" fill="white"/>
<path d="M172.923 62.0391C176.915 62.0391 180.151 58.8031 180.151 54.8112C180.151 50.8194 176.915 47.5834 172.923 47.5834C168.931 47.5834 165.695 50.8194 165.695 54.8112C165.695 58.8031 168.931 62.0391 172.923 62.0391Z" fill="#A0616A"/>
<path opacity="0.5" d="M229.89 52.8835H173.778C164.882 52.8835 157.67 60.0956 157.67 68.9921V89.2783C157.67 98.1748 164.882 105.387 173.778 105.387H229.89C238.787 105.387 245.999 98.1748 245.999 89.2783V68.9921C245.999 60.0956 238.787 52.8835 229.89 52.8835Z" fill="white"/>
<path d="M229.891 105.989H173.778C169.348 105.984 165.1 104.222 161.967 101.089C158.835 97.9564 157.072 93.7088 157.067 89.2783V68.992C157.072 64.5616 158.835 60.314 161.967 57.1812C165.1 54.0484 169.348 52.2862 173.778 52.2811H229.891C234.321 52.2862 238.569 54.0484 241.702 57.1812C244.834 60.314 246.597 64.5616 246.602 68.992V89.2783C246.597 93.7088 244.834 97.9564 241.702 101.089C238.569 104.222 234.321 105.984 229.891 105.989ZM173.778 53.4858C169.667 53.4904 165.726 55.1256 162.819 58.0326C159.912 60.9396 158.277 64.8809 158.272 68.992V89.2783C158.277 93.3894 159.912 97.3308 162.819 100.238C165.726 103.145 169.667 104.78 173.778 104.785H229.891C234.002 104.78 237.943 103.145 240.85 100.238C243.757 97.3308 245.392 93.3894 245.397 89.2783V68.992C245.392 64.8809 243.757 60.9396 240.85 58.0326C237.943 55.1256 234.002 53.4904 229.891 53.4858H173.778Z" fill="white"/>
<path d="M218.599 80.6423C218.636 84.0136 219.709 91.0325 218.94 94.3346L218.816 94.0583C218.176 94.5651 217.497 95.0195 216.785 95.417C216.271 94.1669 215.502 93.0376 214.528 92.1009C214.656 93.6506 214.473 95.2103 213.989 96.6881C211.111 97.7243 206.058 94.459 202.926 94.3899C197.888 94.2748 192.978 93.022 188.166 91.6957C186.457 91.2259 184.578 90.6134 183.804 89.1948C183.031 87.7763 184.415 86.2452 184.325 84.6446C183.679 73.2432 189.11 71.3321 194.277 68.2856C195.414 67.6152 195.972 66.1717 197.257 65.6098C199.039 64.8315 201.163 65.2045 203.101 65.596C202.62 65.4374 202.187 65.1574 201.845 64.7832C201.503 64.4089 201.263 63.9529 201.149 63.459C201.068 62.975 201.122 62.478 201.306 62.0229C201.49 61.5678 201.795 61.1723 202.19 60.8799C202.778 60.4952 203.443 60.2443 204.138 60.1448C204.834 60.0453 205.543 60.0997 206.215 60.3042C207.532 60.7161 208.778 61.3281 209.909 62.1188C210.676 62.54 211.363 63.0953 211.935 63.7584C212.205 64.0722 212.372 64.4609 212.415 64.8724C212.458 65.2839 212.374 65.6986 212.174 66.0612C211.929 66.372 211.616 66.6233 211.259 66.7963C210.903 66.9694 210.512 67.0597 210.116 67.0606C209.505 67.0784 208.895 67.0149 208.301 66.8718C211.023 67.5432 213.476 69.0275 215.334 71.1273C217.641 73.8123 218.558 77.2711 218.599 80.6423Z" fill="#2F2E41"/>
<path d="M200.526 91.6192C206.693 91.6192 211.692 86.6201 211.692 80.4535C211.692 74.2868 206.693 69.2877 200.526 69.2877C194.359 69.2877 189.36 74.2868 189.36 80.4535C189.36 86.6201 194.359 91.6192 200.526 91.6192Z" fill="#FFB6B6"/>
<path d="M212.71 78.7679C211.397 80.3568 209.444 80.2739 207.708 80.0206C207.16 79.9423 206.612 79.8548 206.064 79.7534C205.967 79.4449 205.857 79.1363 205.732 78.837C205.218 77.5869 204.45 76.4576 203.476 75.5209C203.578 76.7455 203.483 77.9787 203.195 79.1731C202.177 78.9382 201.164 78.6757 200.155 78.3856C199.263 78.2405 198.46 77.7581 197.913 77.0381C197.366 76.3181 197.117 75.4156 197.217 74.5169C195.766 75.6223 194.186 76.5802 192.528 76.5986C191.594 76.5744 190.691 76.2514 189.954 75.677C189.216 75.1027 188.682 74.3071 188.429 73.407C188.044 71.9492 187.977 70.4258 188.231 68.9396C188.452 67.1665 188.95 65.2183 190.147 64.5045C191.11 63.9242 192.22 64.3387 193.21 64.8084C195.391 65.8554 197.459 67.124 199.381 68.5942L199.404 69.0778C199.902 66.6967 201.546 64.8591 203.337 64.6749C204.544 64.5551 205.723 65.1124 206.861 65.6743C208.347 66.3302 209.73 67.2007 210.964 68.258C212.358 69.5262 213.327 71.1943 213.737 73.0339C214.165 75.0281 213.843 77.3954 212.71 78.7679Z" fill="#2F2E41"/>
<path d="M201.657 63.2721C201.771 63.2817 201.49 63.2172 201.581 63.2556C201.536 63.2351 201.493 63.211 201.452 63.1835C201.445 63.179 201.355 63.1057 201.414 63.1567C201.277 63.0504 201.174 62.9068 201.118 62.7433C200.991 62.346 200.932 61.9301 200.943 61.5131C200.966 60.9651 200.872 60.4185 200.669 59.9091C200.609 59.7712 200.517 59.6494 200.4 59.5537C200.284 59.458 200.147 59.391 200 59.3583C199.853 59.3255 199.701 59.3279 199.555 59.3651C199.409 59.4024 199.274 59.4735 199.161 59.5727C198.842 60.0016 198.688 60.5305 198.727 61.0632C198.698 61.5787 198.753 62.0955 198.889 62.5936C199.123 63.4127 199.59 64.146 200.233 64.7044C200.976 65.3549 201.908 65.7487 202.893 65.8273C203.028 65.8243 203.159 65.782 203.271 65.7056C203.383 65.6291 203.47 65.5219 203.521 65.3969C203.573 65.2719 203.588 65.1346 203.563 65.0016C203.538 64.8686 203.475 64.7457 203.381 64.648L202.145 63.4744C202.015 63.3462 201.84 63.2746 201.657 63.2751C201.475 63.2757 201.3 63.3484 201.171 63.4775C201.042 63.6065 200.969 63.7813 200.969 63.9638C200.968 64.1462 201.04 64.3215 201.168 64.4514L202.404 65.6249L202.893 64.4456C202.689 64.4272 202.487 64.3861 202.292 64.3229C202.081 64.2642 201.879 64.1758 201.693 64.0602C201.51 63.9601 201.339 63.8404 201.182 63.7033C201.082 63.6152 200.986 63.522 200.896 63.4241C200.863 63.3886 200.83 63.3524 200.799 63.3157C200.801 63.3183 200.669 63.1522 200.725 63.2281C200.582 63.0327 200.458 62.8243 200.354 62.6058C200.317 62.5284 200.287 62.4481 200.263 62.3657C200.22 62.2303 200.184 62.0924 200.156 61.9527C200.103 61.6593 200.088 61.3605 200.109 61.0631C200.115 60.937 200.127 60.8113 200.147 60.6865C200.164 60.6207 200.177 60.5538 200.185 60.4862C200.188 60.3185 200.162 60.5758 200.075 60.6149L199.726 60.7092C199.669 60.7046 199.614 60.6873 199.565 60.6585C199.516 60.6297 199.474 60.5902 199.442 60.5429C199.427 60.4853 199.432 60.4955 199.454 60.5736C199.48 60.6653 199.501 60.7586 199.515 60.8528C199.542 61.072 199.557 61.2923 199.561 61.513C199.566 61.9806 199.62 62.4463 199.723 62.9024C199.82 63.3606 200.059 63.7767 200.406 64.0911C200.753 64.4056 201.191 64.6025 201.657 64.6537C201.839 64.6522 202.014 64.579 202.143 64.4497C202.273 64.3205 202.346 64.1456 202.347 63.9628C202.344 63.7807 202.27 63.6072 202.141 63.4784C202.012 63.3496 201.839 63.2757 201.657 63.2721Z" fill="#2F2E41"/>
<path d="M174.199 66.1206C176.488 66.1206 178.344 64.2645 178.344 61.9748C178.344 59.6851 176.488 57.829 174.199 57.829C171.909 57.829 170.053 59.6851 170.053 61.9748C170.053 64.2645 171.909 66.1206 174.199 66.1206Z" fill="#0142EB"/>
<path d="M173.633 64.1325C173.561 64.1325 173.491 64.1158 173.427 64.0838C173.363 64.0518 173.307 64.0053 173.264 63.948L172.133 62.4399C172.096 62.3915 172.069 62.3363 172.054 62.2774C172.039 62.2186 172.035 62.1573 172.043 62.0971C172.052 62.0368 172.072 61.9789 172.103 61.9265C172.134 61.8741 172.175 61.8283 172.224 61.7918C172.272 61.7554 172.328 61.7289 172.387 61.7139C172.445 61.6989 172.507 61.6957 172.567 61.7045C172.627 61.7133 172.685 61.7339 172.737 61.7651C172.789 61.7964 172.835 61.8377 172.871 61.8865L173.611 62.8731L175.511 60.0224C175.579 59.9206 175.685 59.85 175.805 59.826C175.925 59.802 176.049 59.8266 176.151 59.8945C176.253 59.9623 176.323 60.0678 176.347 60.1877C176.371 60.3077 176.347 60.4322 176.279 60.534L174.017 63.9271C173.976 63.9885 173.921 64.0391 173.856 64.0749C173.792 64.1106 173.72 64.1303 173.646 64.1323L173.633 64.1325Z" fill="white"/>
<path d="M230.817 66.5267C230.007 66.5267 229.216 66.2867 228.543 65.8369C227.87 65.3872 227.345 64.7479 227.035 64C226.725 63.2521 226.644 62.4291 226.802 61.6351C226.96 60.8411 227.35 60.1117 227.922 59.5393C228.495 58.9669 229.224 58.577 230.018 58.4191C230.812 58.2612 231.635 58.3422 232.383 58.652C233.131 58.9618 233.77 59.4865 234.22 60.1596C234.67 60.8327 234.91 61.6241 234.91 62.4336C234.91 63.5192 234.479 64.5603 233.711 65.3279C232.943 66.0955 231.902 66.5267 230.817 66.5267Z" fill="#E6E6E6"/>
<path d="M232.245 63.2902L231.388 62.4336L232.245 61.5771C232.282 61.5397 232.313 61.4952 232.333 61.4461C232.354 61.397 232.364 61.3444 232.365 61.2911C232.365 61.2379 232.354 61.1852 232.334 61.136C232.314 61.0867 232.284 61.042 232.246 61.0044C232.209 60.9667 232.164 60.9369 232.115 60.9166C232.066 60.8963 232.013 60.8859 231.96 60.8861C231.906 60.8863 231.854 60.897 231.805 60.9176C231.756 60.9382 231.711 60.9683 231.674 61.0061L230.817 61.8626L229.961 61.0061C229.885 60.9308 229.782 60.8885 229.675 60.8887C229.568 60.8889 229.466 60.9314 229.39 61.007C229.315 61.0825 229.272 61.185 229.272 61.2919C229.272 61.3988 229.314 61.5013 229.39 61.5771L230.246 62.4336L229.39 63.2902C229.352 63.3276 229.322 63.3721 229.301 63.4212C229.28 63.4703 229.27 63.5229 229.27 63.5762C229.269 63.6294 229.28 63.6821 229.3 63.7313C229.32 63.7806 229.35 63.8253 229.388 63.8629C229.425 63.9006 229.47 63.9304 229.519 63.9507C229.569 63.971 229.621 63.9813 229.675 63.9812C229.728 63.981 229.78 63.9703 229.83 63.9497C229.879 63.9291 229.923 63.899 229.961 63.8612L230.817 63.0046L231.674 63.8612C231.711 63.8988 231.756 63.9287 231.805 63.9492C231.854 63.9696 231.906 63.9802 231.959 63.9802C232.012 63.9803 232.065 63.9699 232.114 63.9496C232.163 63.9293 232.208 63.8995 232.245 63.862C232.283 63.8244 232.313 63.7798 232.333 63.7307C232.353 63.6816 232.364 63.629 232.364 63.5759C232.364 63.5228 232.353 63.4702 232.333 63.4212C232.312 63.3721 232.282 63.3276 232.245 63.2902Z" fill="white"/>
<path d="M258.673 27.7067H16.7019C16.5422 27.7067 16.389 27.6433 16.276 27.5303C16.1631 27.4173 16.0996 27.2641 16.0996 27.1044C16.0996 26.9447 16.1631 26.7915 16.276 26.6785C16.389 26.5655 16.5422 26.5021 16.7019 26.5021H258.673C258.833 26.5021 258.986 26.5655 259.099 26.6785C259.212 26.7915 259.275 26.9447 259.275 27.1044C259.275 27.2641 259.212 27.4173 259.099 27.5303C258.986 27.6433 258.833 27.7067 258.673 27.7067Z" fill="white"/>
<path d="M43.8188 18.0696C46.3895 18.0696 48.4735 15.9392 48.4735 13.3112C48.4735 10.6832 46.3895 8.55273 43.8188 8.55273C41.248 8.55273 39.1641 10.6832 39.1641 13.3112C39.1641 15.9392 41.248 18.0696 43.8188 18.0696Z" fill="white"/>
<path d="M59.8989 18.0696C62.4696 18.0696 64.5536 15.9392 64.5536 13.3112C64.5536 10.6832 62.4696 8.55273 59.8989 8.55273C57.3281 8.55273 55.2441 10.6832 55.2441 13.3112C55.2441 15.9392 57.3281 18.0696 59.8989 18.0696Z" fill="white"/>
<path d="M75.9779 18.0696C78.5487 18.0696 80.6327 15.9392 80.6327 13.3112C80.6327 10.6832 78.5487 8.55273 75.9779 8.55273C73.4072 8.55273 71.3232 10.6832 71.3232 13.3112C71.3232 15.9392 73.4072 18.0696 75.9779 18.0696Z" fill="white"/>
<path d="M94.3133 17.0721C94.24 17.0722 94.1674 17.0576 94.0998 17.0292C94.0322 17.0007 93.971 16.959 93.9198 16.9065L90.7791 13.6959C90.6784 13.5931 90.6221 13.455 90.6221 13.3111C90.6221 13.1672 90.6784 13.029 90.7791 12.9262L93.9198 9.71583C93.9704 9.66416 94.0306 9.62295 94.0971 9.59455C94.1635 9.56616 94.2349 9.55113 94.3072 9.55033C94.3795 9.54953 94.4512 9.56298 94.5183 9.5899C94.5854 9.61682 94.6465 9.65669 94.6982 9.70723C94.7499 9.75777 94.7911 9.818 94.8195 9.88446C94.8479 9.95093 94.8629 10.0223 94.8637 10.0946C94.8645 10.1669 94.851 10.2386 94.8241 10.3057C94.7972 10.3728 94.7573 10.4339 94.7068 10.4856L91.9426 13.3111L94.7068 16.1368C94.7825 16.2143 94.8337 16.3123 94.854 16.4188C94.8742 16.5252 94.8627 16.6352 94.8206 16.7351C94.7786 16.835 94.7081 16.9202 94.6178 16.9802C94.5276 17.0401 94.4217 17.0721 94.3133 17.0721Z" fill="white"/>
<path d="M99.5914 17.0721C99.483 17.0721 99.3771 17.0401 99.2869 16.9802C99.1966 16.9202 99.1261 16.835 99.0841 16.7351C99.0421 16.6352 99.0305 16.5252 99.0507 16.4188C99.071 16.3123 99.1222 16.2143 99.198 16.1368L101.962 13.3111L99.198 10.4856C99.0959 10.3812 99.0394 10.2406 99.041 10.0946C99.0427 9.94865 99.1022 9.8093 99.2066 9.70723C99.3109 9.60516 99.4515 9.54871 99.5975 9.55033C99.7435 9.55194 99.8828 9.61148 99.9849 9.71583L103.125 12.9262C103.226 13.029 103.282 13.1672 103.282 13.3111C103.282 13.455 103.226 13.5931 103.125 13.6959L99.9849 16.9065C99.9337 16.959 99.8725 17.0007 99.8049 17.0292C99.7373 17.0576 99.6647 17.0722 99.5914 17.0721Z" fill="white"/>
<path d="M221.515 9.10364H215.675C215.517 9.10359 215.36 9.13474 215.214 9.19531C215.068 9.25587 214.935 9.34465 214.823 9.4566C214.711 9.56854 214.622 9.70145 214.561 9.84772C214.501 9.99399 214.47 10.1508 214.47 10.3091V16.1545C214.47 16.3129 214.501 16.4696 214.561 16.6159C214.622 16.7622 214.711 16.8951 214.823 17.007C214.935 17.119 215.068 17.2077 215.214 17.2683C215.36 17.3289 215.517 17.36 215.675 17.36H221.515C221.835 17.3603 222.143 17.2336 222.37 17.0076C222.597 16.7816 222.725 16.4748 222.726 16.1545V10.3091C222.725 9.98877 222.597 9.682 222.37 9.45603C222.143 9.23006 221.835 9.10333 221.515 9.10364Z" fill="white"/>
<path d="M207.205 9.10364H201.365C201.206 9.10359 201.05 9.13474 200.903 9.19531C200.757 9.25587 200.624 9.34465 200.512 9.4566C200.4 9.56854 200.311 9.70145 200.251 9.84772C200.19 9.99399 200.159 10.1508 200.159 10.3091V16.1545C200.159 16.3129 200.19 16.4696 200.251 16.6159C200.311 16.7622 200.4 16.8951 200.512 17.007C200.624 17.119 200.757 17.2077 200.903 17.2683C201.05 17.3289 201.206 17.36 201.365 17.36H207.205C207.525 17.3603 207.832 17.2336 208.059 17.0076C208.286 16.7816 208.414 16.4748 208.416 16.1545V10.3091C208.414 9.98877 208.286 9.682 208.059 9.45603C207.832 9.23006 207.525 9.10333 207.205 9.10364Z" fill="white"/>
<path d="M235 9.37891H229.161C229.002 9.37886 228.845 9.41001 228.699 9.47057C228.553 9.53114 228.42 9.61992 228.308 9.73187C228.196 9.84381 228.107 9.97672 228.047 10.123C227.986 10.2693 227.955 10.426 227.955 10.5843V16.4298C227.955 16.5881 227.986 16.7449 228.047 16.8912C228.107 17.0375 228.196 17.1704 228.308 17.2823C228.42 17.3942 228.553 17.483 228.699 17.5436C228.845 17.6042 229.002 17.6353 229.161 17.6352H235C235.321 17.6356 235.628 17.5088 235.855 17.2829C236.082 17.0569 236.21 16.7501 236.211 16.4298V10.5843C236.21 10.264 236.082 9.95727 235.855 9.7313C235.628 9.50533 235.321 9.3786 235 9.37891Z" fill="white"/>
<path d="M171.195 11.6026H124.513C124.319 11.6013 124.127 11.6384 123.948 11.7117C123.769 11.785 123.605 11.8931 123.468 12.0297C123.33 12.1663 123.221 12.3287 123.147 12.5076C123.072 12.6865 123.034 12.8784 123.034 13.0722C123.034 13.266 123.072 13.4579 123.147 13.6368C123.221 13.8157 123.33 13.9781 123.468 14.1147C123.605 14.2513 123.769 14.3594 123.948 14.4327C124.127 14.506 124.319 14.5431 124.513 14.5418H171.195C171.583 14.5393 171.954 14.3834 172.228 14.1081C172.501 13.8327 172.655 13.4603 172.655 13.0722C172.655 12.684 172.501 12.3117 172.228 12.0363C171.954 11.761 171.583 11.6051 171.195 11.6026Z" fill="white"/>
</g>
<defs>
<clipPath id="clip0_74_1959">
<rect width="280.682" height="228.28" fill="white" transform="translate(0.65918)"/>
</clipPath>
</defs>
</svg>
