<svg width="300" height="229" viewBox="0 0 354 229" fill="none" xmlns="http://www.w3.org/2000/svg">
<g clip-path="url(#clip0_74_1146)">
<path d="M26.2429 210.892C21.4519 209.569 19.4074 216.844 24.1863 218.21C28.977 219.533 31.0215 212.258 26.2429 210.892Z" fill="#3F3D56"/>
<path d="M52.8068 220.256C48.0159 218.933 45.9714 226.208 50.7503 227.574C55.541 228.897 57.5855 221.622 52.8068 220.256Z" fill="#3F3D56"/>
<path d="M63.557 143.524L63.4829 143.503L51.1426 177.006L49.5156 176.549L61.9445 142.805C61.9714 142.285 62.1754 141.79 62.5225 141.402C62.8697 141.014 63.3392 140.756 63.853 140.671C70.0244 139.696 72.526 145.174 72.526 145.174L72.5013 145.21L59.8848 179.463L58.2578 179.006L70.5031 145.761C66.7752 142.074 63.557 143.524 63.557 143.524Z" fill="#3F3D56"/>
<path d="M49.2937 222.14C42.0198 222.029 33.0247 218.098 26.8917 215.152C25.267 214.373 23.9696 213.045 23.2283 211.403C22.4871 209.761 22.3496 207.91 22.8401 206.176L30.7886 177.898C31.1433 176.644 31.7491 175.476 32.5693 174.465C33.3895 173.453 34.4068 172.618 35.5595 172.012C36.6779 171.417 37.9071 171.06 39.1701 170.962C40.4331 170.865 41.7026 171.029 42.8991 171.445C43.1829 171.573 50.9048 173.734 56.0146 175.164C59.0206 176.005 61.1925 176.613 61.3379 176.662C61.4582 176.702 66.8603 178.558 65.9016 185.084C65.1653 190.097 59.6082 208.568 57.253 216.276C56.7413 217.961 55.705 219.439 54.2951 220.493C52.8852 221.548 51.1753 222.125 49.4146 222.141C49.3746 222.141 49.3339 222.14 49.2937 222.14Z" fill="#0142EB"/>
<path d="M26.7151 210.487L37.02 175.608L61.2526 182.456L61.3974 181.944L36.6585 174.952L36.584 175.204L26.2046 210.336L26.7151 210.487Z" fill="#3F3D56"/>
<path d="M354 5.82025H141.735V106.544H354V5.82025Z" fill="#E5E5E5"/>
<path d="M348.183 14.4574H148.057V98.4941H348.183V14.4574Z" fill="white"/>
<path d="M353.91 0.000915527H141.645V9.01856H353.91V0.000915527Z" fill="#0142EB"/>
<path d="M148.346 6.16443C149.269 6.16443 150.018 5.41612 150.018 4.49304C150.018 3.56996 149.269 2.82166 148.346 2.82166C147.423 2.82166 146.675 3.56996 146.675 4.49304C146.675 5.41612 147.423 6.16443 148.346 6.16443Z" fill="white"/>
<path d="M154.69 6.16443C155.614 6.16443 156.362 5.41612 156.362 4.49304C156.362 3.56996 155.614 2.82166 154.69 2.82166C153.767 2.82166 153.019 3.56996 153.019 4.49304C153.019 5.41612 153.767 6.16443 154.69 6.16443Z" fill="white"/>
<path d="M161.035 6.16443C161.958 6.16443 162.706 5.41612 162.706 4.49304C162.706 3.56996 161.958 2.82166 161.035 2.82166C160.112 2.82166 159.363 3.56996 159.363 4.49304C159.363 5.41612 160.112 6.16443 161.035 6.16443Z" fill="white"/>
<path d="M242.524 55.3097C242.529 59.1118 241.851 62.8838 240.523 66.4463C239.919 68.078 239.179 69.6558 238.31 71.163C235.517 76.0373 231.486 80.0877 226.625 82.9046C221.764 85.7214 216.246 87.2048 210.628 87.2048C205.01 87.2048 199.491 85.7214 194.63 82.9046C189.769 80.0877 185.738 76.0373 182.945 71.163C182.662 70.6728 182.394 70.1752 182.14 69.6703C179.972 65.3693 178.806 60.6331 178.73 55.8171C178.653 51.0011 179.668 46.2303 181.699 41.8626C183.73 37.4949 186.723 33.6438 190.454 30.5981C194.186 27.5525 198.558 25.3914 203.244 24.2769C207.93 23.1625 212.808 23.1237 217.511 24.1635C222.214 25.2032 226.621 27.2945 230.4 30.2804C234.179 33.2663 237.234 37.0693 239.333 41.4042C241.433 45.739 242.524 50.493 242.524 55.3097Z" fill="#F1F1F1"/>
<path d="M212.286 60.6945C215.654 60.6945 218.385 57.9644 218.385 54.5965C218.385 51.2287 215.654 48.4985 212.286 48.4985C208.919 48.4985 206.188 51.2287 206.188 54.5965C206.188 57.9644 208.919 60.6945 212.286 60.6945Z" fill="#0142EB"/>
<path d="M182.14 69.6704C184.827 66.7668 188.419 62.1569 191.787 65.4879C193.478 67.059 196.124 70.9525 198.656 68.4071L218.435 48.629C218.807 48.2614 219.249 47.9719 219.735 47.7776C220.221 47.5832 220.74 47.488 221.263 47.4973C221.787 47.5067 222.303 47.6205 222.781 47.8321C223.26 48.0438 223.691 48.3489 224.05 48.7296L240.522 66.4463C239.919 68.078 239.179 69.6558 238.31 71.163H182.945L182.14 69.6704Z" fill="white"/>
<path d="M307.659 49.0605C307.441 49.0605 307.231 49.1474 307.077 49.3019C306.922 49.4564 306.835 49.666 306.835 49.8846C306.835 50.1031 306.922 50.3127 307.077 50.4673C307.231 50.6218 307.441 50.7086 307.659 50.7086H316.307C316.525 50.7086 316.735 50.6218 316.889 50.4673C317.044 50.3127 317.131 50.1031 317.131 49.8846C317.131 49.666 317.044 49.4564 316.889 49.3019C316.735 49.1474 316.525 49.0605 316.307 49.0605H307.659Z" fill="#0142EB"/>
<path d="M268.702 36.9573C268.594 36.957 268.487 36.9782 268.386 37.0195C268.286 37.0608 268.195 37.1215 268.118 37.198C268.042 37.2745 267.981 37.3655 267.939 37.4656C267.898 37.5656 267.876 37.6729 267.876 37.7813C267.876 37.8897 267.898 37.997 267.939 38.0971C267.981 38.1972 268.042 38.2881 268.118 38.3646C268.195 38.4412 268.286 38.5018 268.386 38.5431C268.487 38.5844 268.594 38.6056 268.702 38.6053H316.685C316.903 38.6049 317.113 38.5179 317.267 38.3634C317.421 38.2089 317.507 37.9996 317.507 37.7813C317.507 37.5631 317.421 37.3537 317.267 37.1993C317.113 37.0448 316.903 36.9577 316.685 36.9573H268.702Z" fill="#E5E5E5"/>
<path d="M268.702 43.0089C268.594 43.0087 268.487 43.0298 268.386 43.0711C268.286 43.1124 268.195 43.1731 268.118 43.2496C268.042 43.3262 267.981 43.4171 267.939 43.5172C267.898 43.6173 267.876 43.7246 267.876 43.8329C267.876 43.9413 267.898 44.0486 267.939 44.1487C267.981 44.2488 268.042 44.3397 268.118 44.4163C268.195 44.4928 268.286 44.5535 268.386 44.5948C268.487 44.6361 268.594 44.6572 268.702 44.657H316.685C316.903 44.6565 317.113 44.5695 317.267 44.415C317.421 44.2605 317.507 44.0512 317.507 43.8329C317.507 43.6147 317.421 43.4054 317.267 43.2509C317.113 43.0964 316.903 43.0094 316.685 43.0089H268.702Z" fill="#E5E5E5"/>
<path d="M307.66 87.892C307.442 87.8924 307.233 87.9795 307.079 88.1339C306.924 88.2884 306.838 88.4978 306.838 88.716C306.838 88.9342 306.924 89.1436 307.079 89.2981C307.233 89.4525 307.442 89.5396 307.66 89.54H316.307C316.416 89.5403 316.523 89.5191 316.623 89.4778C316.723 89.4365 316.814 89.3758 316.891 89.2993C316.968 89.2228 317.029 89.1318 317.07 89.0318C317.112 88.9317 317.133 88.8244 317.133 88.716C317.133 88.6076 317.112 88.5003 317.07 88.4002C317.029 88.3002 316.968 88.2092 316.891 88.1327C316.814 88.0561 316.723 87.9955 316.623 87.9542C316.523 87.9129 316.416 87.8917 316.307 87.892H307.66Z" fill="#0142EB"/>
<path d="M268.702 75.7888C268.483 75.7888 268.274 75.8756 268.119 76.0302C267.965 76.1847 267.878 76.3943 267.878 76.6129C267.878 76.8314 267.965 77.041 268.119 77.1955C268.274 77.3501 268.483 77.4369 268.702 77.4369H316.685C316.903 77.4369 317.113 77.3501 317.268 77.1955C317.422 77.041 317.509 76.8314 317.509 76.6129C317.509 76.3943 317.422 76.1847 317.268 76.0302C317.113 75.8756 316.903 75.7888 316.685 75.7888H268.702Z" fill="#E5E5E5"/>
<path d="M268.702 81.8403C268.594 81.8401 268.487 81.8612 268.386 81.9026C268.286 81.9439 268.195 82.0045 268.118 82.0811C268.042 82.1576 267.981 82.2485 267.939 82.3486C267.898 82.4487 267.876 82.556 267.876 82.6644C267.876 82.7727 267.898 82.88 267.939 82.9801C267.981 83.0802 268.042 83.1711 268.118 83.2477C268.195 83.3242 268.286 83.3849 268.386 83.4262C268.487 83.4675 268.594 83.4886 268.702 83.4884H316.685C316.904 83.4884 317.113 83.4016 317.268 83.247C317.422 83.0925 317.509 82.8829 317.509 82.6644C317.509 82.4458 317.422 82.2362 317.268 82.0817C317.113 81.9272 316.904 81.8403 316.685 81.8403H268.702Z" fill="#E5E5E5"/>
<path d="M297.506 27.7244H294.907L292.677 24.5282H291.733L292.853 27.7244H290.311L289.268 26.681H288.385L288.825 28.6114L288.385 30.2988H289.268L290.311 29.2554L290.327 29.2278H292.883L291.733 32.5083H292.677L294.916 29.2989L294.943 29.2278H297.506C297.705 29.2278 297.896 29.1486 298.037 29.0077C298.178 28.8667 298.258 28.6755 298.258 28.4761C298.258 28.2768 298.178 28.0856 298.037 27.9446C297.896 27.8036 297.705 27.7244 297.506 27.7244Z" fill="#E5E5E5"/>
<path d="M295.303 69.4291H291.197C290.829 69.4287 290.477 69.2824 290.217 69.0224C289.957 68.7624 289.81 68.4099 289.81 68.0422V64.3072C289.809 64.0588 289.889 63.8169 290.039 63.6191C290.19 63.4212 290.401 63.2784 290.64 63.2129C292.347 62.7608 294.143 62.7621 295.849 63.2166C296.091 63.2806 296.305 63.4232 296.457 63.6218C296.609 63.8205 296.691 64.064 296.69 64.3142V68.0422C296.689 68.4099 296.543 68.7624 296.283 69.0224C296.023 69.2824 295.67 69.4287 295.303 69.4291Z" fill="#E5E5E5"/>
<path d="M295.901 64.4429H290.599V66.4311H295.901V64.4429Z" fill="white"/>
<path d="M291.262 68.4193C291.628 68.4193 291.925 68.1226 291.925 67.7566C291.925 67.3906 291.628 67.0939 291.262 67.0939C290.896 67.0939 290.599 67.3906 290.599 67.7566C290.599 68.1226 290.896 68.4193 291.262 68.4193Z" fill="white"/>
<path d="M295.238 68.4193C295.604 68.4193 295.901 68.1226 295.901 67.7566C295.901 67.3906 295.604 67.0939 295.238 67.0939C294.872 67.0939 294.576 67.3906 294.576 67.7566C294.576 68.1226 294.872 68.4193 295.238 68.4193Z" fill="white"/>
<path d="M296.413 71.3202H290.015L291.528 70.0594H294.9L296.413 71.3202ZM291.01 70.96H295.418L294.77 70.4197H291.658L291.01 70.96Z" fill="#E5E5E5"/>
<path d="M296.745 69.6811H289.684C289.584 69.6811 289.488 69.6413 289.417 69.5704C289.346 69.4994 289.306 69.4032 289.306 69.3029C289.306 69.2026 289.346 69.1064 289.417 69.0355C289.488 68.9645 289.584 68.9247 289.684 68.9247H296.745C296.845 68.9247 296.941 68.9645 297.012 69.0355C297.083 69.1064 297.123 69.2026 297.123 69.3029C297.123 69.4032 297.083 69.4994 297.012 69.5704C296.941 69.6413 296.845 69.6811 296.745 69.6811Z" fill="#E5E5E5"/>
<path d="M69.6022 146.355C69.8249 145.901 69.9454 145.405 69.9553 144.9C69.9652 144.395 69.8642 143.894 69.6595 143.432C69.4548 142.97 69.1513 142.559 68.7705 142.227C68.3896 141.895 67.9406 141.651 67.4552 141.511L66.7909 129.251L61.6621 133.046L63.0792 144.107C62.8988 144.938 63.0296 145.807 63.4467 146.548C63.8639 147.289 64.5384 147.851 65.3424 148.128C66.1465 148.406 67.0242 148.378 67.8093 148.051C68.5944 147.724 69.2324 147.121 69.6022 146.355Z" fill="#FFB7B7"/>
<path d="M109.335 148.636C109.046 148.223 108.85 147.75 108.762 147.253C108.675 146.755 108.697 146.245 108.828 145.757C108.959 145.269 109.196 144.816 109.521 144.429C109.846 144.043 110.252 143.732 110.71 143.52L109.476 131.303L115.129 134.263L115.434 145.41C115.74 146.203 115.745 147.081 115.447 147.878C115.149 148.675 114.57 149.334 113.818 149.732C113.066 150.13 112.195 150.238 111.368 150.036C110.542 149.834 109.819 149.336 109.335 148.636Z" fill="#FFB7B7"/>
<path d="M79.1692 223.74L83.2075 223.74L85.1291 208.163H79.1685L79.1692 223.74Z" fill="#FFB7B7"/>
<path d="M78.1387 222.422L86.0922 222.421C87.4365 222.421 88.7259 222.955 89.6765 223.906C90.627 224.856 91.1611 226.146 91.1612 227.49V227.655L78.1389 227.655L78.1387 222.422Z" fill="#2F2E41"/>
<path d="M99.5664 221.315L103.515 222.161L108.658 207.332L102.83 206.083L99.5664 221.315Z" fill="#FFB7B7"/>
<path d="M98.8352 219.809L106.612 221.476C107.927 221.758 109.076 222.55 109.806 223.678C110.536 224.807 110.788 226.18 110.506 227.494L110.472 227.655L97.7388 224.927L98.8352 219.809Z" fill="#2F2E41"/>
<path d="M71.8879 134.594C71.8879 134.594 67.5912 147.873 71.7991 162.89L76.082 180.878L77.1449 220.68L85.8177 217.896L89.3511 157.186L105.626 184.811L97.0603 217.896L106.911 218.217L117.548 182.437L108.196 149.049L106.483 140.911L71.8879 134.594Z" fill="#2F2E41"/>
<path d="M107.001 90.4934L98.3747 85.5763L83.4509 84.7136L73.0991 90.1483L77.3059 119.01C77.3059 119.01 69.2824 130.525 72.2077 138.198C75.8183 147.667 107.39 152.608 106.773 143.366C105.798 128.782 104.293 129.788 103.19 122.636C101.979 114.789 110.452 104.727 110.452 104.727L107.001 90.4934Z" fill="#CBCBCB"/>
<path d="M76.2904 92.9951L75.3288 88.8276C75.3288 88.8276 71.2264 89.3587 68.3834 97.2996C65.5404 105.241 60.4867 121.98 60.4867 121.98L60.7506 128.062C60.7506 128.062 58.803 130.312 60.1468 131.34C61.4905 132.367 57.7194 133.761 59.6292 135.222C60.4677 135.864 61.1026 136.735 61.4577 137.73C61.8127 138.724 61.8727 139.801 61.6305 140.829L67.4965 139.017L67.0652 129.442L69.3892 121.894L75.6003 103.002L76.2904 92.9951Z" fill="#CBCBCB"/>
<path d="M103.843 93.7055L105.149 89.6639C105.149 89.6639 107.556 88.6791 109.332 94.2284C111.108 99.7777 111.952 113.821 111.952 113.821L115.402 130.56C115.402 130.56 116.691 132.692 116.006 133.303C115.32 133.914 119.017 134.773 116.869 135.905C114.72 137.037 117.054 135.662 116.251 138.243C115.724 139.938 116.265 140.829 116.265 140.829L109.622 139.492L107.811 130.912L103.702 114.958L103.843 93.7055Z" fill="#CBCBCB"/>
<path d="M90.9449 81.0843C97.272 81.0843 102.401 75.9552 102.401 69.6281C102.401 63.3011 97.272 58.172 90.9449 58.172C84.6179 58.172 79.4888 63.3011 79.4888 69.6281C79.4888 75.9552 84.6179 81.0843 90.9449 81.0843Z" fill="#2F2E41"/>
<path d="M89.7685 62.4988C87.3033 59.999 84.3202 58.0699 81.029 56.8474C78.9164 56.0647 76.617 55.5812 74.4083 56.0256C72.1996 56.4701 70.1109 57.998 69.4948 60.165C68.9909 61.937 69.5112 63.8449 70.2931 65.513C71.075 67.1811 72.119 68.7279 72.7513 70.4582C73.3965 72.2237 73.5905 74.1225 73.3158 75.982C73.041 77.8415 72.3062 79.603 71.178 81.1065C70.0498 82.61 68.564 83.808 66.8554 84.5916C65.1468 85.3752 63.2695 85.7197 61.394 85.5938C63.5641 85.8848 65.5645 86.9046 67.6857 87.4474C69.8068 87.9902 72.3104 87.9534 73.8867 86.4338C75.5545 84.826 75.5879 82.2118 75.5073 79.8966C75.3874 76.455 75.2675 73.0134 75.1476 69.5718C75.0865 67.8166 75.0343 66.0052 75.6673 64.367C76.3003 62.7288 77.8045 61.2943 79.5607 61.3092C80.8917 61.3205 82.0698 62.1268 83.1371 62.922C84.2046 63.7172 85.3343 64.5656 86.6601 64.6838C87.9858 64.8021 89.4996 63.821 89.4004 62.4937L89.7685 62.4988Z" fill="#2F2E41"/>
<path d="M99.497 77.884C101.731 73.7973 100.229 68.6734 96.1424 66.4394C92.0557 64.2054 86.9318 65.7073 84.6978 69.794C82.4638 73.8807 83.9658 79.0046 88.0524 81.2386C92.1391 83.4726 97.263 81.9707 99.497 77.884Z" fill="#FFB7B7"/>
<path d="M103.957 73.2013H91.7802L91.6553 71.4531L91.0309 73.2013H89.1559L88.9085 69.7363L87.671 73.2013H84.043V73.0297C84.0457 70.6174 85.0052 68.3046 86.7109 66.5989C88.4167 64.8931 90.7294 63.9336 93.1417 63.9309H94.8585C97.2708 63.9336 99.5836 64.8931 101.289 66.5989C102.995 68.3046 103.955 70.6174 103.957 73.0297V73.2013Z" fill="#2F2E41"/>
<path d="M85.8826 79.4855L81.4359 75.034L80.686 65.1798H90.5015L90.2585 65.4224C86.8775 68.7991 83.2273 73.7544 85.8826 79.4855Z" fill="#2F2E41"/>
<path d="M144.443 228.279H0.378609C0.278325 228.279 0.182148 228.239 0.111237 228.168C0.0403256 228.097 0.000488281 228.001 0.000488281 227.901C0.000488281 227.801 0.0403256 227.704 0.111237 227.634C0.182148 227.563 0.278325 227.523 0.378609 227.523H144.443C144.543 227.523 144.639 227.563 144.71 227.634C144.781 227.704 144.821 227.801 144.821 227.901C144.821 228.001 144.781 228.097 144.71 228.168C144.639 228.239 144.543 228.279 144.443 228.279Z" fill="#CBCBCB"/>
</g>
<defs>
<clipPath id="clip0_74_1146">
<rect width="354" height="228.278" fill="white" transform="translate(0 0.000915527)"/>
</clipPath>
</defs>
</svg>
