<svg width="300" height="229" viewBox="0 0 324 229" fill="none" xmlns="http://www.w3.org/2000/svg">
<g clip-path="url(#clip0_74_2074)">
<path d="M165.473 227.796C175.216 227.796 183.114 219.898 183.114 210.155C183.114 200.413 175.216 192.515 165.473 192.515C155.73 192.515 147.832 200.413 147.832 210.155C147.832 219.898 155.73 227.796 165.473 227.796Z" fill="#0142EB"/>
<path d="M270.859 226.805C280.728 223.841 291.221 220.751 299.047 213.704C306.042 207.408 310.763 197.794 307.866 188.351C304.974 178.928 296.313 172.645 287.371 169.519C282.3 167.747 276.994 166.764 271.69 165.991C265.924 165.151 260.132 164.463 254.344 163.801C230.905 161.121 207.379 159.483 183.764 158.888C172.112 158.595 160.461 158.602 148.807 158.771C138.4 158.922 127.438 158.918 117.783 154.495C110.275 151.055 103.46 144.797 101.368 136.573C98.9533 127.08 103.408 117.412 109.797 110.537C113.166 106.913 117.102 103.862 121.163 101.058C125.568 98.0149 130.127 95.1876 134.785 92.5485C143.958 87.3532 153.549 82.9317 163.458 79.33C168.345 77.5527 173.306 76.0194 178.309 74.6048C182.534 73.4103 186.772 72.2142 190.856 70.5867C198.749 67.4407 206.257 62.1116 208.264 53.3749C210.167 45.0947 206.959 36.1059 201.337 29.9547C194.831 22.8381 185.023 19.7185 175.619 19.2137C165.062 18.647 154.749 21.2892 144.826 24.6424C134.243 28.2189 123.888 32.3312 113.081 35.2281C102.364 38.098 91.4406 40.1285 80.4087 41.3014C75.0082 41.8764 69.4445 42.5258 64.0118 42.0855C59.4588 41.7166 54.929 40.3775 51.5735 37.1462C48.6963 34.3756 46.9824 30.5678 47.5716 26.5493C47.6787 25.8195 48.7874 26.1298 48.681 26.8552C47.9637 31.7467 51.2888 36.2541 55.3861 38.563C60.1216 41.2315 65.8839 41.2352 71.1561 40.93C82.5877 40.2395 93.9419 38.5982 105.101 36.0229C116.066 33.5185 126.64 29.9382 137.201 26.1137C147.232 22.4815 157.487 18.9363 168.203 18.1496C177.501 17.4669 187.282 18.8216 195.383 23.6808C202.502 27.9514 207.737 35.0734 209.405 43.246C211.035 51.2322 208.778 59.2704 202.732 64.8434C196.473 70.6136 187.891 73.0805 179.893 75.3526C169.748 78.2343 159.822 81.6028 150.213 85.9766C140.474 90.3974 131.133 95.6487 122.295 101.672C113.763 107.502 105.344 114.838 102.646 125.239C101.389 130.083 101.621 135.222 103.724 139.798C105.594 143.867 108.673 147.289 112.261 149.929C120.821 156.228 131.609 157.521 141.949 157.65C153.562 157.794 165.175 157.402 176.792 157.593C200.466 157.982 224.091 159.423 247.669 161.916C253.576 162.541 259.477 163.233 265.37 163.99C270.67 164.671 275.989 165.347 281.2 166.557C290.466 168.708 299.483 172.843 305.242 180.699C307.798 184.105 309.382 188.14 309.824 192.375C310.227 196.795 309.145 201.222 307.147 205.154C302.724 213.855 294.44 219.39 285.643 223.026C280.931 224.974 276.043 226.45 271.165 227.915C270.455 228.128 270.151 227.018 270.859 226.805Z" fill="#F2F2F2"/>
<path d="M48.3142 35.8569C53.3974 35.8569 57.5181 31.7362 57.5181 26.653C57.5181 21.5698 53.3974 17.4491 48.3142 17.4491C43.2311 17.4491 39.1104 21.5698 39.1104 26.653C39.1104 31.7362 43.2311 35.8569 48.3142 35.8569Z" fill="#F2F2F2"/>
<path d="M112.167 53.3058C117.25 53.3058 121.371 49.1851 121.371 44.102C121.371 39.0188 117.25 34.8981 112.167 34.8981C107.084 34.8981 102.963 39.0188 102.963 44.102C102.963 49.1851 107.084 53.3058 112.167 53.3058Z" fill="#F2F2F2"/>
<path d="M166.239 18.4078C171.322 18.4078 175.443 14.2871 175.443 9.20395C175.443 4.12078 171.322 6.10352e-05 166.239 6.10352e-05C161.156 6.10352e-05 157.035 4.12078 157.035 9.20395C157.035 14.2871 161.156 18.4078 166.239 18.4078Z" fill="#F2F2F2"/>
<path d="M199.987 57.5244C205.07 57.5244 209.191 53.4036 209.191 48.3205C209.191 43.2373 205.07 39.1166 199.987 39.1166C194.904 39.1166 190.783 43.2373 190.783 48.3205C190.783 53.4036 194.904 57.5244 199.987 57.5244Z" fill="#F2F2F2"/>
<path d="M154.351 102.777C159.435 102.777 163.555 98.6561 163.555 93.5729C163.555 88.4897 159.435 84.369 154.351 84.369C149.268 84.369 145.147 88.4897 145.147 93.5729C145.147 98.6561 149.268 102.777 154.351 102.777Z" fill="#F2F2F2"/>
<path d="M96.4431 124.636C101.526 124.636 105.647 120.515 105.647 115.432C105.647 110.349 101.526 106.228 96.4431 106.228C91.36 106.228 87.2393 110.349 87.2393 115.432C87.2393 120.515 91.36 124.636 96.4431 124.636Z" fill="#F2F2F2"/>
<path d="M157.803 158.767C162.886 158.767 167.006 154.646 167.006 149.563C167.006 144.48 162.886 140.359 157.803 140.359C152.719 140.359 148.599 144.48 148.599 149.563C148.599 154.646 152.719 158.767 157.803 158.767Z" fill="#F2F2F2"/>
<path d="M223.763 177.942C228.847 177.942 232.967 173.821 232.967 168.738C232.967 163.655 228.847 159.534 223.763 159.534C218.68 159.534 214.56 163.655 214.56 168.738C214.56 173.821 218.68 177.942 223.763 177.942Z" fill="#F2F2F2"/>
<path d="M300.846 173.723C305.93 173.723 310.05 169.603 310.05 164.519C310.05 159.436 305.93 155.316 300.846 155.316C295.763 155.316 291.643 159.436 291.643 164.519C291.643 169.603 295.763 173.723 300.846 173.723Z" fill="#F2F2F2"/>
<path d="M163.583 26.079C136.013 26.2737 113.439 48.6783 113.047 76.2464C113.043 76.5009 113.042 78.2906 113.042 80.6314C113.042 84.0635 114.406 87.3549 116.832 89.7819C119.259 92.2088 122.551 93.5724 125.983 93.5728C127.684 93.5724 129.369 93.2368 130.94 92.5852C132.512 91.9335 133.939 90.9785 135.142 89.7749C136.344 88.5712 137.298 87.1424 137.948 85.5701C138.598 83.9978 138.931 82.3129 138.93 80.6115C138.929 79.0192 138.928 77.9172 138.928 77.8495C138.927 73.5889 140.035 69.4014 142.143 65.699C144.252 61.9966 147.288 58.9068 150.952 56.7336C154.617 54.5603 158.784 53.3785 163.044 53.3043C167.304 53.2301 171.51 54.2661 175.248 56.3104C178.986 58.3548 182.128 61.337 184.364 64.9637C186.6 68.5905 187.853 72.7368 188.001 76.9949C188.148 81.2529 187.185 85.476 185.205 89.2488C183.225 93.0215 180.298 96.214 176.71 98.512L176.714 98.5175C176.714 98.5175 158.296 110.375 152.68 126.641L152.685 126.642C151.698 129.975 151.197 133.432 151.2 136.908C151.2 138.336 151.284 150.837 151.446 160.983C151.503 164.483 152.934 167.822 155.43 170.277C157.926 172.732 161.287 174.108 164.788 174.107C166.547 174.107 168.289 173.759 169.913 173.083C171.538 172.407 173.012 171.417 174.252 170.169C175.492 168.921 176.474 167.441 177.139 165.812C177.805 164.184 178.142 162.44 178.131 160.68C178.075 151.389 178.044 140.569 178.044 139.784C178.044 129.796 187.68 119.844 195.594 113.354C204.709 105.881 211.267 95.6973 213.901 84.2092C214.484 81.844 214.806 79.422 214.86 76.9866C214.86 70.2702 213.531 63.6202 210.949 57.4197C208.368 51.2192 204.585 45.5908 199.819 40.8588C195.052 36.1267 189.397 32.3846 183.178 29.848C176.959 27.3114 170.299 26.0304 163.583 26.079Z" fill="#0142EB"/>
<path d="M323.508 228.28H0.492411C0.371536 228.28 0.255735 228.231 0.170387 228.146C0.0850395 228.06 0.0371094 227.944 0.0371094 227.823C0.0371094 227.702 0.0850395 227.587 0.170387 227.501C0.255735 227.415 0.371536 227.367 0.492411 227.367H323.508C323.629 227.367 323.745 227.415 323.831 227.5C323.917 227.586 323.965 227.702 323.965 227.823C323.965 227.944 323.917 228.061 323.831 228.146C323.745 228.232 323.629 228.28 323.508 228.28Z" fill="#3F3D56"/>
<path d="M241.043 104.693C247.397 104.693 252.548 99.5417 252.548 93.1877C252.548 86.8338 247.397 81.6829 241.043 81.6829C234.689 81.6829 229.538 86.8338 229.538 93.1877C229.538 99.5417 234.689 104.693 241.043 104.693Z" fill="#2F2E41"/>
<path d="M219.783 223.244H215.082L212.845 205.109H219.784L219.783 223.244Z" fill="#A0616A"/>
<path d="M211.723 221.9H220.79V227.609H206.014C206.014 226.86 206.161 226.117 206.448 225.425C206.735 224.732 207.156 224.103 207.686 223.572C208.216 223.042 208.845 222.622 209.538 222.335C210.231 222.048 210.973 221.9 211.723 221.9Z" fill="#2F2E41"/>
<path d="M256.215 223.244H251.513L249.276 205.109H256.216L256.215 223.244Z" fill="#A0616A"/>
<path d="M248.155 221.9H257.223V227.609H242.446C242.446 226.86 242.594 226.117 242.881 225.425C243.168 224.732 243.588 224.103 244.118 223.572C244.649 223.042 245.278 222.622 245.971 222.335C246.663 222.048 247.406 221.9 248.155 221.9Z" fill="#2F2E41"/>
<path d="M239.294 104.76C244.496 104.76 248.713 100.543 248.713 95.3408C248.713 90.1388 244.496 85.9218 239.294 85.9218C234.092 85.9218 229.875 90.1388 229.875 95.3408C229.875 100.543 234.092 104.76 239.294 104.76Z" fill="#A0616A"/>
<path d="M244.908 135.146L249.123 125.463C250.146 123.191 250.44 120.658 249.962 118.213C249.485 115.767 248.26 113.53 246.458 111.81C246.087 111.444 245.694 111.102 245.28 110.786C243.201 109.16 240.638 108.273 237.998 108.267C236.222 108.274 234.47 108.664 232.859 109.41C232.721 109.471 232.587 109.536 232.448 109.601C232.184 109.728 231.923 109.866 231.67 110.008C230.019 110.956 228.614 112.279 227.568 113.869C226.522 115.46 225.865 117.274 225.649 119.166L223.789 134.751C223.321 135.974 206.631 180.153 212.468 213.881C212.53 214.242 212.706 214.573 212.97 214.826C213.233 215.079 213.571 215.241 213.933 215.289L219.851 216.094C220.283 216.153 220.721 216.047 221.078 215.795C221.434 215.544 221.682 215.167 221.772 214.74L231.701 167.413C231.762 167.119 231.921 166.854 232.151 166.661C232.381 166.468 232.67 166.357 232.97 166.347C233.27 166.337 233.565 166.428 233.808 166.605C234.051 166.782 234.227 167.036 234.308 167.325L248.337 217.095C248.437 217.457 248.652 217.776 248.951 218.003C249.249 218.23 249.614 218.353 249.99 218.353C250.101 218.352 250.213 218.342 250.323 218.322L257.552 216.93C257.972 216.852 258.348 216.619 258.606 216.278C258.863 215.936 258.984 215.511 258.944 215.086C257.882 203.239 252.237 143.901 244.908 135.146Z" fill="#2F2E41"/>
<path d="M202.689 103.179C202.624 103.739 202.682 104.307 202.86 104.842C203.037 105.377 203.33 105.866 203.717 106.276C204.105 106.686 204.577 107.005 205.102 107.213C205.626 107.42 206.189 107.51 206.752 107.476L212.017 120.128L216 114.225L210.389 103.115C210.269 102.173 209.808 101.308 209.094 100.684C208.379 100.059 207.46 99.7189 206.51 99.7268C205.561 99.7348 204.648 100.091 203.944 100.727C203.239 101.363 202.793 102.236 202.689 103.179Z" fill="#A0616A"/>
<path d="M238.771 147.886C239.331 147.819 239.87 147.63 240.348 147.333C240.827 147.035 241.235 146.636 241.543 146.164C241.851 145.692 242.052 145.158 242.132 144.6C242.211 144.042 242.167 143.473 242.003 142.934L253.08 134.866L246.411 132.368L236.914 140.413C236.027 140.749 235.293 141.398 234.852 142.239C234.412 143.08 234.295 144.053 234.524 144.974C234.753 145.895 235.311 146.7 236.094 147.237C236.877 147.774 237.83 148.005 238.771 147.886Z" fill="#A0616A"/>
<path d="M220.714 128.563C220.289 128.563 219.866 128.521 219.449 128.439C218.441 128.247 217.497 127.81 216.698 127.167C215.899 126.524 215.27 125.694 214.867 124.751L207.491 115.757C207.335 115.567 207.222 115.345 207.158 115.108C207.095 114.87 207.083 114.622 207.123 114.379C207.163 114.136 207.255 113.905 207.392 113.701C207.529 113.497 207.708 113.324 207.917 113.195L213.165 109.946C213.359 109.826 213.574 109.746 213.799 109.71C214.024 109.673 214.254 109.682 214.476 109.735C214.697 109.788 214.906 109.885 215.09 110.019C215.275 110.154 215.43 110.323 215.548 110.518L220.747 119.083L230.703 111.725C231.496 111.309 232.412 111.193 233.283 111.396C234.155 111.6 234.924 112.111 235.45 112.835C235.977 113.559 236.225 114.448 236.15 115.34C236.074 116.232 235.681 117.067 235.041 117.693L225.104 126.757C223.936 127.915 222.358 128.564 220.714 128.563Z" fill="#2F2E41"/>
<path d="M247.616 142.09C247.603 142.09 247.589 142.09 247.576 142.09C247.334 142.084 247.095 142.027 246.877 141.924C246.658 141.82 246.464 141.671 246.306 141.488L241.64 136.045C241.481 135.859 241.363 135.642 241.295 135.408C241.226 135.174 241.207 134.928 241.241 134.686C241.274 134.444 241.358 134.212 241.488 134.005C241.618 133.798 241.79 133.621 241.993 133.486L250.73 127.661L242.815 118.146C242.355 117.378 242.186 116.471 242.339 115.589C242.493 114.707 242.958 113.91 243.651 113.343C244.344 112.776 245.217 112.477 246.112 112.501C247.007 112.525 247.863 112.871 248.524 113.474L258.144 122.874C258.901 123.566 259.479 124.431 259.828 125.395C260.177 126.359 260.287 127.394 260.148 128.41C260.01 129.426 259.627 130.393 259.032 131.228C258.437 132.064 257.649 132.742 256.734 133.206L248.872 141.548C248.711 141.719 248.516 141.856 248.3 141.949C248.084 142.042 247.851 142.09 247.616 142.09Z" fill="#2F2E41"/>
<path d="M236.9 122.034C236.825 122.034 236.75 122.029 236.676 122.02C236.351 121.98 236.044 121.848 235.792 121.64C235.54 121.431 235.353 121.154 235.253 120.843L231.747 110.094C231.659 109.822 231.672 109.527 231.785 109.265C231.897 109.002 232.101 108.789 232.358 108.665L232.472 108.611C232.575 108.562 232.677 108.514 232.781 108.467C234.416 107.709 236.196 107.314 237.998 107.308C240.338 107.312 242.625 108 244.579 109.286C244.841 109.46 245.025 109.73 245.089 110.038C245.154 110.346 245.095 110.668 244.925 110.933L238.348 121.236C238.194 121.481 237.98 121.682 237.727 121.822C237.473 121.961 237.189 122.034 236.9 122.034Z" fill="#E6E6E6"/>
<path d="M250.113 88.0516C252.192 88.0516 253.878 86.3661 253.878 84.287C253.878 82.2078 252.192 80.5223 250.113 80.5223C248.034 80.5223 246.349 82.2078 246.349 84.287C246.349 86.3661 248.034 88.0516 250.113 88.0516Z" fill="#2F2E41"/>
<path d="M237.208 80.1489C234.564 80.1489 232.028 81.1994 230.158 83.0693C228.288 84.9392 227.237 87.4753 227.237 90.1198V94.3383H232.426L234.907 90.1198L235.652 94.3383H251.398L247.179 90.1198C247.179 87.4753 246.129 84.9392 244.259 83.0693C242.389 81.1994 239.853 80.1489 237.208 80.1489Z" fill="#2F2E41"/>
<path d="M252.048 81.7084C252.464 80.4066 253.326 79.2933 254.482 78.5641C255.638 77.835 257.014 77.5367 258.368 77.7217C260.767 78.1228 262.664 80.0513 263.794 82.2052C264.925 84.3591 265.447 86.7697 266.206 89.0804C266.966 91.3912 268.044 93.7145 269.962 95.2102C271.88 96.706 274.824 97.1118 276.707 95.573C276.492 97.1767 275.778 98.672 274.667 99.8477C273.555 101.023 272.102 101.82 270.513 102.124C268.924 102.429 267.279 102.226 265.812 101.544C264.344 100.863 263.128 99.7375 262.335 98.327C261.341 96.5584 261.085 94.4856 260.79 92.4783C260.495 90.4711 260.112 88.3942 258.925 86.7488C257.738 85.1033 255.517 84.0286 253.632 84.7781L252.048 81.7084Z" fill="#2F2E41"/>
<path d="M129.636 87.4516C126.204 87.4512 122.913 86.0876 120.486 83.6607C118.059 81.2338 116.696 77.9423 116.695 74.5102C116.695 72.1694 116.697 70.3798 116.7 70.1252C116.809 62.1077 118.829 54.2316 122.59 47.1505C116.41 55.6115 113.011 65.7842 112.865 76.2612C112.862 76.5157 112.86 78.3054 112.86 80.6461C112.861 84.0782 114.224 87.3697 116.651 89.7966C119.078 92.2235 122.369 93.5872 125.801 93.5876C128.621 93.5865 131.364 92.6649 133.613 90.9628C135.862 89.2607 137.493 86.8712 138.26 84.1572C135.89 86.2821 132.819 87.4555 129.636 87.4516Z" fill="#3F3D56"/>
<path d="M164.46 53.3477C168.427 53.5372 172.29 54.6869 175.715 56.6979C179.141 58.709 182.027 61.5214 184.126 64.8936C186.226 68.2658 187.475 72.0972 187.767 76.0587C188.06 80.0201 187.386 83.9934 185.805 87.6372C188.092 84.9507 189.774 81.8025 190.734 78.4073C191.695 75.0121 191.912 71.4496 191.371 67.9629C190.83 64.4761 189.543 61.1471 187.599 58.2026C185.655 55.2581 183.098 52.7675 180.104 50.9006C177.11 49.0336 173.749 47.8342 170.249 47.3841C166.749 46.934 163.194 47.2438 159.825 48.2924C156.456 49.341 153.352 51.1037 150.726 53.4604C148.1 55.8171 146.013 58.7123 144.607 61.9487C147.037 59.0906 150.09 56.8288 153.532 55.3375C156.974 53.8463 160.713 53.1655 164.46 53.3477Z" fill="#3F3D56"/>
<path d="M168.442 167.986C164.941 167.986 161.579 166.611 159.083 164.156C156.587 161.7 155.157 158.362 155.1 154.862C154.938 144.716 154.854 132.215 154.854 130.787C154.851 127.311 155.352 123.854 156.339 120.521L156.334 120.52C156.917 118.848 157.622 117.22 158.441 115.649C155.925 119.003 153.922 122.712 152.499 126.656L152.504 126.657C151.517 129.99 151.016 133.447 151.019 136.923C151.019 138.351 151.103 150.852 151.265 160.998C151.322 164.498 152.753 167.836 155.249 170.292C157.744 172.747 161.106 174.122 164.607 174.122C167.494 174.121 170.302 173.185 172.612 171.453C174.921 169.721 176.607 167.287 177.416 164.516C174.963 166.753 171.762 167.99 168.442 167.986Z" fill="#3F3D56"/>
<path d="M48.5636 223.419L53.2649 223.418L55.5018 205.284L48.5625 205.284L48.5636 223.419Z" fill="#FFB8B8"/>
<path d="M62.332 227.784L47.5557 227.784L47.5554 222.075L56.6227 222.075C58.1369 222.075 59.589 222.676 60.6597 223.747C61.7304 224.818 62.332 226.27 62.332 227.784Z" fill="#2F2E41"/>
<path d="M31.6896 223.419L36.3909 223.418L38.6278 205.284L31.6885 205.284L31.6896 223.419Z" fill="#FFB8B8"/>
<path d="M45.458 227.784L30.6817 227.784L30.6814 222.075L39.7487 222.075C41.2628 222.075 42.715 222.676 43.7857 223.747C44.8564 224.818 45.4579 226.27 45.458 227.784Z" fill="#2F2E41"/>
<path d="M35.7983 217.841L31.206 217.6C30.9692 217.587 30.7372 217.528 30.5235 217.425C30.3098 217.322 30.1186 217.178 29.961 217.001C29.8034 216.824 29.6825 216.617 29.6053 216.393C29.5282 216.169 29.4963 215.931 29.5115 215.695L35.0003 154.924L60.2769 161.745L62.7122 161.08L55.0966 214.879C55.0317 215.283 54.8308 215.654 54.5269 215.929C54.223 216.204 53.8344 216.367 53.4253 216.391L48.4748 216.622C48.2273 216.636 47.9796 216.598 47.7474 216.511C47.5152 216.424 47.3035 216.29 47.1258 216.117C46.948 215.945 46.8081 215.737 46.7147 215.507C46.6214 215.277 46.5768 215.031 46.5836 214.783L47.4806 182.494C47.4848 182.345 47.4329 182.199 47.3352 182.086C47.2374 181.973 47.101 181.901 46.9526 181.884C46.8042 181.866 46.6548 181.905 46.5336 181.993C46.4125 182.08 46.3285 182.21 46.2982 182.356L37.6477 216.415C37.5661 216.819 37.3468 217.183 37.0273 217.443C36.7077 217.704 36.3077 217.845 35.8955 217.844C35.8633 217.844 35.8309 217.843 35.7983 217.841Z" fill="#2F2E41"/>
<path d="M49.4073 105.2C54.6093 105.2 58.8264 100.983 58.8264 95.7813C58.8264 90.5794 54.6093 86.3623 49.4073 86.3623C44.2053 86.3623 39.9883 90.5794 39.9883 95.7813C39.9883 100.983 44.2053 105.2 49.4073 105.2Z" fill="#FFB8B8"/>
<path d="M33.7255 123.454L34.7611 145.799L35.1355 153.929C35.1505 154.283 35.2706 154.624 35.4806 154.909C35.6907 155.195 35.981 155.411 36.3145 155.53L60.6036 164.329C60.7998 164.402 61.0077 164.438 61.217 164.436C61.4562 164.437 61.6933 164.39 61.9139 164.298C62.1346 164.205 62.3343 164.069 62.5013 163.898C62.6682 163.727 62.7989 163.523 62.8855 163.3C62.9721 163.077 63.013 162.839 63.0055 162.6L62.0097 122.422C61.9443 119.126 60.7309 115.956 58.5786 113.458C56.4264 110.96 53.4702 109.292 50.2197 108.74C49.9847 108.704 49.7457 108.669 49.5067 108.637C47.4911 108.387 45.4451 108.581 43.5128 109.207C41.5804 109.832 39.8086 110.874 38.322 112.257C36.7827 113.673 35.5731 115.41 34.7788 117.345C33.9846 119.279 33.625 121.365 33.7255 123.454Z" fill="#CCCCCC"/>
<path d="M72.2067 159.87C71.6323 159.692 71.1074 159.382 70.674 158.964C70.2407 158.547 69.9109 158.035 69.7108 157.467C69.5108 156.9 69.4462 156.294 69.522 155.697C69.5979 155.1 69.8122 154.53 70.1478 154.031L61.9111 143.078L69.0189 142.638L75.7509 153.106C76.4717 153.664 76.9732 154.457 77.1675 155.347C77.3618 156.237 77.2366 157.167 76.8138 157.974C76.391 158.781 75.6975 159.413 74.8551 159.76C74.0127 160.106 73.0751 160.145 72.2067 159.87Z" fill="#FFB8B8"/>
<path d="M66.4148 152.049C66.1966 151.96 65.9981 151.829 65.8309 151.663C65.6636 151.498 65.5309 151.3 65.4404 151.083L53.0311 121.518C52.7876 120.939 52.6606 120.317 52.6573 119.69C52.654 119.062 52.7745 118.439 53.0118 117.858C53.2492 117.276 53.5988 116.747 54.0407 116.301C54.4826 115.855 55.0081 115.5 55.5871 115.257C56.1662 115.014 56.7874 114.888 57.4154 114.885C58.0434 114.882 58.6658 115.003 59.247 115.241C59.8282 115.478 60.3568 115.829 60.8027 116.271C61.2486 116.713 61.6029 117.239 61.8455 117.818L74.2547 147.384C74.4382 147.822 74.4402 148.315 74.2604 148.755C74.0807 149.195 73.7338 149.546 73.2958 149.73L67.7867 152.042C67.5699 152.134 67.3369 152.182 67.1014 152.183C66.866 152.184 66.6326 152.138 66.4148 152.049Z" fill="#CCCCCC"/>
<path d="M46.3795 151.006L58.2983 128.184C58.5281 127.746 58.9227 127.416 59.3954 127.267C59.8681 127.119 60.3803 127.164 60.8197 127.393L78.1198 136.428C78.5587 136.658 78.8885 137.053 79.0368 137.525C79.1852 137.998 79.14 138.51 78.9111 138.95L66.9924 161.771C66.7625 162.21 66.3679 162.54 65.8952 162.688C65.4225 162.836 64.9103 162.791 64.4709 162.562L47.1708 153.527C46.732 153.297 46.4022 152.903 46.2538 152.43C46.1055 151.957 46.1507 151.445 46.3795 151.006Z" fill="#3F3D56"/>
<path d="M54.3724 140.579C54.1605 140.016 53.82 139.511 53.378 139.103C52.936 138.695 52.4047 138.396 51.8266 138.23C51.2485 138.063 50.6396 138.035 50.0484 138.146C49.4573 138.257 48.9002 138.504 48.4217 138.869L37.0018 131.293L36.9824 138.415L47.8299 144.517C48.4287 145.203 49.2501 145.657 50.15 145.799C51.05 145.94 51.971 145.76 52.7515 145.29C53.5321 144.821 54.1223 144.091 54.4187 143.23C54.7151 142.368 54.6987 141.43 54.3724 140.579Z" fill="#FFB8B8"/>
<path d="M39.9342 142.181L30.6011 134.788C29.5915 134.449 28.6792 133.87 27.9425 133.101C27.2059 132.331 26.6669 131.395 26.3719 130.372C26.0768 129.348 26.0345 128.268 26.2486 127.225C26.4626 126.182 26.9267 125.206 27.6009 124.382L36.075 113.276C36.6639 112.556 37.4921 112.072 38.4082 111.913C39.3243 111.754 40.2672 111.93 41.0644 112.408C41.8616 112.887 42.4599 113.636 42.75 114.52C43.04 115.403 43.0025 116.362 42.6442 117.22L35.9392 128.188L45.7927 132.861C46.0219 132.97 46.2253 133.126 46.3897 133.319C46.554 133.512 46.6755 133.738 46.7461 133.982C46.8167 134.225 46.8349 134.481 46.7993 134.732C46.7637 134.983 46.6753 135.224 46.5398 135.438L42.5623 141.733C42.4279 141.945 42.2503 142.127 42.0411 142.267C41.8319 142.406 41.5957 142.5 41.3479 142.543C41.3381 142.544 41.3281 142.546 41.3182 142.547C41.0747 142.584 40.8263 142.57 40.5882 142.507C40.3502 142.444 40.1276 142.333 39.9342 142.181Z" fill="#CCCCCC"/>
<path d="M42.29 102.089C42.2495 101.97 42.2367 101.844 42.2525 101.72C42.2682 101.596 42.3122 101.478 42.3809 101.373C42.4496 101.269 42.5413 101.182 42.6489 101.118C42.7566 101.055 42.8773 101.017 43.0019 101.007C43.257 101.021 43.5066 101.087 43.7357 101.2C43.9649 101.313 44.1687 101.471 44.3349 101.665C44.6758 102.058 45.0727 102.399 45.5127 102.676C45.9683 102.906 46.5863 102.873 46.8461 102.436C47.09 102.024 46.9229 101.474 46.7752 100.996C46.3994 99.7809 46.1892 98.5206 46.1501 97.2493C46.1076 95.8303 46.3078 94.3493 47.0934 93.2425C48.1073 91.8141 49.9203 91.2718 51.6361 91.3111C53.3518 91.3505 55.0398 91.8801 56.7393 92.2149C57.326 92.3305 58.0157 92.3896 58.4081 91.9349C58.8254 91.4513 58.6721 90.6688 58.4946 90.0159C58.0341 88.3219 57.5455 86.5704 56.4754 85.2022C55.3184 83.7806 53.6657 82.8501 51.8502 82.5982C50.1071 82.3823 48.3377 82.5832 46.6874 83.1843C43.9987 84.0318 41.6328 85.68 39.9061 87.9085C38.1262 90.2784 37.3571 93.2566 37.7669 96.192C38.1674 98.7487 39.5221 101.058 41.5581 102.656L42.29 102.089Z" fill="#2F2E41"/>
<path d="M161.586 223.493C159.08 222.402 156.862 220.743 155.107 218.648C153.352 216.552 152.108 214.077 151.473 211.419C150.838 208.76 150.83 205.99 151.449 203.328C152.068 200.666 153.297 198.184 155.04 196.078C153.019 197.553 151.336 199.441 150.101 201.616C148.866 203.792 148.108 206.205 147.877 208.696C147.646 211.186 147.948 213.698 148.761 216.063C149.575 218.429 150.883 220.594 152.598 222.415C154.312 224.237 156.395 225.673 158.707 226.628C161.019 227.583 163.507 228.035 166.008 227.955C168.508 227.875 170.962 227.263 173.208 226.162C175.454 225.061 177.44 223.494 179.035 221.566C176.548 223.384 173.629 224.518 170.567 224.856C167.506 225.194 164.409 224.724 161.586 223.493Z" fill="#3F3D56"/>
</g>
<defs>
<clipPath id="clip0_74_2074">
<rect width="323.929" height="228.28" fill="white" transform="translate(0.0351562)"/>
</clipPath>
</defs>
</svg>
