<svg width="300" height="229" viewBox="0 0 284 229" fill="none" xmlns="http://www.w3.org/2000/svg">
<g clip-path="url(#clip0_74_1325)">
<path d="M80.1145 151.799C97.8606 151.799 112.247 137.413 112.247 119.667C112.247 101.921 97.8606 87.5345 80.1145 87.5345C62.3685 87.5345 47.9824 101.921 47.9824 119.667C47.9824 137.413 62.3685 151.799 80.1145 151.799Z" fill="#E6E6E6"/>
<path d="M71.4326 166.588L79.3366 171.486V138.378L70.4771 132.888C69.7447 132.435 69.2095 131.722 68.9775 130.892C69.8239 130.73 70.7002 130.893 71.4326 131.347L79.3367 136.244V123.406C79.3367 120.923 79.6413 118.448 80.2436 116.039C80.846 118.448 81.1506 120.923 81.1506 123.406V144.361L92.8113 137.135C93.7424 136.558 94.8197 136.261 95.9149 136.279C95.4435 137.267 94.6978 138.1 93.7667 138.677L81.1505 146.495V224.792H79.3366V173.62L70.4771 168.13C69.7447 167.676 69.2095 166.964 68.9775 166.134C69.8239 165.972 70.7001 166.134 71.4326 166.588Z" fill="#CCCCCC"/>
<path d="M32.5222 154.527C50.2683 154.527 64.6544 140.141 64.6544 122.395C64.6544 104.649 50.2683 90.2628 32.5222 90.2628C14.7762 90.2628 0.390137 104.649 0.390137 122.395C0.390137 140.141 14.7762 154.527 32.5222 154.527Z" fill="#E6E6E6"/>
<path d="M41.204 169.316L33.2999 174.214V141.107L42.1594 135.617C42.8919 135.163 43.4271 134.45 43.659 133.62C42.8126 133.459 41.9364 133.621 41.2039 134.075L33.2999 138.973V126.134C33.2999 123.651 32.9953 121.177 32.3929 118.767C31.7905 121.177 31.486 123.651 31.486 126.134V147.089L19.8253 139.863C18.8942 139.286 17.8169 138.989 16.7217 139.007C17.1931 139.995 17.9388 140.828 18.8699 141.405L31.486 149.223V224.964H33.2999V176.348L42.1594 170.858C42.8919 170.404 43.4271 169.692 43.659 168.862C42.8127 168.7 41.9364 168.863 41.204 169.316Z" fill="#CCCCCC"/>
<path d="M55.8634 110.647C86.4176 110.647 111.187 85.8777 111.187 55.3234C111.187 24.7692 86.4176 6.10352e-05 55.8634 6.10352e-05C25.3091 6.10352e-05 0.540039 24.7692 0.540039 55.3234C0.540039 85.8777 25.3091 110.647 55.8634 110.647Z" fill="#E6E6E6"/>
<path d="M70.811 136.11L57.2022 144.543V87.5401L72.456 78.0878C73.7171 77.3063 74.6386 76.0796 75.038 74.6508C73.5807 74.3724 72.0721 74.6516 70.811 75.4331L57.2022 83.866V61.7619C57.2022 57.4857 56.6778 53.2257 55.6407 49.0773C54.6035 53.2257 54.0791 57.4857 54.0791 61.7619V97.8399L34.0024 85.399C32.3992 84.4056 30.5444 83.8939 28.6587 83.9247C29.4704 85.6271 30.7542 87.0603 32.3573 88.0537L54.0791 101.514V225.086H57.2022V148.217L72.456 138.765C73.7171 137.984 74.6387 136.757 75.038 135.328C73.5807 135.05 72.0721 135.329 70.811 136.11Z" fill="#CCCCCC"/>
<path d="M283.609 224.792H22.4546V225.453H283.609V224.792Z" fill="#3F3D56"/>
<path d="M216.352 99.8121L203.391 107.295L210.874 120.257L223.835 112.774L216.352 99.8121Z" fill="#FF6584"/>
<path d="M216.517 122.958L208.703 109.424L222.237 101.61L230.051 115.145L216.517 122.958ZM209.606 109.666L216.759 122.055L229.148 114.902L221.995 102.513L209.606 109.666Z" fill="#2F2E41"/>
<path d="M204.391 159.327C207.86 159.327 210.672 156.515 210.672 153.046C210.672 149.577 207.86 146.765 204.391 146.765C200.922 146.765 198.11 149.577 198.11 153.046C198.11 156.515 200.922 159.327 204.391 159.327Z" fill="#D0CDE1"/>
<path d="M209.019 159.658C207.712 159.658 206.433 159.27 205.346 158.543C204.259 157.817 203.411 156.784 202.911 155.576C202.411 154.368 202.28 153.039 202.535 151.756C202.79 150.474 203.42 149.296 204.344 148.371C205.269 147.447 206.447 146.817 207.729 146.562C209.012 146.307 210.341 146.438 211.549 146.938C212.757 147.438 213.79 148.286 214.517 149.373C215.243 150.46 215.631 151.739 215.631 153.046C215.631 154.8 214.934 156.481 213.694 157.721C212.454 158.961 210.773 159.658 209.019 159.658ZM209.019 147.096C207.842 147.096 206.692 147.445 205.713 148.099C204.735 148.753 203.972 149.682 203.522 150.769C203.071 151.856 202.954 153.053 203.183 154.207C203.413 155.361 203.98 156.422 204.812 157.254C205.644 158.086 206.704 158.653 207.858 158.882C209.013 159.112 210.209 158.994 211.296 158.544C212.384 158.093 213.313 157.331 213.967 156.352C214.621 155.374 214.97 154.223 214.97 153.046C214.97 151.468 214.343 149.955 213.227 148.839C212.111 147.723 210.597 147.096 209.019 147.096Z" fill="#2F2E41"/>
<path d="M244.015 226.295H183.189C182.444 226.294 181.73 225.998 181.203 225.471C180.676 224.945 180.38 224.23 180.379 223.485V166.957C180.38 166.212 180.676 165.498 181.203 164.971C181.73 164.444 182.444 164.148 183.189 164.147H244.015C244.76 164.148 245.474 164.444 246.001 164.971C246.527 165.498 246.824 166.212 246.825 166.957V223.485C246.824 224.23 246.527 224.945 246.001 225.471C245.474 225.998 244.76 226.294 244.015 226.295Z" fill="#0142EB"/>
<path d="M217.899 228.28H209.304C208.559 228.279 207.845 227.983 207.318 227.456C206.791 226.929 206.495 226.215 206.494 225.47V165.278C206.495 164.533 206.791 163.818 207.318 163.292C207.845 162.765 208.559 162.469 209.304 162.468H217.899C218.644 162.469 219.358 162.765 219.885 163.292C220.412 163.818 220.708 164.533 220.709 165.278V225.47C220.708 226.215 220.412 226.929 219.885 227.456C219.358 227.983 218.644 228.279 217.899 228.28Z" fill="#3F3D56"/>
<path d="M260.175 158.551C259.82 164.383 251.943 168.648 251.943 168.648C251.943 168.648 244.642 163.458 244.997 157.626C245.352 151.795 253.23 147.53 253.23 147.53C253.23 147.53 260.531 152.72 260.175 158.551Z" fill="#3F3D56"/>
<path d="M260.532 176.746C254.7 176.409 250.41 168.545 250.41 168.545C250.41 168.545 255.577 161.228 261.41 161.565C267.242 161.902 271.532 169.766 271.532 169.766C271.532 169.766 266.365 177.083 260.532 176.746Z" fill="#3F3D56"/>
<path opacity="0.1" d="M246.659 171.063V192.643L225.195 164.312H241.545L246.659 171.063Z" fill="black"/>
<path d="M264.881 208.003C264.447 208.004 264.018 207.904 263.629 207.711C263.24 207.518 262.901 207.237 262.638 206.891L217.92 147.87C217.697 147.576 217.534 147.24 217.441 146.883C217.348 146.526 217.326 146.155 217.376 145.789C217.426 145.423 217.548 145.071 217.735 144.753C217.921 144.435 218.168 144.156 218.463 143.933L225.05 138.942C225.344 138.719 225.679 138.557 226.036 138.463C226.393 138.37 226.765 138.348 227.131 138.398C227.496 138.449 227.848 138.571 228.167 138.757C228.485 138.944 228.763 139.191 228.986 139.485L273.705 198.506C273.928 198.8 274.09 199.135 274.184 199.492C274.277 199.849 274.299 200.221 274.249 200.587C274.198 200.952 274.076 201.304 273.89 201.623C273.703 201.941 273.456 202.22 273.162 202.443L266.575 207.434C266.088 207.804 265.493 208.004 264.881 208.003Z" fill="#0142EB"/>
<path d="M246.982 162.141L235.652 170.725L244.236 182.055L255.566 173.471L246.982 162.141Z" fill="#3F3D56"/>
<path d="M188.698 118.965L184.825 133.422L199.281 137.296L203.155 122.839L188.698 118.965Z" fill="#D0CDE1"/>
<path d="M193.148 139.457L178.053 135.412L182.098 120.317L197.193 124.362L193.148 139.457ZM178.863 134.945L192.681 138.647L196.383 124.829L182.565 121.127L178.863 134.945Z" fill="#2F2E41"/>
<path d="M129.562 174.544C129.96 174.163 130.269 173.7 130.467 173.187C130.666 172.675 130.75 172.124 130.714 171.575C130.677 171.027 130.52 170.493 130.255 170.011C129.989 169.529 129.622 169.111 129.177 168.787L123.107 119.852L115.263 122.184L123.731 169.806C123.236 170.589 123.045 171.526 123.194 172.44C123.344 173.354 123.823 174.181 124.542 174.765C125.261 175.349 126.169 175.649 127.094 175.608C128.02 175.568 128.898 175.189 129.562 174.544Z" fill="#FFB8B8"/>
<path d="M136.833 221.317H141.42L143.604 203.623H136.833V221.317Z" fill="#FFB8B8"/>
<path d="M150.268 225.577H135.85V220.006H145.207C146.549 220.006 147.836 220.539 148.785 221.489C149.734 222.438 150.268 223.725 150.268 225.067V225.577Z" fill="#2F2E41"/>
<path d="M105.109 214.172L109.409 215.771L117.624 199.948L111.278 197.587L105.109 214.172Z" fill="#FFB8B8"/>
<path d="M116.216 222.848L102.703 217.821L104.645 212.601L113.415 215.863C114.673 216.331 115.694 217.279 116.252 218.499C116.811 219.72 116.862 221.112 116.394 222.37L116.216 222.848Z" fill="#2F2E41"/>
<path d="M128.603 107.148C133.394 107.148 137.277 103.265 137.277 98.4746C137.277 93.6841 133.394 89.8007 128.603 89.8007C123.813 89.8007 119.929 93.6841 119.929 98.4746C119.929 103.265 123.813 107.148 128.603 107.148Z" fill="#FFB8B8"/>
<path d="M115.036 120.736C114.765 112.747 123.161 107.204 130.226 110.945C131.126 111.422 140.42 119.318 140.771 124.221C141.121 129.125 141.821 137.181 141.821 137.181L151.628 210.384L130.613 209.334L133.151 187.979L119.491 209.695L102.943 204.43L123.258 145.937C123.258 145.937 115.448 132.844 115.036 120.736Z" fill="#2F2E41"/>
<path d="M115.202 123.518L116.551 141.061C116.565 141.244 116.648 141.415 116.783 141.54C116.918 141.665 117.095 141.734 117.278 141.734H123.216C123.336 141.734 123.454 141.704 123.56 141.648C123.666 141.591 123.756 141.509 123.823 141.41C123.889 141.31 123.93 141.195 123.942 141.076C123.954 140.956 123.936 140.836 123.89 140.725L116.602 123.182C116.536 123.022 116.414 122.89 116.26 122.812C116.105 122.733 115.928 122.712 115.759 122.752C115.59 122.793 115.442 122.892 115.339 123.032C115.237 123.173 115.189 123.345 115.202 123.518Z" fill="#2F2E41"/>
<path d="M145.694 171.504C146.044 171.08 146.297 170.584 146.434 170.051C146.572 169.519 146.591 168.962 146.49 168.421C146.39 167.881 146.172 167.369 145.852 166.921C145.532 166.474 145.117 166.102 144.638 165.832L132.882 117.943L125.366 121.177L139.348 167.482C138.948 168.317 138.868 169.27 139.124 170.16C139.379 171.05 139.952 171.816 140.735 172.311C141.517 172.807 142.454 172.999 143.368 172.85C144.282 172.701 145.11 172.222 145.694 171.504Z" fill="#FFB8B8"/>
<path d="M126.41 113.714C126.41 113.714 123.958 118.617 126.41 127.374C128.862 136.13 130.613 143.485 130.613 143.485C130.613 143.485 136.217 139.983 138.669 141.034C141.121 142.084 134.791 117.691 134.791 117.691C134.791 117.691 130.963 109.511 126.41 113.714Z" fill="#2F2E41"/>
<path d="M130.639 99.828C130.756 98.0282 133.026 97.9665 134.83 97.9495C136.633 97.9325 138.79 97.9969 139.81 96.5097C140.485 95.5269 140.356 94.1625 139.799 93.1088C139.241 92.0551 138.325 91.2447 137.423 90.4651C135.096 88.4522 132.697 86.4554 129.902 85.1671C127.107 83.8787 123.833 83.3581 120.934 84.3923C117.374 85.6628 112.561 92.2025 112.145 95.9598C111.73 99.7171 113.231 103.547 115.763 106.355C118.294 109.163 124.087 108.03 127.733 109.029C125.516 105.892 126.977 100.192 130.528 98.7266L130.639 99.828Z" fill="#2F2E41"/>
</g>
<defs>
<clipPath id="clip0_74_1325">
<rect width="283.22" height="228.28" fill="white" transform="translate(0.390137)"/>
</clipPath>
</defs>
</svg>
