<svg width="300" height="229" viewBox="0 0 364 229" fill="none" xmlns="http://www.w3.org/2000/svg">
<g clip-path="url(#clip0_74_2011)">
<path d="M87.7228 228.28C136.169 228.28 175.442 226.451 175.442 224.195C175.442 221.939 136.169 220.11 87.7228 220.11C39.277 220.11 0.00390625 221.939 0.00390625 224.195C0.00390625 226.451 39.277 228.28 87.7228 228.28Z" fill="#E6E6E6"/>
<path d="M180.489 0C179.578 0.000972145 178.704 0.363326 178.06 1.00755C177.416 1.65177 177.054 2.52524 177.053 3.43631V130.829C177.054 131.741 177.416 132.614 178.06 133.258C178.704 133.903 179.578 134.265 180.489 134.266H360.558C361.469 134.265 362.343 133.903 362.987 133.258C363.631 132.614 363.994 131.741 363.995 130.829V3.43631C363.994 2.52524 363.631 1.65177 362.987 1.00755C362.343 0.363326 361.469 0.000971064 360.558 0H180.489Z" fill="#E6E6E6"/>
<path d="M180.919 130.4H360.129V3.86597H180.919V130.4Z" fill="white"/>
<path d="M129.906 161.936C128.806 161.936 127.739 162.314 126.884 163.006C126.029 163.698 125.437 164.663 125.208 165.739H131.908V182.554H125.208C125.455 183.715 126.124 184.743 127.084 185.441C128.045 186.138 129.229 186.455 130.41 186.331C131.59 186.207 132.683 185.65 133.477 184.767C134.271 183.885 134.711 182.74 134.71 181.553V166.74C134.71 166.109 134.586 165.484 134.345 164.901C134.103 164.319 133.749 163.789 133.303 163.343C132.857 162.897 132.328 162.543 131.745 162.301C131.162 162.06 130.537 161.936 129.906 161.936Z" fill="#3F3D56"/>
<path d="M75.8887 132.51C73.5986 132.512 71.4031 133.423 69.7838 135.042C68.1645 136.662 67.2536 138.857 67.251 141.147V207.546C67.2536 209.836 68.1645 212.031 69.7838 213.651C71.4031 215.27 73.5986 216.181 75.8887 216.184H117.866C120.156 216.181 122.351 215.27 123.971 213.651C125.59 212.031 126.501 209.836 126.503 207.546V141.147C126.501 138.857 125.59 136.662 123.971 135.042C122.351 133.423 120.156 132.512 117.866 132.51H75.8887Z" fill="#3F3D56"/>
<path d="M71.4547 223.991C73.8869 223.991 75.8586 222.019 75.8586 219.587C75.8586 217.155 73.8869 215.183 71.4547 215.183C69.0225 215.183 67.0508 217.155 67.0508 219.587C67.0508 222.019 69.0225 223.991 71.4547 223.991Z" fill="#3F3D56"/>
<path d="M120.699 223.991C123.131 223.991 125.103 222.019 125.103 219.587C125.103 217.155 123.131 215.183 120.699 215.183C118.267 215.183 116.295 217.155 116.295 219.587C116.295 222.019 118.267 223.991 120.699 223.991Z" fill="#3F3D56"/>
<path d="M77.0594 131.909H74.6572V216.384H77.0594V131.909Z" fill="#4D4D4D"/>
<path d="M83.866 131.909H81.4639V216.384H83.866V131.909Z" fill="#4D4D4D"/>
<path d="M90.6717 131.909H88.2695V216.384H90.6717V131.909Z" fill="#4D4D4D"/>
<path d="M97.4773 131.909H95.0752V216.384H97.4773V131.909Z" fill="#4D4D4D"/>
<path d="M104.284 131.909H101.882V216.384H104.284V131.909Z" fill="#4D4D4D"/>
<path d="M111.09 131.909H108.688V216.384H111.09V131.909Z" fill="#4D4D4D"/>
<path d="M117.896 131.909H115.494V216.384H117.896V131.909Z" fill="#4D4D4D"/>
<path d="M117.251 125.503C118.82 122.834 119.648 119.793 119.648 116.696H77.11C77.1097 119.793 77.9372 122.834 79.507 125.503H70.8545C70.8545 130.147 74.7755 133.911 79.6122 133.911H90.33C92.1306 134.444 93.9988 134.713 95.8766 134.712H100.881C102.759 134.713 104.627 134.444 106.428 133.911H117.145C121.982 133.911 125.903 130.147 125.903 125.503H117.251Z" fill="#2F2E41"/>
<path d="M85.8291 186.157C85.9081 187.011 85.7266 187.868 85.3085 188.616C84.8904 189.365 84.2553 189.969 83.4869 190.349L83.4654 190.361C79.4615 192.645 76.1851 194.438 72.2966 194.107C71.9048 194.073 71.5263 193.948 71.1906 193.743C70.8548 193.538 70.571 193.258 70.3611 192.925C70.1511 192.593 70.0209 192.216 69.9804 191.825C69.9399 191.434 69.9903 191.038 70.1276 190.67L75.6585 180.152C78.8713 176.409 81.1355 176.405 85.0668 179.551L85.8291 186.157Z" fill="#2F2E41"/>
<path d="M108.726 186.157C108.647 187.011 108.829 187.868 109.247 188.616C109.665 189.365 110.3 189.969 111.068 190.349L111.09 190.361C115.094 192.645 118.37 194.438 122.258 194.107C122.65 194.073 123.029 193.948 123.365 193.743C123.7 193.538 123.984 193.258 124.194 192.925C124.404 192.593 124.534 192.216 124.575 191.825C124.615 191.434 124.565 191.038 124.428 190.67L118.897 180.152C115.684 176.409 113.42 176.405 109.488 179.551L108.726 186.157Z" fill="#2F2E41"/>
<path d="M92.6516 62.2476H77.2614C76.5642 62.2488 75.8852 62.0252 75.325 61.6102C74.7648 61.1952 74.3533 60.6107 74.1513 59.9434C73.6774 58.3639 73.0656 56.8315 73.0559 55.4416C73.0181 50.0474 73.2862 46.6139 75.6582 44.4319C83.5614 38.4392 89.2879 39.5415 94.675 45.8331C96.5661 49.348 96.0807 54.594 95.0578 60.2314C94.9566 60.7961 94.6602 61.3074 94.2204 61.6759C93.7806 62.0444 93.2254 62.2467 92.6516 62.2476Z" fill="#2F2E41"/>
<path d="M84.666 69.0536C90.4149 69.0536 95.0752 64.3933 95.0752 58.6444C95.0752 52.8956 90.4149 48.2352 84.666 48.2352C78.9172 48.2352 74.2568 52.8956 74.2568 58.6444C74.2568 64.3933 78.9172 69.0536 84.666 69.0536Z" fill="#A0616A"/>
<path d="M92.6734 79.463L78.2606 79.8633L77.0596 64.2495L91.072 63.8491L92.6734 79.463Z" fill="#A0616A"/>
<path d="M117.095 116.696L107.15 121.299C105.483 125.252 103.186 125.138 100.28 121.1C97.5062 125.957 91.5322 123.046 88.6135 120.925C86.732 119.966 84.651 119.464 82.5392 119.459C80.4275 119.455 78.3444 119.948 76.459 120.899L65.8496 73.8578C69.1198 71.0463 73.4775 69.2804 77.6601 68.0527L85.8673 78.2617L91.4723 68.2529C95.368 65.1207 100.84 65.115 106.686 65.8508L110.099 84.0988C107.848 98.4935 111.233 105.713 117.095 116.696Z" fill="#0142EB"/>
<path d="M84.2663 178.751L75.8588 179.551L63.4039 124.505C63.1207 123.23 63.1273 121.908 63.4233 120.636C63.7194 119.365 64.2973 118.176 65.1144 117.157C65.9314 116.138 66.9669 115.316 68.1442 114.751C69.3215 114.186 70.6107 113.893 71.9165 113.893C73.1581 113.893 74.3853 114.158 75.5162 114.671C76.6471 115.183 77.6554 115.931 78.4739 116.865C79.2923 117.799 79.9019 118.896 80.262 120.085C80.622 121.273 80.7242 122.524 80.5616 123.755L79.0617 135.112L84.2663 178.751Z" fill="#2F2E41"/>
<path d="M109.488 179.551L117.896 179.151L130.351 124.505C130.634 123.23 130.627 121.908 130.331 120.637C130.035 119.365 129.457 118.176 128.64 117.157C127.823 116.138 126.788 115.316 125.61 114.751C124.433 114.187 123.144 113.893 121.838 113.893C120.596 113.893 119.369 114.158 118.238 114.671C117.108 115.183 116.099 115.932 115.281 116.865C114.462 117.799 113.853 118.897 113.493 120.085C113.133 121.273 113.03 122.524 113.193 123.755L114.693 135.112L109.488 179.551Z" fill="#2F2E41"/>
<path d="M136.816 100.553L129.707 118.898C125.82 115.926 122.686 115.52 118.375 117.096C117.182 116.931 116.295 114.31 116.295 113.106C116.295 112.486 116.534 111.889 116.963 111.44C117.392 110.992 117.977 110.726 118.597 110.697L125.103 110.402C126.293 107.285 127.017 104.01 127.25 100.682C130.371 99.7959 133.672 99.7516 136.816 100.553Z" fill="#A0616A"/>
<path d="M137.513 101.082L139.246 94.6149C140.003 92.2497 139.928 89.6968 139.035 87.3796C138.142 85.0624 136.484 83.1202 134.335 81.8749L106.686 65.8508L106.285 83.4664L126.703 92.2742C127.267 95.2713 127.45 98.3276 127.249 101.371C130.433 100.424 134.32 100.223 137.513 101.082Z" fill="#0142EB"/>
<path d="M94.8753 52.8393L84.0657 54.8411C83.0668 54.8411 82.0776 54.6443 81.1547 54.2621C80.2318 53.8798 79.3933 53.3195 78.6869 52.6131C77.9806 51.9068 77.4203 51.0682 77.038 50.1453C76.6557 49.2225 76.459 48.2333 76.459 47.2344H95.2756L94.8753 52.8393Z" fill="#2F2E41"/>
<path d="M75.0575 56.8428C75.6103 56.8428 76.0584 55.9465 76.0584 54.841C76.0584 53.7355 75.6103 52.8392 75.0575 52.8392C74.5048 52.8392 74.0566 53.7355 74.0566 54.841C74.0566 55.9465 74.5048 56.8428 75.0575 56.8428Z" fill="#A0616A"/>
<path d="M108.087 86.702H107.971V83.517C107.971 83.2749 107.923 83.0352 107.83 82.8115C107.738 82.5879 107.602 82.3847 107.431 82.2135C107.26 82.0423 107.056 81.9065 106.833 81.8139C106.609 81.7213 106.369 81.6736 106.127 81.6736H99.3795C99.1374 81.6736 98.8977 81.7213 98.6741 81.8139C98.4504 81.9065 98.2472 82.0423 98.076 82.2135C97.9049 82.3847 97.7691 82.5879 97.6764 82.8115C97.5838 83.0352 97.5361 83.2749 97.5361 83.517V100.99C97.5361 101.232 97.5838 101.472 97.6764 101.696C97.7691 101.919 97.9049 102.122 98.076 102.294C98.2472 102.465 98.4504 102.601 98.6741 102.693C98.8977 102.786 99.1374 102.833 99.3795 102.833H106.127C106.369 102.833 106.609 102.786 106.833 102.693C107.056 102.601 107.26 102.465 107.431 102.294C107.602 102.122 107.738 101.919 107.83 101.696C107.923 101.472 107.971 101.232 107.971 100.99V88.9691H108.087V86.702Z" fill="#E6E6E6"/>
<path d="M102.482 88.4708C103.367 88.4708 104.084 87.7538 104.084 86.8694C104.084 85.9849 103.367 85.2679 102.482 85.2679C101.598 85.2679 100.881 85.9849 100.881 86.8694C100.881 87.7538 101.598 88.4708 102.482 88.4708Z" fill="#0142EB"/>
<path d="M101.081 101.482C92.8455 107.947 84.5887 113.328 78.4608 114.093L77.46 103.084C83.3454 102.235 91.2144 98.3578 99.4794 93.8755L103.522 91.7735C104.174 91.4345 104.899 91.2625 105.634 91.2726C106.369 91.2828 107.089 91.475 107.732 91.8319C108.374 92.1888 108.917 92.6994 109.314 93.3179C109.711 93.9364 109.948 94.6435 110.004 95.3761C110.084 96.4151 109.796 97.4491 109.191 98.2975C108.586 99.1459 107.703 99.7548 106.694 100.018L101.081 101.482Z" fill="#A0616A"/>
<path d="M85.4666 114.294L69.0521 114.694C63.5289 103.859 61.5244 92.2962 62.6464 80.0878C62.6464 78.7832 62.9627 77.4981 63.5682 76.3425C64.1737 75.1869 65.0503 74.1953 66.1229 73.4527L67.851 72.2563C75.2401 83.2253 79.8232 93.4114 78.2602 101.883L83.0645 101.482C79.9533 105.681 81.3935 109.963 85.4666 114.294Z" fill="#0142EB"/>
<path d="M14.4434 161.575C14.4434 161.575 15.2914 143.335 32.6769 145.455L14.4434 161.575Z" fill="#E6E6E6"/>
<path d="M14.2396 223.382C14.2178 223.191 12.1658 204.185 20.4746 194.126C23.541 190.413 27.65 188.334 32.687 187.947L32.7425 188.664C27.9079 189.036 23.967 191.027 21.0297 194.582C12.9153 204.404 14.9322 223.113 14.9533 223.301L14.2396 223.382Z" fill="#E6E6E6"/>
<path d="M14.2603 142.925H13.5371V222.839H14.2603V142.925Z" fill="#E6E6E6"/>
<path d="M14 143.839C17.2786 143.839 19.9365 141.181 19.9365 137.903C19.9365 134.624 17.2786 131.966 14 131.966C10.7213 131.966 8.06348 134.624 8.06348 137.903C8.06348 141.181 10.7213 143.839 14 143.839Z" fill="#0142EB"/>
<path d="M32.7144 194.204C35.9723 194.204 38.6133 191.563 38.6133 188.305C38.6133 185.047 35.9723 182.406 32.7144 182.406C29.4565 182.406 26.8154 185.047 26.8154 188.305C26.8154 191.563 29.4565 194.204 32.7144 194.204Z" fill="#E6E6E6"/>
<path d="M205.957 29.0865C204.007 29.0866 202.101 29.6648 200.479 30.7481C198.858 31.8314 197.594 33.3712 196.848 35.1727C196.102 36.9742 195.907 38.9565 196.287 40.869C196.668 42.7815 197.607 44.5382 198.985 45.917C200.364 47.2958 202.121 48.2348 204.033 48.6152C205.946 48.9956 207.928 48.8003 209.73 48.0541C211.531 47.3079 213.071 46.0443 214.154 44.4229C215.238 42.8016 215.816 40.8955 215.816 38.9456C215.816 37.6509 215.561 36.3688 215.065 35.1727C214.57 33.9765 213.844 32.8897 212.928 31.9742C212.013 31.0587 210.926 30.3325 209.73 29.837C208.533 29.3415 207.251 29.0865 205.957 29.0865ZM210.498 39.9065C210.397 39.9065 210.058 39.9035 209.96 39.8975L208.017 39.8466C208.007 39.8464 207.997 39.8487 207.988 39.8535C207.979 39.8582 207.971 39.8651 207.966 39.8736L205.05 44.2323C205.007 44.3004 204.947 44.3563 204.876 44.3951C204.806 44.4338 204.726 44.454 204.646 44.4538H203.936C203.769 44.4538 203.712 44.2862 203.772 44.1305L205.272 39.8526C205.275 39.8437 205.276 39.8342 205.275 39.8247C205.274 39.8152 205.271 39.8061 205.266 39.7982C205.26 39.7903 205.253 39.7838 205.245 39.7792C205.237 39.7746 205.227 39.772 205.218 39.7718L201.574 39.691C201.537 39.6901 201.499 39.6981 201.465 39.7142C201.43 39.7303 201.4 39.7541 201.377 39.7838L200.248 41.1519C200.203 41.2086 200.146 41.2545 200.08 41.2861C200.015 41.3177 199.944 41.3342 199.871 41.3345H199.371C199.352 41.3347 199.333 41.3302 199.316 41.3216C199.299 41.3129 199.284 41.3003 199.273 41.2847C199.262 41.2692 199.255 41.2511 199.252 41.2322C199.249 41.2132 199.251 41.1939 199.257 41.1758L199.853 39.1192C199.898 39.0047 199.898 38.8774 199.853 38.7629L199.257 36.7063C199.251 36.6882 199.249 36.6689 199.252 36.65C199.255 36.631 199.262 36.613 199.273 36.5974C199.284 36.5818 199.299 36.5692 199.316 36.5605C199.333 36.5519 199.352 36.5475 199.371 36.5477H199.874C199.947 36.5472 200.018 36.5635 200.084 36.5951C200.149 36.6268 200.206 36.673 200.251 36.7303L201.359 38.0774C201.382 38.1073 201.412 38.1313 201.447 38.1474C201.481 38.1635 201.519 38.1713 201.556 38.1702L205.221 38.1163C205.23 38.1163 205.24 38.1139 205.248 38.1093C205.257 38.1048 205.264 38.0982 205.269 38.0902C205.274 38.0822 205.278 38.0731 205.279 38.0635C205.28 38.054 205.278 38.0444 205.275 38.0355L203.775 33.7606C203.715 33.6049 203.772 33.4373 203.939 33.4373H204.649C204.729 33.4374 204.809 33.4578 204.879 33.4965C204.95 33.5352 205.01 33.591 205.053 33.6588L207.966 38.0205C207.971 38.0292 207.979 38.0364 207.987 38.0411C207.996 38.0459 208.007 38.0481 208.017 38.0475L209.96 37.9966C210.055 37.9906 210.397 37.9876 210.498 37.9876C211.828 37.9876 212.663 38.4187 212.663 38.9485C212.663 39.4784 211.825 39.9065 210.498 39.9065Z" fill="#3F3D56"/>
<path d="M230.976 38.4823H228.524V39.2993H230.976V38.4823Z" fill="#3F3D56"/>
<path d="M317.279 39.2993H312.484V38.4823H317.279V39.2993ZM307.69 39.2993H302.895V38.4823H307.69L307.69 39.2993ZM298.1 39.2993H293.305V38.4823H298.1V39.2993ZM288.511 39.2993H283.716V38.4823H288.511V39.2993ZM278.922 39.2993H274.127V38.4823H278.922V39.2993ZM269.332 39.2993H264.537V38.4823H269.332V39.2993ZM259.743 39.2993H254.948V38.4823H259.743V39.2993ZM250.154 39.2993H245.359V38.4823H250.154V39.2993ZM240.564 39.2993H235.77V38.4823H240.564V39.2993Z" fill="#3F3D56"/>
<path d="M324.525 38.4823H322.074V39.2993H324.525V38.4823Z" fill="#3F3D56"/>
<path d="M230.976 66.6698H228.524V67.4868H230.976V66.6698Z" fill="#3F3D56"/>
<path d="M317.279 67.4868H312.484V66.6698H317.279V67.4868ZM307.69 67.4868H302.895V66.6698H307.69L307.69 67.4868ZM298.1 67.4868H293.305V66.6698H298.1V67.4868ZM288.511 67.4868H283.716V66.6698H288.511V67.4868ZM278.922 67.4868H274.127V66.6698H278.922V67.4868ZM269.332 67.4868H264.537V66.6698H269.332V67.4868ZM259.743 67.4868H254.948V66.6698H259.743V67.4868ZM250.154 67.4868H245.359V66.6698H250.154V67.4868ZM240.564 67.4868H235.77V66.6698H240.564V67.4868Z" fill="#3F3D56"/>
<path d="M324.525 66.6698H322.074V67.4868H324.525V66.6698Z" fill="#3F3D56"/>
<path d="M230.976 94.8573H228.524V95.6743H230.976V94.8573Z" fill="#3F3D56"/>
<path d="M317.279 95.6743H312.484V94.8573H317.279V95.6743ZM307.69 95.6743H302.895V94.8573H307.69L307.69 95.6743ZM298.1 95.6743H293.305V94.8573H298.1V95.6743ZM288.511 95.6743H283.716V94.8573H288.511V95.6743ZM278.922 95.6743H274.127V94.8573H278.922V95.6743ZM269.332 95.6743H264.537V94.8573H269.332V95.6743ZM259.743 95.6743H254.948V94.8573H259.743V95.6743ZM250.154 95.6743H245.359V94.8573H250.154V95.6743ZM240.564 95.6743H235.77V94.8573H240.564V95.6743Z" fill="#3F3D56"/>
<path d="M324.525 94.8573H322.074V95.6743H324.525V94.8573Z" fill="#3F3D56"/>
<path d="M205.78 57.6825C203.895 57.6825 202.053 58.2413 200.486 59.2882C198.92 60.3351 197.698 61.8232 196.977 63.5641C196.256 65.3051 196.067 67.2208 196.435 69.069C196.803 70.9172 197.71 72.6149 199.043 73.9473C200.375 75.2798 202.073 76.1872 203.921 76.5549C205.769 76.9225 207.685 76.7338 209.426 76.0127C211.167 75.2915 212.655 74.0704 213.702 72.5035C214.749 70.9367 215.307 69.0946 215.307 67.2102C215.307 64.6833 214.304 62.2599 212.517 60.4731C210.73 58.6863 208.307 57.6825 205.78 57.6825ZM201.324 66.8862L201.851 64.0857C201.987 63.3249 202.34 62.726 203.002 62.726H203.998L204.055 62.4975C204.106 62.2981 204.222 62.1213 204.384 61.995C204.547 61.8687 204.747 61.8002 204.952 61.8002H206.601C206.807 61.8002 207.006 61.8683 207.168 61.994C207.331 62.1197 207.447 62.2958 207.498 62.4946L207.556 62.726H208.557C209.205 62.726 209.549 63.3133 209.711 64.0828V64.0857L210.241 66.8891C210.245 66.91 210.243 66.9317 210.236 66.9517C210.228 66.9718 210.216 66.9894 210.199 67.0026C210.182 67.0158 210.162 67.024 210.141 67.0265C210.12 67.0289 210.098 67.0254 210.079 67.0164L209.344 66.6779C209.327 66.6707 209.311 66.6593 209.3 66.6446C209.288 66.6299 209.28 66.6125 209.277 66.594L208.809 64.1176C208.722 63.7993 208.6 63.6547 208.343 63.6547H203.219C202.965 63.6547 202.826 63.808 202.754 64.1176L202.285 66.594C202.281 66.6123 202.273 66.6294 202.262 66.644C202.25 66.6586 202.235 66.6702 202.218 66.6779L201.486 67.0135C201.467 67.0222 201.446 67.0255 201.425 67.023C201.403 67.0204 201.383 67.0121 201.367 66.999C201.35 66.9858 201.337 66.9684 201.33 66.9485C201.322 66.9286 201.32 66.9071 201.324 66.8862ZM211.528 68.6885L209.946 72.6202C209.351 72.5607 208.784 72.3407 208.305 71.9837C207.577 72.2928 206.801 72.4748 206.011 72.5218C205.93 72.5247 205.852 72.5276 205.78 72.5276C205.707 72.5276 205.629 72.5276 205.548 72.5218C204.759 72.4734 203.983 72.2914 203.254 71.9837C202.775 72.3407 202.208 72.5607 201.614 72.6202L200.031 68.6885C200.007 68.6268 199.994 68.5611 199.994 68.4947C199.994 68.3949 200.022 68.2971 200.076 68.2131C200.13 68.129 200.207 68.0621 200.297 68.0203L205.681 65.5467C205.712 65.5324 205.745 65.525 205.778 65.525C205.812 65.525 205.845 65.5324 205.875 65.5467L211.262 68.0203C211.353 68.0621 211.429 68.129 211.483 68.2131C211.537 68.2971 211.566 68.3949 211.566 68.4947C211.565 68.5611 211.553 68.6268 211.528 68.6885Z" fill="#3F3D56"/>
<path d="M209.213 92.9756H206.347C206.316 92.9757 206.287 92.988 206.265 93.01C206.243 93.0319 206.231 93.0616 206.23 93.0926V97.1866C206.231 97.2176 206.243 97.2473 206.265 97.2692C206.287 97.2911 206.316 97.3034 206.347 97.3035H209.213C209.337 97.3032 209.456 97.2538 209.544 97.1661C209.631 97.0784 209.681 96.9596 209.681 96.8356V93.4435C209.681 93.3195 209.631 93.2007 209.544 93.113C209.456 93.0254 209.337 92.9759 209.213 92.9756Z" fill="#3F3D56"/>
<path d="M208.57 98.1808C208.389 98.1952 208.22 98.2791 208.099 98.4151C207.979 98.5512 207.915 98.7286 207.922 98.9104C207.93 99.0922 208.007 99.2641 208.138 99.3901C208.269 99.5162 208.444 99.5866 208.626 99.5866C208.808 99.5866 208.983 99.5162 209.114 99.3901C209.245 99.2641 209.322 99.0922 209.329 98.9104C209.336 98.7286 209.273 98.5512 209.152 98.4151C209.032 98.2791 208.863 98.1952 208.681 98.1808C208.644 98.1779 208.607 98.1779 208.57 98.1808Z" fill="#3F3D56"/>
<path d="M202.958 98.1808C202.777 98.1952 202.608 98.2791 202.487 98.4151C202.366 98.5512 202.303 98.7286 202.31 98.9104C202.317 99.0922 202.395 99.2641 202.526 99.3901C202.657 99.5162 202.832 99.5866 203.014 99.5866C203.195 99.5866 203.37 99.5162 203.501 99.3901C203.633 99.2641 203.71 99.0922 203.717 98.9104C203.724 98.7286 203.661 98.5512 203.54 98.4151C203.419 98.2791 203.25 98.1952 203.069 98.1808C203.032 98.1779 202.995 98.1779 202.958 98.1808Z" fill="#3F3D56"/>
<path d="M205.295 92.9756H202.435C202.309 92.9761 202.189 93.0261 202.1 93.1149C202.011 93.2036 201.961 93.3238 201.961 93.4493V96.8298C201.961 96.9553 202.011 97.0755 202.1 97.1642C202.189 97.253 202.309 97.303 202.435 97.3035H205.295C205.326 97.3034 205.355 97.2911 205.377 97.2692C205.399 97.2472 205.411 97.2175 205.412 97.1865V93.0926C205.411 93.0616 205.399 93.0319 205.377 93.01C205.355 92.988 205.326 92.9757 205.295 92.9756Z" fill="#3F3D56"/>
<path d="M205.821 85.9183C203.916 85.9183 202.054 86.4832 200.471 87.5414C198.887 88.5996 197.652 90.1037 196.924 91.8635C196.195 93.6233 196.004 95.5597 196.375 97.4278C196.747 99.296 197.664 101.012 199.011 102.359C200.358 103.706 202.074 104.623 203.942 104.995C205.81 105.366 207.747 105.175 209.507 104.447C211.266 103.718 212.77 102.483 213.829 100.899C214.887 99.3157 215.452 97.4537 215.452 95.549C215.452 92.9948 214.437 90.5452 212.631 88.7391C210.825 86.933 208.375 85.9183 205.821 85.9183ZM210.5 99.4675C210.499 99.7775 210.376 100.074 210.156 100.294C209.937 100.513 209.64 100.636 209.33 100.637H202.312C202.002 100.636 201.705 100.513 201.486 100.294C201.267 100.074 201.143 99.7775 201.142 99.4675V91.3965C201.143 91.1486 201.242 90.911 201.417 90.7356C201.592 90.5603 201.83 90.4615 202.078 90.4607H209.564C209.812 90.4615 210.05 90.5603 210.225 90.7356C210.4 90.911 210.499 91.1486 210.5 91.3965V99.4675Z" fill="#3F3D56"/>
<path d="M209.242 91.2795H202.4C202.343 91.2757 202.287 91.2834 202.234 91.3022C202.181 91.321 202.132 91.3505 202.091 91.3889C202.05 91.4273 202.017 91.4738 201.995 91.5254C201.973 91.577 201.961 91.6327 201.961 91.6889C201.961 91.7452 201.973 91.8009 201.995 91.8525C202.017 91.9041 202.05 91.9505 202.091 91.9889C202.132 92.0273 202.181 92.0569 202.234 92.0757C202.287 92.0945 202.343 92.1022 202.4 92.0983H209.242C209.299 92.1022 209.355 92.0945 209.408 92.0757C209.461 92.0569 209.51 92.0273 209.551 91.9889C209.592 91.9505 209.625 91.9041 209.647 91.8525C209.669 91.8009 209.681 91.7452 209.681 91.6889C209.681 91.6327 209.669 91.577 209.647 91.5254C209.625 91.4738 209.592 91.4273 209.551 91.3889C209.51 91.3505 209.461 91.321 209.408 91.3022C209.355 91.2834 209.299 91.2757 209.242 91.2795Z" fill="#3F3D56"/>
<path d="M338.823 45.0186C337.611 45.0186 336.426 44.6592 335.419 43.9859C334.411 43.3126 333.626 42.3556 333.162 41.2359C332.698 40.1162 332.577 38.8841 332.813 37.6954C333.049 36.5068 333.633 35.4149 334.49 34.558C335.347 33.701 336.439 33.1174 337.628 32.8809C338.816 32.6445 340.048 32.7658 341.168 33.2296C342.288 33.6934 343.245 34.4788 343.918 35.4865C344.591 36.4942 344.951 37.679 344.951 38.8909C344.949 40.5155 344.303 42.0731 343.154 43.2219C342.005 44.3706 340.448 45.0168 338.823 45.0186ZM338.823 33.5802C337.773 33.5802 336.746 33.8917 335.873 34.4752C334.999 35.0588 334.319 35.8882 333.917 36.8586C333.515 37.829 333.409 38.8968 333.614 39.927C333.819 40.9571 334.325 41.9034 335.068 42.6461C335.811 43.3888 336.757 43.8946 337.787 44.0996C338.817 44.3045 339.885 44.1993 340.855 43.7973C341.826 43.3954 342.655 42.7147 343.239 41.8414C343.822 40.968 344.134 39.9413 344.134 38.8909C344.132 37.4829 343.572 36.133 342.577 35.1374C341.581 34.1418 340.231 33.5818 338.823 33.5802Z" fill="#0142EB"/>
<path d="M341.155 37.1372L340.577 36.5596L338.824 38.3133L337.07 36.5596L336.492 37.1372L338.246 38.891L336.492 40.6447L337.07 41.2224L338.824 39.4686L340.577 41.2224L341.155 40.6447L339.401 38.891L341.155 37.1372Z" fill="#0142EB"/>
<path d="M338.823 73.2061C337.611 73.2061 336.426 72.8467 335.419 72.1734C334.411 71.5001 333.626 70.5431 333.162 69.4234C332.698 68.3037 332.577 67.0716 332.813 65.8829C333.049 64.6943 333.633 63.6024 334.49 62.7455C335.347 61.8885 336.439 61.3049 337.628 61.0684C338.816 60.832 340.048 60.9533 341.168 61.4171C342.288 61.8809 343.245 62.6663 343.918 63.674C344.591 64.6817 344.951 65.8665 344.951 67.0784C344.949 68.703 344.303 70.2606 343.154 71.4094C342.005 72.5581 340.448 73.2043 338.823 73.2061ZM338.823 61.7677C337.773 61.7677 336.746 62.0792 335.873 62.6627C334.999 63.2463 334.319 64.0757 333.917 65.0461C333.515 66.0165 333.409 67.0843 333.614 68.1145C333.819 69.1446 334.325 70.0909 335.068 70.8336C335.811 71.5763 336.757 72.0821 337.787 72.2871C338.817 72.492 339.885 72.3868 340.855 71.9848C341.826 71.5829 342.655 70.9022 343.239 70.0289C343.822 69.1555 344.134 68.1288 344.134 67.0784C344.132 65.6704 343.572 64.3205 342.577 63.3249C341.581 62.3293 340.231 61.7693 338.823 61.7677Z" fill="#0142EB"/>
<path d="M341.155 65.3247L340.577 64.7471L338.824 66.5008L337.07 64.7471L336.492 65.3247L338.246 67.0785L336.492 68.8322L337.07 69.4099L338.824 67.6561L340.577 69.4099L341.155 68.8322L339.401 67.0785L341.155 65.3247Z" fill="#0142EB"/>
<path d="M338.823 101.394C337.611 101.394 336.426 101.034 335.419 100.361C334.411 99.6876 333.626 98.7306 333.162 97.6109C332.698 96.4912 332.577 95.2591 332.813 94.0704C333.049 92.8818 333.633 91.7899 334.49 90.933C335.347 90.076 336.439 89.4924 337.628 89.2559C338.816 89.0195 340.048 89.1408 341.168 89.6046C342.288 90.0684 343.245 90.8538 343.918 91.8615C344.591 92.8692 344.951 94.054 344.951 95.2659C344.949 96.8905 344.303 98.4481 343.154 99.5969C342.005 100.746 340.448 101.392 338.823 101.394ZM338.823 89.9552C337.773 89.9552 336.746 90.2667 335.873 90.8502C334.999 91.4338 334.319 92.2632 333.917 93.2336C333.515 94.204 333.409 95.2718 333.614 96.302C333.819 97.3321 334.325 98.2784 335.068 99.0211C335.811 99.7638 336.757 100.27 337.787 100.475C338.817 100.679 339.885 100.574 340.855 100.172C341.826 99.7704 342.655 99.0897 343.239 98.2164C343.822 97.343 344.134 96.3163 344.134 95.2659C344.132 93.8579 343.572 92.508 342.577 91.5124C341.581 90.5168 340.231 89.9568 338.823 89.9552Z" fill="#0142EB"/>
<path d="M341.155 93.5122L340.577 92.9346L338.824 94.6883L337.07 92.9346L336.492 93.5122L338.246 95.266L336.492 97.0197L337.07 97.5974L338.824 95.8436L340.577 97.5974L341.155 97.0197L339.401 95.266L341.155 93.5122Z" fill="#0142EB"/>
</g>
<defs>
<clipPath id="clip0_74_2011">
<rect width="363.991" height="228.28" fill="white" transform="translate(0.00390625)"/>
</clipPath>
</defs>
</svg>
